<?xml version="1.0" encoding="UTF-8" standalone="no"?>
<!-- Generator: Adobe Illustrator 16.0.3, SVG Export Plug-In . SVG Version: 6.00 Build 0)  -->

<svg
   xmlns:dc="http://purl.org/dc/elements/1.1/"
   xmlns:cc="http://creativecommons.org/ns#"
   xmlns:rdf="http://www.w3.org/1999/02/22-rdf-syntax-ns#"
   xmlns:svg="http://www.w3.org/2000/svg"
   xmlns="http://www.w3.org/2000/svg"
   xmlns:sodipodi="http://sodipodi.sourceforge.net/DTD/sodipodi-0.dtd"
   xmlns:inkscape="http://www.inkscape.org/namespaces/inkscape"
   version="1.1"
   id="Ebene_1"
   x="0px"
   y="0px"
   width="50px"
   height="50px"
   viewBox="0 0 50 50"
   enable-background="new 0 0 50 50"
   xml:space="preserve"
   inkscape:version="0.91 r13725"
   sodipodi:docname="bw.svg"><metadata
     id="metadata13"><rdf:RDF><cc:Work
         rdf:about=""><dc:format>image/svg+xml</dc:format><dc:type
           rdf:resource="http://purl.org/dc/dcmitype/StillImage" /></cc:Work></rdf:RDF></metadata><defs
     id="defs11" /><sodipodi:namedview
     pagecolor="#ffffff"
     bordercolor="#666666"
     borderopacity="1"
     objecttolerance="10"
     gridtolerance="10"
     guidetolerance="10"
     inkscape:pageopacity="0"
     inkscape:pageshadow="2"
     inkscape:window-width="1319"
     inkscape:window-height="719"
     id="namedview9"
     showgrid="false"
     inkscape:zoom="4.72"
     inkscape:cx="25"
     inkscape:cy="25"
     inkscape:window-x="0"
     inkscape:window-y="23"
     inkscape:window-maximized="0"
     inkscape:current-layer="Ebene_1" /><g
     id="g5"
     transform="translate(-8.7948354e-4,-2.3035)"><path
       d="m 25.087,18.771 c 0,0 -1.375,1.891 -0.86,2.923 0.172,0.344 0.707,0.458 1.343,0.458 1.273,0 2.954,-0.458 2.954,-0.458 l 9.799,-2.751 c 0,0 0.347,-0.061 0.857,-0.061 1.213,0 3.35,0.341 3.953,2.64 0.315,2.477 -0.826,3.084 -1.718,3.953 1.538,0.142 2.084,4.156 2.062,5.328 0.405,-0.141 0.74,-0.195 1.018,-0.195 0.997,0 1.257,0.711 1.39,0.711 0.172,0 -0.17,3.812 -0.17,3.812 L 40.9,34.984 c 0,0 -0.607,-1.723 2.233,-1.833 -3.953,-1.203 -5.671,-3.497 -5.671,-3.497 0,0 -1.547,2.117 -2.063,2.977 -0.517,0.86 -0.687,3.204 -0.687,3.204 l -6.189,0 c 0.101,-1.121 0.315,-1.841 1.021,-2.172 l 2.571,-0.281 0.669,-4.814 -0.721,-0.172 c 0,0 -7.976,3.783 -8.491,3.783 -0.515,0 -3.059,0.172 -3.059,0.172 l 0,1.031 -8.864,2.053 -5.648,-0.102 c -0.092,-1.844 1.149,-2.271 2.32,-2.271 1.013,0 1.974,0.32 1.974,0.32 L 13.211,31.147 6.838,27.021 4.066,26.85 c 0.452,-1.547 1.282,-2.03 2.146,-2.03 1.438,0 2.963,1.343 2.963,1.343 l 3.451,0.143 c 0,0 0.03,-1.039 0.144,-1.42 -0.399,0.309 -2.907,0.59 -2.907,0.59 l 0,-1.718 c 0,0 0.606,0.408 1.108,0.408 0.34,0 0.633,-0.188 0.657,-0.818 -0.12,0.096 -0.121,0.218 -1.247,0.218 -2.704,0 -2.108,-2.511 -2.108,-2.511 0,0 0.216,1.057 0.837,1.644 0.34,0.32 1.048,0.341 1.333,0.341 0.692,0 1.334,-0.183 1.503,-0.234 -0.13,-0.428 -0.466,-0.558 -0.826,-0.558 -0.552,0 -1.16,0.307 -1.16,0.307 0,0 -0.242,-0.475 0,-1.719 2.133,-1.334 3.899,-1.656 5.107,-1.656 1.127,0 1.768,0.281 1.768,0.281 l 2.579,-0.688 -1.032,1.375 c 0,0 2.659,2.82 2.406,4.985 0.239,0.273 0.981,0.384 2.03,0.384 4.228,0 13.438,-1.792 14.815,-1.932 0.156,-0.016 0.306,-0.023 0.447,-0.023 1.421,0 2.131,0.711 2.131,0.711 0,0 0.165,0.138 0.386,0.138 0.329,0 0.783,-0.31 0.989,-1.855 0.225,-1.682 -1.599,-1.975 -2.895,-1.975 -0.69,0 -1.23,0.083 -1.23,0.083 l -9.971,2.921 c 0,0 -1.026,0.22 -2.198,0.22 -1.367,0 -2.932,-0.299 -3.301,-1.594 -0.686,-2.409 3.096,-3.44 3.096,-3.44 m -12.101,2.214 1.075,-0.827 c 0,0 0.032,-0.096 -0.319,-0.096 -0.137,0 -0.332,0.015 -0.61,0.055 -1.019,0.149 -0.146,0.868 -0.146,0.868 m 6.429,-3.214 c -0.085,0 -0.172,0.011 -0.258,0.034 l -2.288,0.61 c -0.363,-0.105 -0.979,-0.236 -1.801,-0.237 -1.252,0 -3.247,0.314 -5.637,1.809 C 9.262,20.092 9.13,20.245 9.05,20.424 8.868,20.2 8.593,20.059 8.289,20.054 c -0.005,0 -0.011,0 -0.016,0 -0.463,0 -0.866,0.318 -0.973,0.769 -0.038,0.159 -0.343,1.584 0.52,2.676 0.215,0.271 0.545,0.572 1.043,0.785 l 0,0.418 C 8.176,24.276 7.209,23.821 6.213,23.82 l 0,0 c -0.86,0 -2.407,0.357 -3.105,2.75 -0.085,0.292 -0.033,0.606 0.142,0.855 0.175,0.249 0.454,0.404 0.757,0.423 l 2.513,0.155 4.963,3.213 -1.397,1.07 C 9.649,32.183 9,32.062 8.324,32.062 c -1.108,0 -1.967,0.313 -2.554,0.93 -0.558,0.586 -0.815,1.391 -0.765,2.392 0.026,0.525 0.455,0.94 0.98,0.95 l 5.648,0.102 c 0.006,0 0.012,0 0.018,0 0.076,0 0.151,-0.009 0.226,-0.025 l 8.864,-2.053 c 0.454,-0.105 0.774,-0.509 0.774,-0.975 l 0,-0.095 c 0.875,-0.055 1.803,-0.108 2.059,-0.108 0.25,0 0.705,0 8.043,-3.465 l -0.383,2.759 -1.797,0.196 c -0.109,0.012 -0.217,0.042 -0.316,0.089 -1.215,0.569 -1.483,1.772 -1.593,2.987 -0.025,0.28 0.068,0.558 0.258,0.765 0.19,0.207 0.458,0.325 0.738,0.325 l 6.189,0 c 0.524,0 0.959,-0.404 0.997,-0.928 0.074,-1.014 0.305,-2.358 0.547,-2.762 0.269,-0.447 0.848,-1.276 1.316,-1.935 0.613,0.557 1.548,1.273 2.837,1.926 -0.07,0.077 -0.135,0.158 -0.193,0.245 -0.458,0.675 -0.427,1.464 -0.261,1.936 0.138,0.389 0.5,0.654 0.913,0.667 l 4.814,0.146 c 0.011,0 0.021,0 0.03,0 0.517,0 0.949,-0.394 0.996,-0.911 0.366,-4.084 0.245,-4.217 -0.077,-4.569 -0.052,-0.057 -0.11,-0.106 -0.173,-0.15 -0.284,-0.316 -0.871,-0.892 -1.966,-0.892 -0.034,0 -0.069,0 -0.104,10e-4 -0.137,-1.246 -0.488,-3.154 -1.382,-4.261 0.713,-0.747 1.385,-1.845 1.116,-3.953 -0.006,-0.043 -0.014,-0.085 -0.025,-0.127 -0.564,-2.151 -2.357,-3.385 -4.92,-3.386 -0.58,0 -0.984,0.068 -1.029,0.075 -0.033,0.006 -0.065,0.014 -0.099,0.022 l -9.799,2.751 c -0.008,0.002 -1.563,0.421 -2.684,0.421 -0.224,0 -0.373,-0.018 -0.465,-0.035 0.015,-0.348 0.331,-1.121 0.791,-1.759 0.248,-0.344 0.253,-0.807 0.012,-1.156 -0.189,-0.274 -0.5,-0.431 -0.822,-0.431 -0.087,0 -0.176,0.012 -0.263,0.035 -0.264,0.072 -2.603,0.75 -3.533,2.402 -0.306,0.543 -0.429,1.139 -0.364,1.746 -0.413,-0.748 -0.894,-1.399 -1.261,-1.852 l 0.548,-0.731 c 0.256,-0.341 0.268,-0.807 0.029,-1.16 -0.185,-0.28 -0.498,-0.44 -0.824,-0.44 l 0,0 z m 18.258,3.871 c 0.145,-0.019 0.545,-0.063 1.021,-0.063 1.072,0 1.648,0.221 1.83,0.428 0.033,0.039 0.111,0.128 0.073,0.414 -0.048,0.357 -0.105,0.606 -0.158,0.775 -0.462,-0.288 -1.249,-0.635 -2.356,-0.636 -0.174,0 -0.355,0.009 -0.547,0.028 -0.396,0.04 -1.303,0.191 -2.557,0.401 -1.204,0.201 -2.694,0.45 -4.251,0.688 l 6.945,-2.035 0,0 z m -15.886,2.816 c -0.029,-0.301 -0.091,-0.604 -0.177,-0.902 0.335,0.383 0.825,0.726 1.536,0.955 -0.112,0.002 -0.221,0.003 -0.327,0.003 C 22.328,24.515 22,24.488 21.787,24.458 l 0,0 z"
       id="path7"
       inkscape:connector-curvature="0"
       style="fill:#1c0e00" /></g></svg>