<?xml version="1.0" encoding="utf-8"?>
<!-- Generator: Adobe Illustrator 16.0.3, SVG Export Plug-In . SVG Version: 6.00 Build 0)  -->
<!DOCTYPE svg PUBLIC "-//W3C//DTD SVG 1.1//EN" "http://www.w3.org/Graphics/SVG/1.1/DTD/svg11.dtd">
<svg version="1.1" id="Ebene_1" xmlns="http://www.w3.org/2000/svg" xmlns:xlink="http://www.w3.org/1999/xlink" x="0px" y="0px"
	 width="50px" height="50px" viewBox="0 0 50 50" enable-background="new 0 0 50 50" xml:space="preserve">
<g>
	<g>
		<path fill="#FFFFFF" d="M24.203,14.811c1.413,0,2.826,0.001,4.24,0.005c1.77,0.005,1.932,0.166,1.934,1.901
			c0.007,5.986,0.012,12.371-0.008,18.832c0,0.561-0.058,0.973-0.174,1.255c-0.072,0.174-0.207,0.496-1.017,0.501
			c-1.208,0-2.418,0.016-3.628,0.032c-1.203,0.016-2.406,0.031-3.61,0.031h-0.209c-4.969-0.005-10.25-0.024-17.123-0.063
			c-1.413-0.009-1.592-0.193-1.595-1.646C3,29.321,3,22.891,3.014,16.543c0-1.502,0.204-1.711,1.68-1.72
			c1.736-0.009,3.474-0.012,5.211-0.012l3.438,0.002l3.437,0.002l1-0.001v0l2.712-0.001L24.203,14.811 M24.203,13.811
			c-2.475,0-4.95,0.004-7.424,0.004c0,0.001,0,0.001,0,0.001c-2.291,0-4.582-0.004-6.875-0.004c-1.739,0-3.479,0.002-5.217,0.012
			c-2.04,0.013-2.674,0.666-2.674,2.72C2,22.921,2,29.292,2.014,35.66c0.004,2.002,0.625,2.633,2.589,2.645
			c5.711,0.032,11.421,0.058,17.128,0.063c0.07,0,0.14,0,0.21,0c2.416,0,4.829-0.063,7.238-0.063
			c0.881-0.005,1.601-0.304,1.939-1.115c0.205-0.498,0.251-1.094,0.251-1.641c0.019-6.278,0.015-12.556,0.008-18.833
			c-0.002-2.293-0.603-2.893-2.931-2.9C27.031,13.812,25.617,13.811,24.203,13.811L24.203,13.811z"/>
	</g>
	<g>
		<path fill="#FFFFFF" d="M47.524,15.671c0.038,0,0.101,0.005,0.191,0.052c0.227,0.117,0.282,0.257,0.274,1.086l-0.001,0.264
			c0.01,2.188,0.008,4.374,0.006,6.56l-0.001,2.569l0.006,1l0,0v0.743c0.001,2.323,0.001,4.645-0.006,6.969
			c0,0.433,0,0.841-0.073,1.181c-0.085,0.385-0.218,0.385-0.305,0.385c-0.086,0-0.192-0.021-0.305-0.059
			c-0.244-0.084-0.525-0.263-0.78-0.426c-0.97-0.607-1.938-1.218-2.904-1.827c-2.165-1.366-4.403-2.777-6.629-4.134
			c-0.524-0.322-0.662-0.57-0.643-1.155c0.066-1.783,0.067-3.697,0.005-5.686c-0.015-0.479,0.075-0.707,0.612-1.035
			c2.399-1.473,4.817-3.002,7.155-4.48l2.366-1.494l0.155-0.097C46.973,15.882,47.309,15.671,47.524,15.671 M47.524,14.671
			c-0.561,0-1.059,0.353-1.558,0.663c-3.165,1.995-6.326,4.013-9.518,5.972c-0.767,0.469-1.116,1-1.089,1.917
			c0.06,1.87,0.065,3.749-0.004,5.619c-0.033,0.96,0.293,1.538,1.119,2.045c3.198,1.949,6.35,3.967,9.524,5.956
			c0.315,0.201,0.643,0.406,0.988,0.524c0.223,0.075,0.434,0.112,0.628,0.112c0.646,0,1.113-0.408,1.281-1.169
			c0.097-0.449,0.097-0.928,0.097-1.396C49.003,32.012,49,29.107,49,26.202h-0.006c0-3.044,0.009-6.086-0.005-9.133
			c-0.004-0.83,0.106-1.755-0.812-2.233C47.949,14.719,47.732,14.671,47.524,14.671L47.524,14.671z"/>
	</g>
</g>
</svg>
