<?xml version="1.0" encoding="UTF-8" standalone="no"?>
<svg
   xmlns:dc="http://purl.org/dc/elements/1.1/"
   xmlns:cc="http://creativecommons.org/ns#"
   xmlns:rdf="http://www.w3.org/1999/02/22-rdf-syntax-ns#"
   xmlns:svg="http://www.w3.org/2000/svg"
   xmlns="http://www.w3.org/2000/svg"
   xml:space="preserve"
   enable-background="new 0 0 50 50"
   viewBox="0 0 50 50"
   height="50px"
   width="50px"
   y="0px"
   x="0px"
   id="Ebene_1"
   version="1.1"><metadata
     id="metadata15"><rdf:RDF><cc:Work
         rdf:about=""><dc:format>image/svg+xml</dc:format><dc:type
           rdf:resource="http://purl.org/dc/dcmitype/StillImage" /><dc:title></dc:title></cc:Work></rdf:RDF></metadata><defs
     id="defs13" /><g
     id="g3"><path
       id="path5"
       d="M22.787,15.643c1.318,0,2.635,0.001,3.953,0.005c0.326,0.001,0.545,0.018,0.687,0.036   c0.017,0.136,0.031,0.343,0.031,0.648c0.005,5.25,0.01,11.358-0.008,17.417c0,0.255-0.016,0.432-0.032,0.549   c-1.118,0-2.237,0.015-3.356,0.029c-1.105,0.015-2.211,0.029-3.318,0.029h-0.207c-4.559-0.005-9.442-0.023-15.833-0.059   c-0.166-0.001-0.293-0.008-0.388-0.018c-0.01-0.104-0.018-0.244-0.019-0.433c-0.013-5.859-0.013-11.805,0-17.677   c0-0.221,0.01-0.381,0.023-0.492c0.106-0.012,0.256-0.022,0.461-0.024c1.604-0.009,3.21-0.011,4.815-0.011l3.178,0.002l3.18,0.002   l2-0.001v-0.001l1.417-0.001L22.787,15.643 M22.787,13.643c-2.277,0-4.555,0.004-6.832,0.004c0,0.001,0,0.001,0,0.001   c-2.119,0-4.238-0.004-6.358-0.004c-1.609,0-3.218,0.002-4.826,0.011c-1.886,0.012-2.473,0.616-2.473,2.516   c-0.013,5.898-0.013,11.792,0,17.682c0.004,1.852,0.578,2.435,2.395,2.445c5.282,0.029,10.563,0.053,15.842,0.059   c0.07,0,0.14,0,0.209,0c2.229,0,4.456-0.059,6.68-0.059c0.814-0.005,1.48-0.281,1.794-1.031c0.189-0.461,0.232-1.012,0.232-1.518   c0.017-5.808,0.014-11.613,0.008-17.419c-0.003-2.121-0.558-2.675-2.712-2.682C25.426,13.645,24.107,13.643,22.787,13.643   L22.787,13.643z"
       fill="#4E4B36" /></g><g
     id="g7"><path
       id="path9"
       d="M43.748,16.915c0.009,1.939,0.007,3.875,0.005,5.813l-0.001,2.377l0.005,2l0,0   c0.001,1.986,0.002,3.972-0.005,5.963c-0.813-0.51-1.624-1.021-2.435-1.532c-1.992-1.256-4.051-2.555-6.1-3.804   c-0.033-0.021-0.061-0.038-0.081-0.053c0-0.018,0-0.037,0.001-0.06c0.062-1.686,0.063-3.422,0.004-5.305   c0.016-0.01,0.033-0.021,0.054-0.034c2.216-1.361,4.445-2.771,6.602-4.134L43.748,16.915 M44.393,14.439   c-0.519,0-0.979,0.326-1.44,0.613c-2.928,1.845-5.852,3.711-8.804,5.524c-0.709,0.434-1.032,0.925-1.007,1.773   c0.055,1.73,0.061,3.468-0.003,5.197c-0.031,0.889,0.27,1.423,1.035,1.892c2.957,1.803,5.872,3.669,8.81,5.509   c0.291,0.187,0.593,0.376,0.914,0.485c0.206,0.069,0.4,0.104,0.58,0.104c0.597,0,1.029-0.378,1.186-1.081   c0.089-0.415,0.089-0.858,0.089-1.291c0.009-2.686,0.005-5.371,0.005-8.059h-0.005c0-2.816,0.009-5.629-0.005-8.447   c-0.003-0.768,0.1-1.624-0.751-2.065C44.784,14.484,44.584,14.439,44.393,14.439L44.393,14.439z"
       fill="#4E4B36" /></g><path
     id="path3343"
     d="M 3.2883852,35.934591 C 2.391059,35.500769 2.3576188,35.06803 2.4196581,24.692674 l 0.059156,-9.893075 0.4824657,-0.482427 0.4824657,-0.482426 11.80567,-0.06235 c 6.493118,-0.03429 12.120839,-0.0051 12.506047,0.06478 0.385205,0.06992 0.885735,0.312495 1.112288,0.539047 0.39654,0.396541 0.411911,0.791739 0.411911,10.591033 l 0,10.179122 -0.520032,0.52003 -0.520029,0.520032 -12.2448,-0.01434 C 7.8803371,36.162585 3.5942911,36.082479 3.2883852,35.934587 l 0,4e-6 z m 24.2455978,-10.923998 0.05517,-9.375 -11.654746,0 -11.654746,0 0,9.286723 c 0,5.107698 0.064373,9.351096 0.1430498,9.429773 0.078677,0.07868 5.2984867,0.118402 11.5995762,0.08828 l 11.456527,-0.05477 0.05517,-9.375 z"
     style="opacity:0.66000001;fill:#000000;fill-opacity:1;stroke:none;stroke-width:1;stroke-miterlimit:4;stroke-dasharray:none;stroke-opacity:1" /><path
     id="path3345"
     d="M 39.025424,32.352145 C 36.403602,30.712294 34.043962,29.171442 33.78178,28.928029 33.323963,28.502987 33.305085,28.344715 33.305085,24.931478 l 0,-3.553982 0.688559,-0.513121 c 0.722398,-0.538338 8.826786,-5.629015 9.625902,-6.046398 0.666385,-0.348057 1.221252,-0.298233 1.623041,0.145739 0.315391,0.348503 0.350633,1.350754 0.350633,9.971556 0,6.201411 -0.07741,9.728749 -0.219318,9.99391 -0.482787,0.902098 -1.346601,0.551449 -6.348478,-2.577037 z m 4.77764,-15.399363 c -0.05519,-0.05519 -2.061098,1.120989 -4.457582,2.613724 l -4.357243,2.714062 0.05885,2.745753 0.05885,2.745753 4.343221,2.715032 4.34322,2.715032 0.05551,-8.074509 c 0.03053,-4.44098 0.01036,-8.119661 -0.04482,-8.174847 z"
     style="opacity:0.66000001;fill:#000000;fill-opacity:1;stroke:none;stroke-width:1;stroke-miterlimit:4;stroke-dasharray:none;stroke-opacity:1" /></svg>