<?xml version="1.0" encoding="utf-8"?>
<!-- Generator: Adobe Illustrator 16.0.3, SVG Export Plug-In . SVG Version: 6.00 Build 0)  -->
<!DOCTYPE svg PUBLIC "-//W3C//DTD SVG 1.1//EN" "http://www.w3.org/Graphics/SVG/1.1/DTD/svg11.dtd">
<svg version="1.1" id="Ebene_1" xmlns="http://www.w3.org/2000/svg" xmlns:xlink="http://www.w3.org/1999/xlink" x="0px" y="0px"
	 width="50px" height="50px" viewBox="0 0 50 50" enable-background="new 0 0 50 50" xml:space="preserve">
<g>
	<path fill="#4E4B36" d="M22.787,15.643c1.318,0,2.635,0.001,3.953,0.005c0.326,0.001,0.545,0.018,0.687,0.036
		c0.017,0.136,0.031,0.343,0.031,0.648c0.005,5.25,0.01,11.358-0.008,17.417c0,0.255-0.016,0.432-0.032,0.549
		c-1.118,0-2.237,0.015-3.356,0.029c-1.105,0.015-2.211,0.029-3.318,0.029h-0.207c-4.559-0.005-9.442-0.023-15.833-0.059
		c-0.166-0.001-0.293-0.008-0.388-0.018c-0.01-0.104-0.018-0.244-0.019-0.433c-0.013-5.859-0.013-11.805,0-17.677
		c0-0.221,0.01-0.381,0.023-0.492c0.106-0.012,0.256-0.022,0.461-0.024c1.604-0.009,3.21-0.011,4.815-0.011l3.178,0.002l3.18,0.002
		l2-0.001v-0.001l1.417-0.001L22.787,15.643 M22.787,13.643c-2.277,0-4.555,0.004-6.832,0.004c0,0.001,0,0.001,0,0.001
		c-2.119,0-4.238-0.004-6.358-0.004c-1.609,0-3.218,0.002-4.826,0.011c-1.886,0.012-2.473,0.616-2.473,2.516
		c-0.013,5.898-0.013,11.792,0,17.682c0.004,1.852,0.578,2.435,2.395,2.445c5.282,0.029,10.563,0.053,15.842,0.059
		c0.07,0,0.14,0,0.209,0c2.229,0,4.456-0.059,6.68-0.059c0.814-0.005,1.48-0.281,1.794-1.031c0.189-0.461,0.232-1.012,0.232-1.518
		c0.017-5.808,0.014-11.613,0.008-17.419c-0.003-2.121-0.558-2.675-2.712-2.682C25.426,13.645,24.107,13.643,22.787,13.643
		L22.787,13.643z"/>
</g>
<g>
	<path fill="#4E4B36" d="M43.748,16.915c0.009,1.939,0.007,3.875,0.005,5.813l-0.001,2.377l0.005,2l0,0
		c0.001,1.986,0.002,3.972-0.005,5.963c-0.813-0.51-1.624-1.021-2.435-1.532c-1.992-1.256-4.051-2.555-6.1-3.804
		c-0.033-0.021-0.061-0.038-0.081-0.053c0-0.018,0-0.037,0.001-0.06c0.062-1.686,0.063-3.422,0.004-5.305
		c0.016-0.01,0.033-0.021,0.054-0.034c2.216-1.361,4.445-2.771,6.602-4.134L43.748,16.915 M44.393,14.439
		c-0.519,0-0.979,0.326-1.44,0.613c-2.928,1.845-5.852,3.711-8.804,5.524c-0.709,0.434-1.032,0.925-1.007,1.773
		c0.055,1.73,0.061,3.468-0.003,5.197c-0.031,0.889,0.27,1.423,1.035,1.892c2.957,1.803,5.872,3.669,8.81,5.509
		c0.291,0.187,0.593,0.376,0.914,0.485c0.206,0.069,0.4,0.104,0.58,0.104c0.597,0,1.029-0.378,1.186-1.081
		c0.089-0.415,0.089-0.858,0.089-1.291c0.009-2.686,0.005-5.371,0.005-8.059h-0.005c0-2.816,0.009-5.629-0.005-8.447
		c-0.003-0.768,0.1-1.624-0.751-2.065C44.784,14.484,44.584,14.439,44.393,14.439L44.393,14.439z"/>
</g>
</svg>
