<?xml version="1.0" encoding="UTF-8" standalone="no"?>
<!-- Generator: Adobe Illustrator 16.0.3, SVG Export Plug-In . SVG Version: 6.00 Build 0)  -->

<svg
   xmlns:dc="http://purl.org/dc/elements/1.1/"
   xmlns:cc="http://creativecommons.org/ns#"
   xmlns:rdf="http://www.w3.org/1999/02/22-rdf-syntax-ns#"
   xmlns:svg="http://www.w3.org/2000/svg"
   xmlns="http://www.w3.org/2000/svg"
   xmlns:sodipodi="http://sodipodi.sourceforge.net/DTD/sodipodi-0.dtd"
   xmlns:inkscape="http://www.inkscape.org/namespaces/inkscape"
   version="1.1"
   id="Ebene_1"
   x="0px"
   y="0px"
   width="50px"
   height="50px"
   viewBox="0 0 50 50"
   enable-background="new 0 0 50 50"
   xml:space="preserve"
   inkscape:version="0.91 r13725"
   sodipodi:docname="kamera.svg"><metadata
     id="metadata17"><rdf:RDF><cc:Work
         rdf:about=""><dc:format>image/svg+xml</dc:format><dc:type
           rdf:resource="http://purl.org/dc/dcmitype/StillImage" /></cc:Work></rdf:RDF></metadata><defs
     id="defs15" /><sodipodi:namedview
     pagecolor="#ffffff"
     bordercolor="#666666"
     borderopacity="1"
     objecttolerance="10"
     gridtolerance="10"
     guidetolerance="10"
     inkscape:pageopacity="0"
     inkscape:pageshadow="2"
     inkscape:window-width="1305"
     inkscape:window-height="705"
     id="namedview13"
     showgrid="false"
     inkscape:zoom="151.04"
     inkscape:cx="3.5509188"
     inkscape:cy="11.024087"
     inkscape:window-x="0"
     inkscape:window-y="303"
     inkscape:window-maximized="0"
     inkscape:current-layer="Ebene_1" /><g
     id="g3"><g
       id="g5"><path
         fill="#4E4B36"
         d="M24.203,14.811c1.413,0,2.826,0.001,4.24,0.005c1.77,0.005,1.932,0.166,1.934,1.901    c0.007,5.986,0.012,12.371-0.008,18.832c0,0.561-0.058,0.973-0.174,1.255c-0.072,0.174-0.207,0.496-1.017,0.501    c-1.208,0-2.418,0.016-3.628,0.032c-1.203,0.016-2.406,0.031-3.61,0.031h-0.209c-4.969-0.005-10.25-0.024-17.123-0.063    c-1.413-0.009-1.592-0.193-1.595-1.646C3,29.321,3,22.891,3.014,16.543c0-1.502,0.204-1.711,1.68-1.72    c1.736-0.009,3.474-0.012,5.211-0.012l3.438,0.002l3.437,0.002l1-0.001v0l2.712-0.001L24.203,14.811 M24.203,13.811    c-2.475,0-4.95,0.004-7.424,0.004c0,0.001,0,0.001,0,0.001c-2.291,0-4.582-0.004-6.875-0.004c-1.739,0-3.479,0.002-5.217,0.012    c-2.04,0.013-2.674,0.666-2.674,2.72C2,22.921,2,29.292,2.014,35.66c0.004,2.002,0.625,2.633,2.589,2.645    c5.711,0.032,11.421,0.058,17.128,0.063c0.07,0,0.14,0,0.21,0c2.416,0,4.829-0.063,7.238-0.063    c0.881-0.005,1.601-0.304,1.939-1.115c0.205-0.498,0.251-1.094,0.251-1.641c0.019-6.278,0.015-12.556,0.008-18.833    c-0.002-2.293-0.603-2.893-2.931-2.9C27.031,13.812,25.617,13.811,24.203,13.811L24.203,13.811z"
         id="path7" /></g><g
       id="g9"><path
         fill="#4E4B36"
         d="M47.524,15.671c0.038,0,0.101,0.005,0.191,0.052c0.227,0.117,0.282,0.257,0.274,1.086l-0.001,0.264    c0.01,2.188,0.008,4.374,0.006,6.56l-0.001,2.569l0.006,1l0,0v0.743c0.001,2.323,0.001,4.645-0.006,6.969    c0,0.433,0,0.841-0.073,1.181c-0.085,0.385-0.218,0.385-0.305,0.385c-0.086,0-0.192-0.021-0.305-0.059    c-0.244-0.084-0.525-0.263-0.78-0.426c-0.97-0.607-1.938-1.218-2.904-1.827c-2.165-1.366-4.403-2.777-6.629-4.134    c-0.524-0.322-0.662-0.57-0.643-1.155c0.066-1.783,0.067-3.697,0.005-5.686c-0.015-0.479,0.075-0.707,0.612-1.035    c2.399-1.473,4.817-3.002,7.155-4.48l2.366-1.494l0.155-0.097C46.973,15.882,47.309,15.671,47.524,15.671 M47.524,14.671    c-0.561,0-1.059,0.353-1.558,0.663c-3.165,1.995-6.326,4.013-9.518,5.972c-0.767,0.469-1.116,1-1.089,1.917    c0.06,1.87,0.065,3.749-0.004,5.619c-0.033,0.96,0.293,1.538,1.119,2.045c3.198,1.949,6.35,3.967,9.524,5.956    c0.315,0.201,0.643,0.406,0.988,0.524c0.223,0.075,0.434,0.112,0.628,0.112c0.646,0,1.113-0.408,1.281-1.169    c0.097-0.449,0.097-0.928,0.097-1.396C49.003,32.012,49,29.107,49,26.202h-0.006c0-3.044,0.009-6.086-0.005-9.133    c-0.004-0.83,0.106-1.755-0.812-2.233C47.949,14.719,47.732,14.671,47.524,14.671L47.524,14.671z"
         id="path11" /></g></g><path
     style="opacity:0.66000001;fill:#000000;fill-opacity:1;stroke:none;stroke-width:1;stroke-miterlimit:4;stroke-dasharray:none;stroke-opacity:1"
     d="M 9.9989031,38.315569 C 6.1089758,38.296719 4.11266,38.273836 3.8941147,38.245593 3.2540354,38.162873 2.8370721,37.984387 2.557507,37.673444 2.2436124,37.324317 2.1104224,36.913658 2.0519492,36.114678 2.0323142,35.846385 2.0168022,32.144454 2.0161836,27.579212 l -0.00109,-8.061691 0.4868849,0 0.486885,0 2.846e-4,8.248955 c 1.761e-4,5.105245 0.014179,8.369819 0.036743,8.566096 0.05023,0.436933 0.1833592,0.700026 0.4124052,0.815004 0.092695,0.04653 0.2528056,0.102581 0.3558005,0.124554 0.3232992,0.06897 16.4184437,0.131184 21.4603917,0.08295 3.934544,-0.03764 4.285462,-0.0461 4.471657,-0.107809 0.434641,-0.14405 0.582753,-0.458649 0.641304,-1.362171 0.02015,-0.310932 0.03557,-3.932022 0.03601,-8.4557 l 7.71e-4,-7.91188 0.486885,0 0.486885,0 -0.0039,6.02052 c -0.0051,7.923156 -0.03807,10.832482 -0.126713,11.188991 -0.214321,0.861965 -0.695223,1.346964 -1.484999,1.497647 -0.213832,0.0408 -1.062143,0.06159 -3.777583,0.09261 -3.750613,0.04284 -6.858861,0.04251 -15.9859099,-0.0017 l 0,2e-6 z"
     id="path3347"
     inkscape:connector-curvature="0" /><path
     style="opacity:0.66000001;fill:#000000;fill-opacity:1;stroke:none;stroke-width:1;stroke-miterlimit:4;stroke-dasharray:none;stroke-opacity:1"
     d="M 12.333307,38.311562 C 5.1395151,38.28414 3.8556549,38.261062 3.4570197,38.152003 2.7133017,37.948536 2.3147569,37.532814 2.1447836,36.783211 2.0572195,36.397042 2.0236756,33.412111 2.0188339,25.575493 l -0.00374,-6.057972 0.4868849,0 0.486885,0 0.00116,8.286407 c 7.154e-4,5.127085 0.015005,8.393504 0.037479,8.567303 0.021944,0.169705 0.077082,0.362435 0.1392912,0.486885 0.089177,0.178398 0.1326802,0.220832 0.3247819,0.316795 l 0.2218129,0.110805 1.2013893,0.0268 c 0.6607641,0.01474 5.1788645,0.03847 10.0402235,0.05273 9.795787,0.02874 14.406354,-0.007 14.766011,-0.11434 0.429691,-0.128289 0.585111,-0.451906 0.646135,-1.345392 0.0212,-0.310429 0.03621,-3.783937 0.03653,-8.457388 l 5.55e-4,-7.930607 0.492545,0 0.492545,0 -0.0263,7.293911 c -0.01447,4.011651 -0.04203,7.860101 -0.06126,8.55211 -0.03101,1.116229 -0.04395,1.287382 -0.114706,1.516834 -0.11332,0.367493 -0.226289,0.57317 -0.448144,0.815915 -0.216139,0.23649 -0.58063,0.434876 -0.933275,0.507964 -0.511429,0.105997 -7.138719,0.146699 -17.472328,0.107307 z"
     id="path3349"
     inkscape:connector-curvature="0" /><path
     style="opacity:0.66000001;fill:#000000;fill-opacity:1;stroke:none;stroke-width:1;stroke-miterlimit:4;stroke-dasharray:none;stroke-opacity:1"
     d="m 30.362932,17.452764 c -0.02148,-1.914308 -0.03198,-2.048087 -0.175961,-2.24077 -0.31949,-0.427557 0.359249,-0.408293 -13.637721,-0.387071 l -12.9019566,0.01956 -0.2114733,0.156547 c -0.4116955,0.304766 -0.4337659,0.42539 -0.4613223,2.52132 l -0.025359,1.928813 -0.448272,0 -0.448272,0 0.024086,-2.041171 c 0.023962,-2.030668 0.025112,-2.043361 0.2235534,-2.466683 0.2369927,-0.505562 0.6326439,-0.824284 1.2063914,-0.971825 0.3208559,-0.08251 2.7198564,-0.100771 13.2381429,-0.100771 11.825973,0 12.875012,0.01 13.208122,0.125574 0.794587,0.275748 1.174295,0.747108 1.318667,1.636961 0.04325,0.266544 0.07888,1.23174 0.07919,2.144879 l 5.66e-4,1.660254 -0.482774,0.02512 -0.482773,0.02512 -0.02284,-2.035854 z"
     id="path3351"
     inkscape:connector-curvature="0" /><path
     style="opacity:0.66000001;fill:#000000;fill-opacity:1;stroke:none;stroke-width:1;stroke-miterlimit:4;stroke-dasharray:none;stroke-opacity:1"
     d="m 2.9896985,21.242102 0,-1.728103 -0.4899372,0.0017 -0.4899372,0.0017 3.8e-6,-0.443591 c 2.2e-6,-0.243975 0.00198,-0.798878 0.00441,-1.233117 l 0.0044,-0.789526 0.028699,0 0.028699,0 0,0.147335 c 0,0.174243 -0.017375,1.686775 -0.023235,2.02262 l -0.00407,0.233382 0.4498733,0 0.4498734,0 0.0041,-0.173795 c 0.00226,-0.09559 0.00851,-0.538764 0.013891,-0.984838 0.00538,-0.446074 0.011722,-0.908617 0.014084,-1.027874 0.0042,-0.212173 0.00458,-0.21683 0.017752,-0.21683 l 0.013458,0 -0.00441,1.494637 c -0.00242,0.822051 -0.00441,2.153817 -0.00441,2.959481 -1.1e-6,0.972148 -0.00223,1.464844 -0.00662,1.464844 -0.0044,0 -0.00662,-0.580448 -0.00662,-1.728103 z"
     id="path3353"
     inkscape:connector-curvature="0" /><path
     style="opacity:0.66000001;fill:#000000;fill-opacity:1;stroke:none;stroke-width:1;stroke-miterlimit:4;stroke-dasharray:none;stroke-opacity:1"
     d="m 2.9947112,22.476958 c -0.00271,-0.02549 -0.00494,-0.701801 -0.00497,-1.502913 l -4.63e-5,-1.456568 -0.4882817,0 -0.4882816,0 0.00174,-1.105667 c 9.547e-4,-0.608117 0.00351,-1.16302 0.00569,-1.233117 l 0.00395,-0.12745 0.025633,0 0.025633,0 0.00192,0.147312 0.00192,0.147312 0.00152,-0.147312 0.00152,-0.147312 0.4469015,0 0.4469015,0 0.00122,0.196968 0.00122,0.196968 0.00374,-0.190017 c 0.00271,-0.137512 0.006,-0.192273 0.011909,-0.198182 0.00449,-0.0045 0.00938,-0.0069 0.010862,-0.0053 0.00148,0.0016 7.877e-4,1.233337 -0.00154,2.737244 -0.00233,1.503906 -0.00645,2.713519 -0.00916,2.688029 z m -0.4898789,-3.027343 -0.448452,-0.0017 -0.00187,-0.18368 -0.00187,-0.18368 -0.00155,0.187037 -0.00155,0.187036 0.4518671,-0.0016 0.451867,-0.0016 -0.448452,-0.0017 z m 0.4500858,-0.377384 c -0.00115,-0.04279 -0.0021,-0.0078 -0.0021,0.07779 0,0.08557 9.435e-4,0.120581 0.0021,0.07779 0.00115,-0.04279 0.00115,-0.112801 0,-0.155588 z M 2.0611253,18.694848 c -0.00109,-0.06099 -0.00199,-0.01109 -0.00199,0.110897 0,0.121988 8.94e-4,0.171892 0.00199,0.110898 0.00109,-0.06099 0.00109,-0.160802 0,-0.221795 z m 0.9004262,-0.08896 c -0.00109,-0.06305 -0.00198,-0.01333 -0.00198,0.110474 -2.4e-6,0.123808 8.888e-4,0.175393 0.00198,0.114632 0.00109,-0.06076 0.00109,-0.162058 4.4e-6,-0.225106 z M 2.0677461,18.132083 c -0.00109,-0.06099 -0.00199,-0.01109 -0.00199,0.110898 0,0.121987 8.94e-4,0.171891 0.00199,0.110897 0.00109,-0.06099 0.00109,-0.160801 0,-0.221795 z m 0.9004243,-0.03641 c -0.00109,-0.06282 -0.00198,-0.01142 -0.00198,0.114208 0,0.125629 8.903e-4,0.177022 0.00198,0.114208 0.00109,-0.06282 0.00109,-0.165602 0,-0.228416 z m 0.00662,-0.503599 c -0.0011,-0.05894 -0.00199,-0.0088 -0.00199,0.111318 2.6e-6,0.120167 8.994e-4,0.168392 0.00199,0.107167 0.00109,-0.06123 0.00109,-0.159543 -4.6e-6,-0.218485 z m -0.9004163,-0.08521 c -0.00107,-0.07398 -0.00194,-0.01534 -0.00194,0.130319 -1.8e-6,0.145657 8.706e-4,0.206187 0.00194,0.134511 0.00107,-0.07168 0.00107,-0.190849 3.3e-6,-0.26483 z"
     id="path3355"
     inkscape:connector-curvature="0" /><path
     style="opacity:0.66000001;fill:#000000;fill-opacity:1;stroke:none;stroke-width:1;stroke-miterlimit:4;stroke-dasharray:none;stroke-opacity:1"
     d="m 2.015139,21.240531 c -0.00164,-2.174429 4.664e-4,-3.654499 0.00564,-3.955906 l 0.00401,-0.233382 0.025475,0 0.025475,0 0.00196,0.120829 0.00196,0.120829 0.0015,-0.120829 0.0015,-0.120829 0.4469015,0 0.4469015,0 0.00108,0.173795 0.00108,0.173795 0.00477,-0.167725 c 0.00425,-0.149588 0.00979,-0.195113 0.02132,-0.175476 0.00326,0.0055 -0.00776,4.840548 -0.012633,5.542155 l -0.00259,0.372418 -0.4865181,0 -0.4865181,0 -0.00131,-1.729674 z m 0.8541664,-1.724698 c -0.068037,-0.0011 -0.181252,-0.0011 -0.251589,-4e-6 -0.070337,0.0011 -0.01467,0.002 0.1237035,0.002 0.138374,2e-6 0.1959224,-8.76e-4 0.1278855,-0.002 z m -0.3843181,-0.06622 -0.4285725,-0.0018 -0.00191,-0.153885 -0.00191,-0.153884 -0.00153,0.157243 -0.00153,0.157243 0.4320048,-0.0016 0.4320048,-0.0016 -0.4285725,-0.0018 z m 0.4698887,-0.34097 c -0.00129,-0.02276 -0.00235,-0.0041 -0.00235,0.04138 0,0.04552 0.00106,0.06414 0.00235,0.04138 0.00129,-0.02276 0.00129,-0.06 0,-0.08276 z M 2.0611083,18.751459 c -0.0012,-0.03387 -0.00219,-0.0079 -0.0022,0.0576 -6.9e-6,0.06554 9.782e-4,0.09325 0.00219,0.06158 0.00121,-0.03168 0.00122,-0.08531 1.27e-5,-0.119174 z m 0.9004264,-0.09599 c -0.00119,-0.03569 -0.00217,-0.0083 -0.00218,0.0609 -6.4e-6,0.06919 9.695e-4,0.09839 0.00217,0.0649 0.0012,-0.03349 0.0012,-0.0901 1.32e-5,-0.125794 l -1.6e-6,0 z M 2.0677214,18.185049 c -0.00121,-0.03186 -0.00221,-0.0058 -0.00221,0.05793 0,0.06372 9.93e-4,0.08979 0.00221,0.05793 0.00121,-0.03186 0.00121,-0.084 0,-0.115863 z m 0.9004299,-0.03973 c -0.00119,-0.0355 -0.00216,-0.0065 -0.00216,0.06455 0,0.07101 9.74e-4,0.100056 0.00216,0.06455 0.00119,-0.0355 0.00119,-0.0936 0,-0.129105 z m 0.00662,-0.506488 c -0.0012,-0.03368 -0.00218,-0.0061 -0.00218,0.06124 0,0.06737 9.832e-4,0.09492 0.00218,0.06124 0.0012,-0.03368 0.0012,-0.0888 0,-0.122484 z M 2.074353,17.569318 c -0.00117,-0.03914 -0.00213,-0.0071 -0.00213,0.07117 0,0.07829 9.577e-4,0.110319 0.00213,0.07117 0.00117,-0.03914 0.00117,-0.103201 0,-0.142346 z"
     id="path3357"
     inkscape:connector-curvature="0" /><path
     style="opacity:0.66000001;fill:#000000;fill-opacity:1;stroke:none;stroke-width:1;stroke-miterlimit:4;stroke-dasharray:none;stroke-opacity:1"
     d="m 2.0164464,20.200493 c 0,-1.523342 0.00197,-2.855108 0.00438,-2.959481 l 0.00438,-0.189769 0.025235,0 0.025235,0 0.00203,0.09435 0.00203,0.09435 0.00146,-0.09435 0.00146,-0.09435 0.4469015,0 0.4469015,0 0.00105,0.150623 0.00104,0.150622 0.00494,-0.140135 c 0.00299,-0.08491 0.00792,-0.14492 0.012498,-0.152278 0.00567,-0.0091 0.00666,0.622837 0.00395,2.530231 -0.00199,1.398305 -0.00549,2.730816 -0.0078,2.961136 l -0.00419,0.418763 -0.4857521,0 -0.4857521,0 0,-2.769712 z m 0.3593255,-0.750877 -0.3193027,-0.0018 -0.00196,-0.120765 -0.00196,-0.120765 -0.0015,0.124139 -0.0015,0.124139 0.3227622,-0.0016 0.3227622,-0.0016 -0.3193027,-0.0018 z m 0.5788745,-0.314488 c -0.00158,-0.0082 -0.00287,-0.0015 -0.00287,0.0149 0,0.01639 0.00129,0.02309 0.00287,0.0149 0.00158,-0.0082 0.00158,-0.0216 0,-0.02979 z M 2.0609693,18.790967 c -0.00147,-0.0119 -0.00271,-0.0038 -0.00275,0.01809 -3.72e-5,0.02185 0.00117,0.03158 0.00268,0.02164 0.00151,-0.0099 0.00154,-0.02782 6.76e-5,-0.03973 z m 0.9004484,-0.09612 c -0.00143,-0.01366 -0.0026,-0.0025 -0.0026,0.02483 0,0.02731 0.00117,0.03848 0.0026,0.02483 0.00143,-0.01365 0.00143,-0.036 0,-0.04966 z M 2.0675339,18.224773 c -0.00152,-0.01001 -0.00276,-0.0018 -0.00276,0.01821 0,0.02003 0.00124,0.02822 0.00276,0.01821 0.00152,-0.01001 0.00152,-0.0264 0,-0.03642 z m 0.9005046,-0.03972 c -0.00143,-0.01365 -0.0026,-0.0025 -0.0026,0.02483 0,0.02731 0.00117,0.03848 0.0026,0.02483 0.00143,-0.01366 0.00143,-0.036 0,-0.04966 z m 0.00662,-0.509799 c -0.00143,-0.01365 -0.0026,-0.0025 -0.0026,0.02483 0,0.02731 0.00117,0.03848 0.0026,0.02483 0.00143,-0.01365 0.00143,-0.036 0,-0.04966 z m -0.900415,-0.05944 c -0.00143,-0.01374 -0.00263,-0.0041 -0.00266,0.02137 -2.92e-5,0.02549 0.00114,0.03673 0.00261,0.02497 0.00146,-0.01175 0.00149,-0.03261 5.37e-5,-0.04634 l -3e-7,0 z"
     id="path3359"
     inkscape:connector-curvature="0" /><path
     style="opacity:0.66000001;fill:#000000;fill-opacity:1;stroke:none;stroke-width:1;stroke-miterlimit:4;stroke-dasharray:none;stroke-opacity:1"
     d="m 2.0164464,20.180628 c 0,-1.534268 0.00197,-2.866034 0.00437,-2.959481 l 0.00437,-0.169904 0.025197,0 0.025198,0 0.00213,0.07117 0.00213,0.07117 0.00141,-0.07117 0.00141,-0.07117 0.4469015,0 0.4469015,0 0.00101,0.12745 0.00101,0.12745 0.00514,-0.117264 c 0.00289,-0.06599 0.00839,-0.122441 0.012575,-0.129104 0.00551,-0.0088 0.00649,0.659897 0.00379,2.576876 -0.00201,1.423795 -0.00557,2.756306 -0.00792,2.961136 l -0.00427,0.372418 -0.4856724,0 -0.4856724,0 0,-2.789577 z m 0.2732981,-0.73101 -0.2331903,-0.0018 -0.00206,-0.08764 -0.00206,-0.08764 -0.00145,0.09104 -0.00145,0.09104 0.2366923,-0.0016 0.2366923,-0.0016 -0.2331903,-0.0018 z"
     id="path3361"
     inkscape:connector-curvature="0" /><path
     style="opacity:0.66000001;fill:#000000;fill-opacity:1;stroke:none;stroke-width:1;stroke-miterlimit:4;stroke-dasharray:none;stroke-opacity:1"
     d="m 2.0164616,20.164657 c 8.4e-6,-1.543052 0.00197,-2.874818 0.00437,-2.959481 l 0.00435,-0.153933 0.025158,0 0.025158,0 0.00223,0.05462 0.00223,0.05462 0.00135,-0.05462 0.00135,-0.05462 0.4469015,0 0.4469015,0 9.774e-4,0.110898 9.773e-4,0.110898 0.00552,-0.101326 c 0.00303,-0.05573 0.00871,-0.106377 0.012624,-0.112553 0.00764,-0.01207 0.00363,4.930069 -0.00452,5.575041 l -0.00425,0.336004 -0.4856657,0 -0.4856657,0 1.52e-5,-2.805548 z m 0.2038116,-0.715036 -0.1636255,-0.0019 -0.00216,-0.06444 -0.00216,-0.06444 -0.00139,0.06786 -0.00139,0.06786 0.1671743,-0.0015 0.1671742,-0.0015 -0.1636255,-0.0019 z"
     id="path3363"
     inkscape:connector-curvature="0" /><path
     style="opacity:0.66000001;fill:#000000;fill-opacity:1;stroke:none;stroke-width:1;stroke-miterlimit:4;stroke-dasharray:none;stroke-opacity:1"
     d="m 3.4654435,14.986216 c 0,-0.0028 0.040821,-0.03484 0.090713,-0.07123 l 0.090713,-0.06616 0.1691146,0.0011 0.1691146,0.0011 -0.083623,0.01303 c -0.1528013,0.02381 -0.2825118,0.06097 -0.4196477,0.120213 -0.00901,0.0039 -0.016385,0.0048 -0.016385,0.002 z"
     id="path3365"
     inkscape:connector-curvature="0" /><path
     style="opacity:0.66000001;fill:#000000;fill-opacity:1;stroke:none;stroke-width:1;stroke-miterlimit:4;stroke-dasharray:none;stroke-opacity:1"
     d="m 3.7931545,14.848476 -0.1544923,-0.005 0.2145727,-0.002 c 0.118015,-0.0011 0.2128171,-4.52e-4 0.2106714,0.0014 -0.009,0.0079 -0.1263534,0.0103 -0.2707518,0.0056 z"
     id="path3367"
     inkscape:connector-curvature="0" /><path
     style="opacity:0.66000001;fill:#000000;fill-opacity:1;stroke:none;stroke-width:1;stroke-miterlimit:4;stroke-dasharray:none;stroke-opacity:1"
     d="m 46.311321,37.032237 c -0.124175,-0.07416 -0.998242,-0.623592 -3.348233,-2.104667 -3.287337,-2.071834 -4.555122,-2.863095 -6.167549,-3.849345 -0.565802,-0.346076 -0.670795,-0.421342 -0.877865,-0.629313 -0.208374,-0.209281 -0.338374,-0.4079 -0.431011,-0.658517 -0.06251,-0.169111 -0.110517,-0.413084 -0.12534,-0.636979 l -0.006,-0.09129 0.496014,0 0.496014,0 0.0063,0.07256 c 0.0324,0.373272 0.17294,0.592681 0.533682,0.833164 0.04635,0.0309 0.265445,0.166929 0.486884,0.302294 1.543007,0.943235 2.928551,1.807945 6.053291,3.777826 0.831684,0.524305 1.8408,1.159508 2.24248,1.411561 0.40168,0.252053 0.735627,0.463313 0.742104,0.469466 0.0093,0.0088 0.01126,0.134574 0.0094,0.589366 l -0.0024,0.578179 -0.107676,-0.06431 z"
     id="path3369"
     inkscape:connector-curvature="0" /><path
     style="opacity:0.66000001;fill:#000000;fill-opacity:1;stroke:none;stroke-width:1;stroke-miterlimit:4;stroke-dasharray:none;stroke-opacity:1"
     d="m 47.082438,37.372172 c -0.116525,-0.03695 -0.313162,-0.11926 -0.43697,-0.182914 l -0.225106,-0.115735 0,-0.561159 0,-0.561159 0.145657,0.09593 c 0.347606,0.228934 0.828731,0.445915 0.988754,0.445915 0.229366,0 0.336931,-0.129069 0.40231,-0.482737 0.03494,-0.189027 0.0486,-3.702151 0.03957,-10.177194 l -0.01379,-9.888517 -0.138916,-0.138912 c -0.166343,-0.166339 -0.420752,-0.183624 -0.687688,-0.04672 -0.09886,0.0507 -1.681341,1.038966 -3.516616,2.19614 -1.835276,1.157174 -4.111494,2.585917 -5.058263,3.174985 -0.946769,0.589068 -1.798886,1.129844 -1.893594,1.201724 -0.341276,0.259022 -0.328375,0.120137 -0.33221,3.576441 l -0.0035,3.143056 -0.487579,0 -0.487579,0 0.01313,-1.403602 c 0.0072,-0.771981 0.01914,-2.249735 0.02648,-3.283898 l 0.01335,-1.880297 0.142302,-0.269691 c 0.07827,-0.148331 0.272279,-0.386678 0.431139,-0.529661 0.15886,-0.142984 1.095883,-0.758974 2.082274,-1.368867 0.986391,-0.609893 3.283109,-2.049539 5.103819,-3.199212 1.82071,-1.149673 3.462802,-2.160021 3.649094,-2.245216 0.811769,-0.37124 1.621397,-0.08577 1.986931,0.700571 l 0.110797,0.238347 0,10.143009 0,10.143008 -0.121971,0.388196 c -0.204086,0.649539 -0.622511,0.967646 -1.261293,0.958896 -0.142277,-0.0019 -0.354024,-0.03377 -0.47055,-0.07072 z"
     id="path3371"
     inkscape:connector-curvature="0" /><path
     style="opacity:0.66000001;fill:#000000;fill-opacity:1;stroke:none;stroke-width:1;stroke-miterlimit:4;stroke-dasharray:none;stroke-opacity:1"
     d="m 35.357091,28.944381 c 1.4e-5,-0.06373 0.0031,-0.201191 0.0068,-0.305473 0.0037,-0.104282 0.009,-0.27598 0.01186,-0.381549 0.0028,-0.10557 0.0058,-0.205639 0.0067,-0.222376 0.0019,-0.03732 -8.53e-4,0.389858 -0.0049,0.750224 l -0.003,0.26568 0.487504,0 c 0.321881,0 0.487503,0.0016 0.487503,0.0047 0,0.0031 -0.168538,0.0047 -0.496249,0.0047 l -0.496248,0 2.6e-5,-0.11587 z"
     id="path3373"
     inkscape:connector-curvature="0" /><path
     style="opacity:0.66000001;fill:#000000;fill-opacity:1;stroke:none;stroke-width:1;stroke-miterlimit:4;stroke-dasharray:none;stroke-opacity:1"
     d="m 35.357075,29.002901 c 10e-6,-0.06576 0.0072,-0.334165 0.01602,-0.600413 l 0.0061,-0.182582 0.0014,0.170878 c 0.0012,0.139692 0.002,0.108506 0.0048,-0.170878 0.0018,-0.187966 0.0061,-0.538207 0.0093,-0.778314 l 0.006,-0.436558 0.477537,0 0.477536,0 -0.0031,0.761928 c -0.0017,0.419061 -0.0031,0.879378 -0.0031,1.022927 l -1e-6,0.260998 -0.06761,0 c -0.04002,0 -0.06879,0.0019 -0.0705,0.0047 -0.0019,0.0031 -0.14986,0.0047 -0.428642,0.0047 l -0.425748,0 1e-5,-0.05735 z m 0.02242,-0.191945 c -5.38e-4,-0.131962 -0.0016,-0.219917 -0.0023,-0.195456 -0.0032,0.109057 -0.0034,0.435392 -2.35e-4,0.43539 0.0019,-10e-7 0.0031,-0.107972 0.0025,-0.239934 z"
     id="path3375"
     inkscape:connector-curvature="0" /><path
     style="opacity:0.66000001;fill:#000000;fill-opacity:1;stroke:none;stroke-width:1;stroke-miterlimit:4;stroke-dasharray:none;stroke-opacity:1"
     d="m 35.358832,28.916603 c 0.0034,-0.15352 0.01625,-0.591961 0.01854,-0.631155 7.53e-4,-0.01287 0.0021,0.02294 0.003,0.07959 0.0017,0.107808 0.0028,0.04015 0.0144,-0.88599 l 0.0059,-0.474011 0.477541,0 0.477541,0 -0.0031,0.590656 c -0.0017,0.324861 -0.0031,0.785072 -0.0031,1.022692 l 0,0.432036 -0.07139,0.0025 c -0.03927,0.0014 -0.262893,0.0037 -0.496947,0.0052 l -0.425552,0.0027 0.0032,-0.14427 z m 0.02047,-0.187575 c -7.43e-4,-0.05858 -0.0013,-0.01065 -0.0013,0.106507 0,0.117156 6.07e-4,0.165084 0.0013,0.106506 7.43e-4,-0.05858 7.43e-4,-0.154434 0,-0.213013 z"
     id="path3377"
     inkscape:connector-curvature="0" /><path
     style="opacity:0.66000001;fill:#000000;fill-opacity:1;stroke:none;stroke-width:1;stroke-miterlimit:4;stroke-dasharray:none;stroke-opacity:1"
     d="m 35.358957,28.91161 c 0.0027,-0.122336 0.01385,-0.499976 0.01774,-0.600413 5.49e-4,-0.01416 0.0022,5.85e-4 0.0036,0.03277 0.0014,0.03219 0.0043,-0.08474 0.0063,-0.259828 0.0021,-0.175091 0.0057,-0.443697 0.0081,-0.596902 0.0024,-0.153205 0.0044,-0.324376 0.0044,-0.380379 l 7.3e-5,-0.101825 0.477752,0 0.477752,0 -0.0032,1.021756 c -0.0018,0.561966 -0.0034,1.021974 -0.0037,1.022241 -0.0047,0.0042 -0.428156,0.01134 -0.671861,0.01129 l -0.320207,-7e-5 0.0033,-0.148641 z m 0.02034,-0.137823 c -7.92e-4,-0.03685 -0.0014,-0.008 -0.0014,0.06409 -3e-6,0.0721 6.45e-4,0.102245 0.0014,0.067 7.94e-4,-0.03525 7.96e-4,-0.09424 4e-6,-0.131084 z"
     id="path3379"
     inkscape:connector-curvature="0" /><path
     style="opacity:0.66000001;fill:#000000;fill-opacity:1;stroke:none;stroke-width:1;stroke-miterlimit:4;stroke-dasharray:none;stroke-opacity:1"
     d="m 35.358943,28.906929 c 0.0027,-0.125083 0.01405,-0.509954 0.0176,-0.595732 7.41e-4,-0.01795 0.0013,-0.01657 0.0036,0.0094 0.0015,0.01674 0.0044,-0.104399 0.0065,-0.269191 0.0021,-0.164792 0.0057,-0.426025 0.0081,-0.580517 0.0024,-0.154492 0.0044,-0.322503 0.0044,-0.373356 l 8e-5,-0.09246 0.477981,0 0.477981,0 -0.0034,1.021756 c -0.0019,0.561966 -0.0036,1.022028 -0.004,1.022359 -0.0042,0.0043 -0.420167,0.01117 -0.669591,0.01114 l -0.322566,-4.1e-5 0.0033,-0.153322 z m 0.02031,-0.09113 c -9.49e-4,-0.01361 -0.0017,-0.0037 -0.0017,0.02208 -1.3e-5,0.02575 7.64e-4,0.03688 0.0017,0.02474 9.61e-4,-0.01215 9.71e-4,-0.03321 2.3e-5,-0.04682 z"
     id="path3381"
     inkscape:connector-curvature="0" /><path
     style="opacity:0.66000001;fill:#000000;fill-opacity:1;stroke:none;stroke-width:1;stroke-miterlimit:4;stroke-dasharray:none;stroke-opacity:1"
     d="m 35.358906,28.902247 c 0.0018,-0.0869 0.0063,-0.251752 0.01004,-0.366334 0.0037,-0.114582 0.0069,-0.215704 0.0071,-0.224716 2.98e-4,-0.01296 0.0011,-0.01443 0.004,-0.007 0.002,0.0052 0.0052,-0.122306 0.007,-0.283235 0.0018,-0.16093 0.0052,-0.414789 0.0076,-0.564132 0.0024,-0.149342 0.0044,-0.312086 0.0044,-0.361652 l 8.8e-5,-0.09012 0.478123,0 0.478124,0 -0.0034,1.021756 c -0.0019,0.561966 -0.0037,1.022055 -0.0041,1.02242 -0.0045,0.0045 -0.393089,0.01105 -0.655638,0.01105 l -0.336624,-5e-6 0.0033,-0.158004 z"
     id="path3383"
     inkscape:connector-curvature="0" /><path
     style="opacity:0.66000001;fill:#000000;fill-opacity:1;stroke:none;stroke-width:1;stroke-miterlimit:4;stroke-dasharray:none;stroke-opacity:1"
     d="m 35.857995,29.064932 -0.489226,-0.0023 0.4705,-0.0031 c 0.258774,-0.0017 0.478687,-0.0046 0.488694,-0.0064 0.01218,-0.0023 0.0172,-0.0018 0.01519,0.0015 -0.0017,0.0027 -3.62e-4,0.0058 0.0029,0.007 0.0032,0.0012 0.0048,0.0029 0.0035,0.0039 -0.0013,9.96e-4 -0.222493,7.58e-4 -0.491567,-5.3e-4 z"
     id="path3385"
     inkscape:connector-curvature="0" /><path
     style="opacity:0.66000001;fill:#000000;fill-opacity:1;stroke:none;stroke-width:1;stroke-miterlimit:4;stroke-dasharray:none;stroke-opacity:1"
     d="m 36.834106,31.100843 c -0.487155,-0.299522 -0.62587,-0.391893 -0.758712,-0.505234 -0.06631,-0.05658 -0.218005,-0.208133 -0.272785,-0.272538 -0.247668,-0.291184 -0.374481,-0.598428 -0.426538,-1.033423 -0.01105,-0.09237 -0.02055,-0.220056 -0.01665,-0.223955 0.0015,-0.0015 0.209669,-0.0044 0.462522,-0.0063 0.252852,-0.0019 0.472632,-0.0048 0.488399,-0.0064 l 0.02867,-0.0029 0.0053,0.01513 c 0.0029,0.0083 0.0053,0.02273 0.0053,0.03201 0,0.0093 0.0032,0.04413 0.0071,0.07742 0.03379,0.288822 0.134751,0.47785 0.35383,0.66244 0.116004,0.09774 0.151604,0.120545 0.994409,0.636973 0.395437,0.242303 1.153198,0.709705 1.158302,0.714462 0.0011,0.001 -0.422376,0.0018 -0.940999,0.0017 l -0.942949,-1.49e-4 -0.145129,-0.08923 z"
     id="path3387"
     inkscape:connector-curvature="0" /><path
     style="opacity:0.66000001;fill:#000000;fill-opacity:1;stroke:none;stroke-width:1;stroke-miterlimit:4;stroke-dasharray:none;stroke-opacity:1"
     d="m 36.857514,31.114845 c -0.640287,-0.395238 -0.720217,-0.451781 -0.920985,-0.651516 -0.202563,-0.201521 -0.323733,-0.374286 -0.415466,-0.592374 -0.08863,-0.210701 -0.135742,-0.434377 -0.161629,-0.767307 l -0.003,-0.03853 0.102138,-0.0014 0.102138,-0.0014 -0.102583,-0.0011 -0.102584,-0.0011 0.0031,-0.167367 c 0.0048,-0.261174 0.01662,-0.609216 0.02173,-0.640207 0.0025,-0.01545 0.0068,-0.222961 0.0095,-0.461136 0.0027,-0.238176 0.0062,-0.512575 0.0078,-0.609777 l 0.003,-0.17673 0.477555,0 0.477556,0 -0.0032,1.021511 c -0.0018,0.573155 -0.005,1.022646 -0.0073,1.024097 -0.0023,0.0015 -0.0023,0.01272 -5.7e-5,0.02599 0.0022,0.01288 0.0074,0.05501 0.01145,0.09363 0.03151,0.298109 0.142603,0.498339 0.384158,0.692374 0.09547,0.07669 0.192741,0.138867 0.795416,0.508445 0.662806,0.406452 1.287075,0.791743 1.31378,0.810847 0.01046,0.0075 -0.04353,0.008 -0.92989,0.008 l -0.940999,5e-5 -0.121721,-0.07514 0,0 z"
     id="path3389"
     inkscape:connector-curvature="0" /><path
     style="opacity:0.66000001;fill:#000000;fill-opacity:1;stroke:none;stroke-width:1;stroke-miterlimit:4;stroke-dasharray:none;stroke-opacity:1"
     d="m 36.857514,31.114907 c -0.509061,-0.314004 -0.660755,-0.415399 -0.793529,-0.530413 -0.06218,-0.05386 -0.211496,-0.204788 -0.264176,-0.267024 -0.241599,-0.285421 -0.364752,-0.57831 -0.419104,-0.996739 -0.0075,-0.05782 -0.02364,-0.229322 -0.02364,-0.251363 0,-0.0023 0.03213,-0.0048 0.07139,-0.0056 l 0.0714,-0.0014 -0.07215,-0.001 -0.07215,-0.001 0.0032,-0.172049 c 0.0043,-0.231596 0.01564,-0.569515 0.0217,-0.647229 0.0036,-0.04661 0.01941,-1.066254 0.01881,-1.216042 l -7.8e-5,-0.0199 0.478295,0 0.478296,0 -0.0032,1.021536 c -0.0023,0.739652 -0.0046,1.022421 -0.0084,1.024744 -0.0029,0.0018 -0.0039,0.0054 -0.0022,0.008 0.0016,0.0026 0.0061,0.03499 0.01,0.07192 0.02491,0.238212 0.07941,0.390398 0.191894,0.53582 0.04188,0.05414 0.131746,0.143464 0.196666,0.195475 0.09387,0.0752 0.182965,0.132087 0.807574,0.515608 0.725169,0.445266 1.258263,0.773929 1.291121,0.796001 l 0.01539,0.01034 -0.01481,0.003 c -0.0081,0.0016 -0.43009,0.0029 -0.937661,0.0028 l -0.922858,-1.92e-4 -0.121721,-0.07508 z"
     id="path3391"
     inkscape:connector-curvature="0" /><path
     style="opacity:0.66000001;fill:#000000;fill-opacity:1;stroke:none;stroke-width:1;stroke-miterlimit:4;stroke-dasharray:none;stroke-opacity:1"
     d="m 35.413626,25.295749 c 0.0056,-0.934025 0.01394,-1.95147 0.0186,-2.260991 l 0.0085,-0.562765 0.07693,-0.148606 c 0.101043,-0.195176 0.211036,-0.347984 0.371706,-0.516393 0.169163,-0.177313 0.369401,-0.321134 1.151764,-0.827254 l 0.303041,-0.196041 0.888035,0 c 0.519429,0 0.882812,0.0049 0.875454,0.01178 -0.0069,0.0065 -0.346265,0.21997 -0.754104,0.474418 -1.602721,0.999926 -1.810357,1.138795 -1.867263,1.248839 -0.03234,0.06253 -0.09649,0.247544 -0.111179,0.320618 -0.01404,0.06985 -0.02515,1.423958 -0.02684,3.270744 l -8.08e-4,0.883872 -0.471967,0 -0.471966,0 0.01014,-1.698225 z"
     id="path3393"
     inkscape:connector-curvature="0" /><path
     style="opacity:0.66000001;fill:#000000;fill-opacity:1;stroke:none;stroke-width:1;stroke-miterlimit:4;stroke-dasharray:none;stroke-opacity:1"
     d="m 36.665216,30.995729 c -0.390441,-0.244975 -0.450318,-0.285994 -0.596418,-0.408574 -0.280601,-0.235429 -0.481674,-0.516984 -0.587167,-0.822187 -0.109643,-0.317211 -0.13635,-0.591433 -0.11582,-1.18922 0.02388,-0.695391 0.03972,-1.850329 0.0552,-4.024835 0.0083,-1.164789 0.01969,-2.045653 0.02681,-2.072299 0.0187,-0.06995 0.140665,-0.28865 0.237525,-0.425921 0.113852,-0.161352 0.305194,-0.354567 0.476695,-0.481359 0.134161,-0.09918 0.697914,-0.475625 1.026928,-0.685717 l 0.159607,-0.101918 0.862519,0 c 0.504615,0 0.865613,0.005 0.869975,0.01206 0.0041,0.0066 -0.366476,0.246128 -0.823504,0.532207 -0.957599,0.599413 -1.465718,0.924355 -1.593094,1.018783 -0.130067,0.09642 -0.174942,0.152375 -0.223497,0.278672 -0.0891,0.231764 -0.08238,-0.0286 -0.08711,3.375435 -0.0027,1.918728 5.22e-4,3.13209 0.0084,3.197828 0.01541,0.128603 0.05288,0.251748 0.108365,0.356201 0.05395,0.101554 0.203779,0.259906 0.335238,0.354305 0.05738,0.0412 0.536327,0.34099 1.064333,0.666197 0.528006,0.325207 0.965671,0.596879 0.97259,0.603716 0.0078,0.0077 -0.341319,0.01232 -0.926907,0.01215 l -0.939486,-2.83e-4 -0.311176,-0.195242 z"
     id="path3395"
     inkscape:connector-curvature="0" /><path
     style="opacity:0.66000001;fill:#000000;fill-opacity:1;stroke:none;stroke-width:1;stroke-miterlimit:4;stroke-dasharray:none;stroke-opacity:1"
     d="m 47.999279,22.01185 c -3.76e-4,-2.339612 -0.0035,-4.66201 -0.007,-5.160884 l -0.0063,-0.907045 -0.102265,-0.09984 c -0.05625,-0.05491 -0.129287,-0.112921 -0.162314,-0.128908 -0.166976,-0.08083 -0.368266,-0.06338 -0.576355,0.04997 -0.177235,0.09654 -1.132432,0.693362 -4.580756,2.86215 -3.203708,2.014939 -3.463954,2.177153 -3.480851,2.16965 -0.0082,-0.0036 -0.400574,-0.0096 -0.871939,-0.01324 l -0.857027,-0.0066 0.287641,-0.180517 c 0.158203,-0.09928 0.779233,-0.487044 1.380068,-0.861689 1.235293,-0.770256 2.057293,-1.285829 3.707627,-2.325485 1.848534,-1.164517 2.930181,-1.837143 3.628178,-2.256197 0.479772,-0.288039 0.568447,-0.331098 0.814638,-0.395574 0.104519,-0.02737 0.148499,-0.03109 0.363858,-0.03078 0.208765,3.05e-4 0.259988,0.0045 0.346602,0.02861 0.437278,0.121553 0.752422,0.406616 0.965894,0.873695 l 0.07124,0.155881 0.0034,5.240334 0.0034,5.240333 -0.463519,0 -0.463519,0 -6.83e-4,-4.25384 z"
     id="path3397"
     inkscape:connector-curvature="0" /><path
     style="opacity:0.66000001;fill:#000000;fill-opacity:1;stroke:none;stroke-width:1;stroke-miterlimit:4;stroke-dasharray:none;stroke-opacity:1"
     d="m 47.9976,20.047664 -0.0043,-4.099381 -0.105932,-0.102021 c -0.162956,-0.156939 -0.297662,-0.205866 -0.479847,-0.174287 -0.185287,0.03212 -0.14941,0.0115 -1.625556,0.934251 -1.204539,0.752969 -5.342172,3.353764 -5.366273,3.373081 -0.01339,0.01074 -0.01601,-0.09749 -0.01324,-0.546976 l 0.0035,-0.56036 0.834216,-0.524067 c 0.458819,-0.288237 1.34962,-0.848378 1.979558,-1.244758 1.230594,-0.774335 2.271848,-1.422269 2.86684,-1.783932 0.712013,-0.432791 0.821192,-0.489168 1.078058,-0.556673 0.112743,-0.02963 0.153547,-0.03339 0.365269,-0.03365 0.279701,-3.45e-4 0.383417,0.02025 0.587282,0.116627 0.308959,0.146058 0.523204,0.36876 0.702954,0.730708 0.04256,0.08571 0.08396,0.179667 0.09199,0.208798 0.0105,0.03808 0.01462,1.220503 0.01468,4.207495 l 7.4e-5,4.154528 -0.462506,0 -0.462505,0 -0.0043,-4.099382 z"
     id="path3399"
     inkscape:connector-curvature="0" /><path
     style="opacity:0.66000001;fill:#000000;fill-opacity:1;stroke:none;stroke-width:1;stroke-miterlimit:4;stroke-dasharray:none;stroke-opacity:1"
     d="M 45.258966,36.369644 C 44.83292,36.101206 43.566699,35.3037 42.445142,34.597407 l -2.039195,-1.284168 -0.0035,-0.577535 c -0.0019,-0.317644 2.82e-4,-0.577535 0.0048,-0.577535 0.0102,0 0.894586,0.554941 3.772374,2.367128 2.013859,1.268157 2.225307,1.404534 2.232941,1.440171 0.0046,0.02165 0.0091,0.02944 0.01,0.01731 0.0012,-0.01661 0.04606,0.0058 0.182037,0.091 0.303159,0.189911 0.65386,0.355894 0.863236,0.408561 0.13685,0.03442 0.251655,0.0069 0.331226,-0.07943 0.06747,-0.07319 0.08667,-0.111145 0.12748,-0.251982 0.06475,-0.223434 0.0645,-0.2048 0.06941,-5.207675 l 0.0046,-4.677569 0.463115,0 0.463115,0 0,4.9231 0,4.923099 -0.0742,0.237785 c -0.04081,0.130782 -0.102962,0.298862 -0.138114,0.373511 l -0.06391,0.135726 -1.308522,-5.99e-4 -1.308522,-5.99e-4 -0.774629,-0.488069 z"
     id="path3401"
     inkscape:connector-curvature="0" /><path
     style="opacity:0.66000001;fill:#000000;fill-opacity:1;stroke:none;stroke-width:1;stroke-miterlimit:4;stroke-dasharray:none;stroke-opacity:1"
     d="m 48.942057,30.486427 c -0.0019,-5.457261 -0.0019,-5.46544 0.02454,-5.46544 0.02644,0 0.02648,0.0086 0.02574,4.77688 -6.88e-4,4.434537 -0.0096,5.866771 -0.03761,6.07455 -0.0059,0.0437 -0.0116,-2.379999 -0.01267,-5.38599 z"
     id="path3403"
     inkscape:connector-curvature="0" /><path
     style="opacity:0.66000001;fill:#000000;fill-opacity:1;stroke:none;stroke-width:1;stroke-miterlimit:4;stroke-dasharray:none;stroke-opacity:1"
     d="m 22.920513,37.85138 0,-0.47605 0.274761,-1.69e-4 c 0.703307,-4.33e-4 3.781561,-0.02739 4.551775,-0.03986 1.503707,-0.02435 1.82858,-0.03877 1.986229,-0.08815 0.315325,-0.09877 0.481118,-0.322106 0.568364,-0.765624 0.06921,-0.351814 0.08191,-0.757586 0.0948,-3.028999 l 0.0088,-1.545948 0.468261,0 0.46826,0 -0.0071,0.705111 c -0.03139,3.129986 -0.04867,3.797642 -0.106143,4.101563 -0.05018,0.265382 -0.203801,0.62113 -0.354507,0.820974 -0.105968,0.140519 -0.276487,0.304972 -0.40375,0.389387 -0.202496,0.134318 -0.492893,0.253743 -0.692684,0.284866 -0.335997,0.05234 -2.152411,0.0894 -4.930424,0.100594 -0.939487,0.0038 -1.757316,0.0095 -1.8174,0.01262 l -0.109242,0.0057 0,-0.476051 z"
     id="path3405"
     inkscape:connector-curvature="0" /><path
     style="opacity:0.66000001;fill:#000000;fill-opacity:1;stroke:none;stroke-width:1;stroke-miterlimit:4;stroke-dasharray:none;stroke-opacity:1"
     d="m 22.920513,37.854022 0,-0.475169 1.234772,-0.0088 c 2.903173,-0.0208 4.829781,-0.04852 5.220471,-0.0751 0.252046,-0.01715 0.359111,-0.03939 0.483316,-0.100405 0.313033,-0.153767 0.453104,-0.496025 0.503137,-1.229392 0.01398,-0.204962 0.03857,-2.397991 0.03937,-3.512315 l 3.95e-4,-0.546213 0.471176,0 0.471177,0 -0.0082,0.665387 c -0.0045,0.365962 -0.01403,1.156978 -0.02114,1.757812 -0.01817,1.535552 -0.03944,2.123086 -0.08614,2.379653 -0.04116,0.226129 -0.177026,0.560572 -0.30817,0.758589 -0.08679,0.131047 -0.257291,0.311692 -0.385051,0.407962 -0.194367,0.146459 -0.541299,0.298977 -0.755993,0.332346 -0.333893,0.0519 -2.117862,0.08821 -4.932468,0.100413 -0.903072,0.0039 -1.706005,0.01012 -1.784296,0.01378 l -0.142346,0.0067 0,-0.475168 z"
     id="path3407"
     inkscape:connector-curvature="0" /><path
     style="opacity:0.66000001;fill:#000000;fill-opacity:1;stroke:none;stroke-width:1;stroke-miterlimit:4;stroke-dasharray:none;stroke-opacity:1"
     d="m 22.920513,37.852782 0,-0.477452 0.281382,-7.9e-5 c 0.530658,-1.38e-4 3.37985,-0.02613 4.359772,-0.03978 1.745219,-0.0243 2.052942,-0.03988 2.236192,-0.113242 0.36358,-0.145551 0.512894,-0.483706 0.563862,-1.276994 0.01308,-0.20352 0.03962,-2.583812 0.04006,-3.591764 l 1.94e-4,-0.446895 0.471686,0 0.471686,0 -0.0088,0.758077 c -0.03725,3.224547 -0.05085,3.736114 -0.107566,4.044775 -0.04308,0.234442 -0.191698,0.594294 -0.322178,0.780091 -0.09035,0.128648 -0.251165,0.295987 -0.371849,0.386925 -0.193635,0.145909 -0.540446,0.298328 -0.755375,0.331979 -0.326831,0.05117 -2.022134,0.08725 -4.707362,0.100165 -0.808396,0.0039 -1.623246,0.01035 -1.810779,0.01436 l -0.340969,0.0073 0,-0.477452 z"
     id="path3409"
     inkscape:connector-curvature="0" /><path
     style="opacity:0.66000001;fill:#000000;fill-opacity:1;stroke:none;stroke-width:1;stroke-miterlimit:4;stroke-dasharray:none;stroke-opacity:1"
     d="m 30.388669,18.742572 c -1.02e-4,-1.193956 -0.01339,-2.518342 -0.02728,-2.719202 -0.01776,-0.256777 -0.06122,-0.567188 -0.0927,-0.662076 -0.03414,-0.102915 -0.161333,-0.279456 -0.239113,-0.331886 -0.07415,-0.04998 -0.39405,-0.141665 -0.594232,-0.170304 -0.309152,-0.04423 -0.611442,-0.04732 -4.631223,-0.04733 l -4.002251,-7e-6 0,-0.471878 0,-0.471878 3.048861,0.009 c 4.710737,0.01386 5.737012,0.03222 6.040354,0.108052 0.119263,0.02982 0.341482,0.122114 0.46925,0.194903 0.453828,0.258548 0.712625,0.617951 0.85027,1.180811 0.104908,0.428988 0.131199,1.003172 0.131393,2.869589 l 1.2e-4,1.200614 -0.08276,0.0074 c -0.04552,0.0041 -0.213851,0.01349 -0.374073,0.02094 -0.160222,0.0075 -0.337493,0.01713 -0.393935,0.02152 l -0.102622,0.008 -6.6e-5,-0.746214 8e-6,0 z"
     id="path3411"
     inkscape:connector-curvature="0" /><path
     style="opacity:0.66000001;fill:#000000;fill-opacity:1;stroke:none;stroke-width:1;stroke-miterlimit:4;stroke-dasharray:none;stroke-opacity:1"
     d="m 30.384527,17.835087 c -0.0084,-1.669659 -0.01293,-1.829485 -0.06247,-2.190933 -0.03228,-0.235526 -0.05029,-0.29901 -0.115004,-0.405345 -0.120165,-0.197454 -0.173011,-0.233304 -0.460536,-0.312416 -0.225461,-0.06203 -0.394427,-0.08543 -0.730287,-0.101135 -0.165168,-0.0077 -1.870529,-0.01302 -4.245216,-0.0132 l -3.969147,-2.91e-4 0,-0.470074 0,-0.470075 0.857388,3.87e-4 c 1.903049,8.58e-4 6.493616,0.02634 7.014699,0.03894 0.642665,0.01554 0.987062,0.03397 1.143311,0.06117 0.18809,0.03275 0.488909,0.163834 0.690069,0.300696 0.211216,0.143704 0.42133,0.387761 0.543627,0.631447 0.09234,0.183999 0.18871,0.534161 0.22417,0.814548 0.04518,0.357273 0.06685,1.191596 0.06693,2.577221 l 6.6e-5,1.133895 -0.109242,0.0081 c -0.06008,0.0045 -0.231396,0.01414 -0.380694,0.02147 -0.149298,0.0073 -0.313733,0.01671 -0.365411,0.02084 l -0.09396,0.0075 -0.0083,-1.652819 -3e-6,0 z"
     id="path3413"
     inkscape:connector-curvature="0" /><path
     style="opacity:0.66000001;fill:#000000;fill-opacity:1;stroke:none;stroke-width:1;stroke-miterlimit:4;stroke-dasharray:none;stroke-opacity:1"
     d="m 30.386184,20.312314 c -5e-6,-0.243064 -0.0011,-0.550682 -0.0025,-0.683593 -0.0013,-0.132912 -0.0012,-0.218151 2.92e-4,-0.18942 l 0.0027,0.05224 0.06427,-0.0041 c 0.03535,-0.0022 0.248989,-0.01332 0.474757,-0.02463 0.225768,-0.01131 0.414522,-0.02184 0.419454,-0.0234 0.0075,-0.0024 0.0084,-0.198291 0.0057,-1.209409 -0.0032,-1.168376 -0.0066,-1.401827 -0.02813,-1.908377 -0.02257,-0.531515 -0.04084,-0.69767 -0.105551,-0.960011 -0.04436,-0.179838 -0.09552,-0.326408 -0.161295,-0.462106 l -0.03144,-0.06486 0.02958,0.002 0.02958,0.002 0.03188,0.07453 c 0.149378,0.349238 0.227582,0.789672 0.250099,1.408524 0.0038,0.103264 0.0079,0.851847 0.0094,1.689949 l 0.0026,1.504569 -0.489101,0 -0.489101,0 0,0.619041 c 0,0.40828 -0.0023,0.619041 -0.0066,0.619041 -0.0043,0 -0.0066,-0.151732 -0.0066,-0.441936 z"
     id="path3415"
     inkscape:connector-curvature="0" /><path
     style="opacity:0.66000001;fill:#000000;fill-opacity:1;stroke:none;stroke-width:1;stroke-miterlimit:4;stroke-dasharray:none;stroke-opacity:1"
     d="m 30.983851,14.767232 c -0.200155,-0.340207 -0.523524,-0.588878 -0.98168,-0.754914 -0.161965,-0.0587 -0.335432,-0.07844 -0.854059,-0.09721 -0.434368,-0.01572 -1.771624,-0.03303 -2.565546,-0.03321 -0.236692,-5.3e-5 -0.45046,-0.002 -0.47504,-0.0043 l -0.04469,-0.0042 0,-0.02955 0,-0.02955 1.355601,0.0035 c 0.828698,0.0021 1.404496,0.0062 1.481396,0.01051 0.206498,0.01157 0.316358,0.02032 0.472867,0.03766 0.881878,0.09772 1.387495,0.372281 1.678482,0.911458 l 0.03126,0.05793 -0.02928,0 -0.02928,0 -0.04004,-0.06806 z"
     id="path3417"
     inkscape:connector-curvature="0" /><path
     style="opacity:0.66000001;fill:#000000;fill-opacity:1;stroke:none;stroke-width:1;stroke-miterlimit:4;stroke-dasharray:none;stroke-opacity:1"
     d="m 29.558599,14.907873 c -0.396637,-0.04856 -1.405209,-0.07917 -2.896584,-0.08791 -0.131091,-7.69e-4 0.03873,-0.002 0.377384,-0.0026 0.769786,-0.0016 1.937287,0.0084 2.08223,0.01772 0.213353,0.01376 0.423427,0.04229 0.532971,0.07239 0.05952,0.01636 0.03488,0.01647 -0.096,4.45e-4 z"
     id="path3419"
     inkscape:connector-curvature="0" /><path
     style="opacity:0.66000001;fill:#000000;fill-opacity:1;stroke:none;stroke-width:1;stroke-miterlimit:4;stroke-dasharray:none;stroke-opacity:1"
     d="m 30.278877,15.481573 c -0.06606,-0.229049 -0.178169,-0.37679 -0.368,-0.484969 -0.06001,-0.0342 -0.05514,-0.03613 0.02132,-0.0085 0.106009,0.03836 0.149103,0.07539 0.239668,0.205949 0.06445,0.09291 0.09155,0.151633 0.112109,0.242886 0.02204,0.09783 0.0187,0.127084 -0.0051,0.04459 z"
     id="path3421"
     inkscape:connector-curvature="0" /><path
     style="opacity:0.66000001;fill:#000000;fill-opacity:1;stroke:none;stroke-width:1;stroke-miterlimit:4;stroke-dasharray:none;stroke-opacity:1"
     d="m 31.336407,16.834759 c 9.17e-4,-0.121508 -5.5e-4,-0.190592 -0.0035,-0.165519 -0.0029,0.02483 -0.0037,-0.01125 -0.0017,-0.0853 0.0027,-0.101087 0.0016,-0.127257 -0.0048,-0.123262 -0.0065,0.004 -0.0072,-0.01326 -0.0034,-0.08106 0.0036,-0.064 0.0028,-0.08738 -0.0031,-0.09101 -0.0058,-0.0036 -0.0067,-0.02317 -0.0032,-0.07365 0.0034,-0.04979 0.0026,-0.06877 -0.0029,-0.06877 -0.0054,0 -0.0064,-0.01833 -0.0036,-0.06455 0.0029,-0.04704 0.002,-0.06186 -0.0032,-0.05462 -0.0052,0.0073 -0.0061,-0.0061 -0.0033,-0.04966 0.0028,-0.04324 0.0019,-0.05686 -0.0032,-0.04966 -0.0052,0.0072 -0.0062,-0.0044 -0.0037,-0.04303 0.0025,-0.03874 0.0015,-0.04941 -0.0035,-0.03972 -0.0051,0.0098 -0.0059,0.0021 -0.0032,-0.02979 0.0027,-0.03225 0.0018,-0.04055 -0.0037,-0.0331 -0.0055,0.0076 -0.0066,0.0016 -0.0045,-0.0246 0.0015,-0.019 8.28e-4,-0.03332 -0.0016,-0.03184 -0.0063,0.0039 -0.02134,-0.124323 -0.01639,-0.139459 0.0035,-0.01067 0.0029,-0.0111 -0.0036,-0.0027 -0.0061,0.0078 -0.007,0.0037 -0.0038,-0.01986 0.003,-0.02241 0.0022,-0.02733 -0.0033,-0.01986 -0.0055,0.0075 -0.0062,0.0035 -0.0032,-0.01655 0.0031,-0.02026 0.0023,-0.02415 -0.0033,-0.01655 -0.0058,0.0078 -0.0068,0.0055 -0.0048,-0.01124 0.0015,-0.01266 -1.3e-5,-0.01956 -0.0039,-0.01718 -0.004,0.0025 -0.0048,-0.0041 -0.0022,-0.01723 0.0023,-0.01167 0.0017,-0.01964 -0.0014,-0.01771 -0.0074,0.0046 -0.02275,-0.07329 -0.01657,-0.08403 0.0026,-0.0045 0.0021,-0.0059 -9.98e-4,-0.003 -0.0066,0.006 -0.04402,-0.126665 -0.03937,-0.139622 0.0019,-0.0052 7.5e-5,-0.0068 -0.0045,-0.0039 -0.0052,0.0032 -0.0064,1.22e-4 -0.0039,-0.0096 0.0021,-0.0079 6.85e-4,-0.01428 -0.003,-0.01428 -0.0037,0 -0.0052,-0.006 -0.0033,-0.01325 0.0021,-0.008 7.96e-4,-0.0116 -0.0032,-0.0091 -0.0043,0.0026 -0.005,-0.0013 -0.002,-0.01075 0.0034,-0.01082 0.0025,-0.01354 -0.0033,-0.0099 -0.0058,0.0036 -0.0067,8.91e-4 -0.0033,-0.0099 0.0034,-0.01082 0.0025,-0.01354 -0.0033,-0.0099 -0.0058,0.0036 -0.0067,8.91e-4 -0.0033,-0.0099 0.0035,-0.01116 0.0026,-0.01359 -0.0037,-0.0097 -0.006,0.0037 -0.0072,0.002 -0.0042,-0.0058 0.0023,-0.0061 0.0014,-0.01102 -0.002,-0.01102 -0.0034,0 -0.0043,-0.005 -0.002,-0.01102 0.003,-0.0078 0.0018,-0.0095 -0.0042,-0.0058 -0.0063,0.0039 -0.0073,0.0015 -0.0037,-0.0097 0.0035,-0.01116 0.0026,-0.01359 -0.0037,-0.0097 -0.006,0.0037 -0.0072,0.002 -0.0042,-0.0058 0.0023,-0.0061 0.0014,-0.01102 -0.002,-0.01102 -0.0034,0 -0.0043,-0.005 -0.002,-0.01102 0.0031,-0.0081 0.0018,-0.0095 -0.0046,-0.0055 -0.0065,0.004 -0.0077,0.0025 -0.0046,-0.0055 0.0023,-0.0061 0.0014,-0.01102 -0.002,-0.01102 -0.0034,0 -0.0043,-0.005 -0.002,-0.01102 0.0031,-0.0081 0.0018,-0.0095 -0.0046,-0.0055 -0.0065,0.004 -0.0077,0.0025 -0.0046,-0.0055 0.0023,-0.0061 0.0012,-0.01102 -0.0026,-0.01102 -0.0037,0 -0.005,-0.003 -0.0027,-0.0066 0.0023,-0.0036 7.61e-4,-0.0066 -0.0033,-0.0066 -0.0041,0 -0.0057,-0.0028 -0.0036,-0.0061 0.0047,-0.0076 -0.0096,-0.04022 -0.0177,-0.04022 -0.0033,0 -0.0041,-0.003 -0.0019,-0.0066 0.0023,-0.0036 7.61e-4,-0.0066 -0.0033,-0.0066 -0.0041,0 -0.0056,-0.003 -0.0033,-0.0066 0.0023,-0.0036 7.61e-4,-0.0066 -0.0033,-0.0066 -0.0041,0 -0.0056,-0.003 -0.0033,-0.0066 0.0023,-0.0036 7.61e-4,-0.0066 -0.0033,-0.0066 -0.0041,0 -0.0056,-0.003 -0.0033,-0.0066 0.0023,-0.0036 4.41e-4,-0.0066 -0.004,-0.0066 -0.0045,0 -0.0062,-0.0019 -0.004,-0.0041 0.0059,-0.0059 -0.01398,-0.0422 -0.02308,-0.0422 -0.0042,0 -0.0056,-0.0019 -0.0032,-0.0043 0.0024,-0.0024 5.3e-5,-0.0076 -0.0052,-0.01159 -0.0052,-0.004 -0.01037,-0.0114 -0.01148,-0.01644 -0.0011,-0.005 -0.0088,-0.01677 -0.01715,-0.02605 -0.0083,-0.0093 -0.01359,-0.02091 -0.0117,-0.02584 0.0019,-0.0049 -9.64e-4,-0.01065 -0.0063,-0.01271 -0.0054,-0.0021 -0.0081,-0.0064 -0.0061,-0.0097 0.002,-0.0033 -9.48e-4,-0.0078 -0.0066,-0.0099 -0.0057,-0.0022 -0.0088,-0.0064 -0.0069,-0.0095 0.0019,-0.003 -0.0014,-0.0082 -0.0073,-0.01149 -0.0059,-0.0033 -0.01114,-0.0087 -0.01173,-0.01199 -5.84e-4,-0.0033 -0.0034,-0.0052 -0.0063,-0.0043 -0.0029,9.68e-4 -0.0044,-0.0035 -0.0033,-0.0099 0.0011,-0.0066 -0.0017,-0.01097 -0.0063,-0.01004 -0.0072,0.0014 -0.01138,-0.0073 -0.0066,-0.01388 0.0036,-0.0051 -0.0168,-0.0238 -0.02227,-0.02042 -0.0052,0.0032 -0.0085,-0.0067 -0.0042,-0.01269 0.0034,-0.0047 -0.01658,-0.02393 -0.02157,-0.02084 -0.005,0.0031 -0.01613,-0.01545 -0.0145,-0.02407 4.34e-4,-0.0023 -0.0051,-0.0095 -0.01219,-0.01592 -0.0071,-0.0065 -0.01298,-0.0097 -0.01298,-0.0072 0,0.0025 -0.0097,-0.0065 -0.02152,-0.01994 -0.01183,-0.01348 -0.02152,-0.02699 -0.02152,-0.03002 0,-0.003 -0.0018,-0.0048 -0.0039,-0.0039 -0.0022,9.1e-4 -0.03047,-0.02242 -0.0629,-0.05185 -0.06956,-0.06313 -0.144772,-0.123143 -0.193099,-0.15408 -0.01908,-0.01221 -0.03469,-0.02505 -0.03469,-0.02853 0,-0.0035 -0.003,-0.0045 -0.0067,-0.0022 -0.0037,0.0023 -0.0084,-5.2e-4 -0.01063,-0.0062 -0.0022,-0.0057 -0.0065,-0.0087 -0.0096,-0.0068 -0.0031,0.0019 -0.01175,-0.0026 -0.01917,-0.01 -0.0074,-0.0074 -0.01357,-0.01125 -0.01369,-0.0085 -1.1e-4,0.0027 -0.0033,-3.11e-4 -0.007,-0.0068 -0.0038,-0.0064 -0.0096,-0.01 -0.01304,-0.0079 -0.0034,0.0021 -0.0062,5.1e-4 -0.0062,-0.0036 0,-0.0041 -0.003,-0.0056 -0.0066,-0.0033 -0.0036,0.0023 -0.0066,7.61e-4 -0.0066,-0.0033 0,-0.0041 -0.003,-0.0056 -0.0066,-0.0033 -0.0036,0.0023 -0.0066,7.61e-4 -0.0066,-0.0033 0,-0.0041 -0.0029,-0.0056 -0.0064,-0.0035 -0.0035,0.0022 -0.0122,-0.0019 -0.01931,-0.009 -0.0071,-0.0071 -0.01467,-0.01119 -0.01679,-0.0091 -0.0021,0.0021 -0.0039,2.1e-4 -0.0039,-0.0043 0,-0.0045 -0.003,-0.0063 -0.0066,-0.004 -0.0036,0.0023 -0.0066,7.6e-4 -0.0066,-0.0033 0,-0.0041 -0.003,-0.0056 -0.0066,-0.0033 -0.0036,0.0023 -0.0066,7.61e-4 -0.0066,-0.0033 0,-0.0041 -0.003,-0.0056 -0.0066,-0.0033 -0.0036,0.0023 -0.0066,7.61e-4 -0.0066,-0.0033 0,-0.0041 -0.0028,-0.0057 -0.0062,-0.0036 -0.0078,0.0048 -0.05391,-0.01675 -0.04986,-0.02329 0.0039,-0.0063 -0.01621,-0.01399 -0.02402,-0.0092 -0.0033,0.002 -0.006,6.61e-4 -0.006,-0.0031 0,-0.0037 -0.005,-0.0049 -0.01102,-0.0026 -0.0069,0.0027 -0.0094,0.0016 -0.0067,-0.0028 0.0049,-0.0079 -0.01336,-0.01712 -0.02265,-0.01138 -0.0033,0.002 -0.006,6.61e-4 -0.006,-0.0031 0,-0.0037 -0.005,-0.0049 -0.01102,-0.0026 -0.0069,0.0027 -0.0094,0.0016 -0.0067,-0.0028 0.0056,-0.009 -0.01203,-0.01595 -0.02644,-0.01042 -0.0069,0.0027 -0.0094,0.0016 -0.0067,-0.0028 0.0056,-0.009 -0.01203,-0.01595 -0.02645,-0.01042 -0.0081,0.0031 -0.0095,0.0018 -0.0055,-0.0046 0.004,-0.0065 0.0025,-0.0077 -0.0055,-0.0046 -0.0061,0.0023 -0.01102,0.0014 -0.01102,-0.002 0,-0.0034 -0.005,-0.0043 -0.01102,-0.002 -0.0078,0.003 -0.0095,0.0018 -0.0058,-0.0042 0.0039,-0.0063 0.0015,-0.0073 -0.0097,-0.0037 -0.01082,0.0034 -0.01354,0.0025 -0.0099,-0.0033 0.0036,-0.0058 8.91e-4,-0.0067 -0.0099,-0.0033 -0.0094,0.003 -0.01338,0.0023 -0.01075,-0.002 0.0025,-0.0041 -0.0014,-0.0053 -0.01014,-0.003 -0.01064,0.0028 -0.01292,0.0015 -0.0089,-0.005 0.0035,-0.0056 0.0028,-0.0071 -0.0019,-0.0042 -0.004,0.0025 -0.03052,-0.0016 -0.0589,-0.009 -0.02838,-0.0074 -0.07773,-0.01699 -0.109679,-0.02125 -0.03607,-0.0048 -0.05491,-0.0099 -0.04971,-0.01334 0.0048,-0.0032 -0.01024,-0.0041 -0.03466,-0.002 -0.03108,0.0026 -0.03936,0.0017 -0.02979,-0.003 0.0095,-0.0047 -0.0018,-0.0058 -0.03972,-0.0036 -0.03527,0.002 -0.04744,0.0011 -0.03641,-0.0028 0.01085,-0.0038 -0.0074,-0.005 -0.05297,-0.0035 -0.04963,0.0017 -0.06194,7.21e-4 -0.04303,-0.0033 0.01796,-0.0038 -0.0023,-0.0049 -0.0629,-0.0035 -0.06239,0.0015 -0.07938,5.09e-4 -0.05628,-0.0033 0.0221,-0.0036 -0.0032,-0.0048 -0.07614,-0.0035 -0.07561,0.0014 -0.09599,3.72e-4 -0.06621,-0.0032 0.02781,-0.0033 -0.0073,-0.0046 -0.09931,-0.0035 -0.09232,0.0011 -0.124896,-6.3e-5 -0.09269,-0.0033 0.02948,-0.0029 -0.02164,-0.0041 -0.125794,-0.003 -0.100557,0.0011 -0.162733,-3.14e-4 -0.145657,-0.0033 0.01661,-0.0029 -0.0669,-0.0044 -0.188692,-0.0034 -0.120167,0.001 -0.199119,-1.73e-4 -0.17545,-0.0027 0.02367,-0.0025 -0.09997,-0.0041 -0.274762,-0.0036 -0.195848,5.98e-4 -0.272066,-6.7e-4 -0.198623,-0.0033 0.06555,-0.0024 -0.116194,-0.0039 -0.403866,-0.0034 -0.361058,6.24e-4 -0.455377,-4.65e-4 -0.304555,-0.0035 0.121651,-0.0025 -0.126303,-0.0039 -0.559455,-0.0033 -0.427866,6.06e-4 -0.712394,-7.03e-4 -0.632282,-0.0029 0.110126,-0.003 0.131121,-0.0048 0.08607,-0.0073 l -0.05959,-0.0033 -0.0021,-0.02884 -0.0021,-0.02884 1.220291,0.0045 c 0.671159,0.0025 1.334995,0.0072 1.47519,0.01045 1.019528,0.02381 1.643085,0.204978 2.02613,0.588674 0.09776,0.09793 0.171596,0.196037 0.24865,0.330395 0.04566,0.07962 0.04729,0.08388 0.03365,0.08798 -0.01421,0.0043 -0.0142,0.0043 8.37e-4,0.005 0.0176,7.66e-4 0.03443,0.03464 0.08723,0.175553 0.0932,0.248762 0.156963,0.569468 0.188343,0.947326 0.01619,0.194984 0.02337,0.404387 0.02581,0.753112 0.0022,0.315666 0.0018,0.329383 -0.0098,0.329383 -0.01102,0 -0.01225,-0.0074 -0.01346,-0.0811 l -0.0013,-0.08111 -0.0043,0.07945 c -0.0026,0.04671 -0.0037,-0.0065 -0.0028,-0.129105 z"
     id="path3423"
     inkscape:connector-curvature="0" /><path
     style="opacity:0.66000001;fill:#000000;fill-opacity:1;stroke:none;stroke-width:1;stroke-miterlimit:4;stroke-dasharray:none;stroke-opacity:1"
     d="m 30.376988,16.670895 c -0.0069,-0.557341 -0.01593,-0.726205 -0.05397,-1.007884 -0.0386,-0.285764 -0.05387,-0.334548 -0.147203,-0.470202 -0.120234,-0.174751 -0.155836,-0.19457 -0.517343,-0.287994 -0.150797,-0.03897 -0.327344,-0.06205 -0.586495,-0.07668 -0.15598,-0.0088 -2.431045,-0.01829 -4.526947,-0.01887 l -1.660156,-4.6e-4 0,-0.467566 0,-0.467565 1.630363,0.0034 c 0.896699,0.0019 1.618445,0.0022 1.60388,6.92e-4 -0.05423,-0.0056 -0.05628,-0.0069 -0.05628,-0.0363 l 0,-0.02691 1.123875,0.0043 c 1.565197,0.006 1.841499,0.01193 2.156713,0.04666 0.244974,0.02699 0.475918,0.06928 0.647934,0.118648 0.455114,0.130623 0.764793,0.340977 0.978565,0.664705 0.06395,0.09685 0.109288,0.181629 0.09896,0.185071 -0.0055,0.0018 -0.0034,0.0062 0.006,0.01276 0.01605,0.01125 0.02685,0.03426 0.07384,0.15742 0.0876,0.22959 0.149188,0.519841 0.184049,0.86732 0.02369,0.236172 0.02789,0.337673 0.03141,0.760544 0.0029,0.350292 0.002,0.415789 -0.0056,0.413267 -0.0066,-0.0022 -0.01007,-0.02203 -0.01272,-0.07198 -0.0029,-0.05485 -0.0042,-0.06152 -0.0064,-0.03257 -0.0015,0.02003 -0.0019,0.05206 -9.22e-4,0.07117 l 0.0018,0.03476 -0.479352,0 -0.479351,0 -0.0046,-0.375728 z m 0.960901,0.04965 c -0.0012,-0.03004 -0.0022,-0.0055 -0.0022,0.05462 0,0.06008 0.001,0.08466 0.0022,0.05462 0.0012,-0.03004 0.0012,-0.0792 0,-0.109243 z m -0.0066,-0.218485 c -0.0013,-0.02276 -0.0024,-0.0041 -0.0024,0.04138 0,0.04552 0.0011,0.06414 0.0024,0.04138 0.0013,-0.02276 0.0013,-0.06 0,-0.08276 z m -0.0067,-0.185381 c -0.0014,-0.01548 -0.0025,-0.0028 -0.0025,0.02814 0,0.03095 0.0011,0.04361 0.0025,0.02814 0.0014,-0.01548 0.0014,-0.0408 0,-0.05628 z m -0.0066,-0.14882 c -0.0014,-0.01374 -0.0026,-0.0041 -0.0027,0.02137 0,0.02549 0.0011,0.03673 0.0026,0.02498 0.0015,-0.01175 0.0015,-0.03261 6.6e-5,-0.04635 l -1.2e-5,0 z m -0.0067,-0.122631 c -0.0015,-0.01184 -0.0027,-0.0022 -0.0027,0.02152 0,0.02367 0.0012,0.03335 0.0027,0.02152 0.0015,-0.01183 0.0015,-0.0312 0,-0.04303 z m -0.0066,-0.09919 c -0.0015,-0.0119 -0.0027,-0.0038 -0.0027,0.01809 -6.6e-5,0.02185 0.0012,0.03158 0.0027,0.02164 0.0015,-0.0099 0.0015,-0.02782 6.6e-5,-0.03972 l 2e-6,0 z m -0.0067,-0.0895 c -0.0015,-0.01001 -0.0028,-0.0018 -0.0028,0.01821 0,0.02003 0.0012,0.02822 0.0028,0.01821 0.0015,-0.01001 0.0015,-0.0264 0,-0.03641 z m -0.0068,-0.06621 c -0.0017,-0.0064 -0.003,-0.0012 -0.003,0.01159 0,0.01274 0.0014,0.01796 0.003,0.01159 0.0017,-0.0064 0.0017,-0.0168 0,-0.02317 z m -0.02666,-0.208554 c -0.0018,-0.0046 -0.0033,-8.27e-4 -0.0033,0.0083 0,0.0091 0.0015,0.01283 0.0033,0.0083 0.0018,-0.0046 0.0018,-0.012 0,-0.01655 z m -0.0065,-0.03269 c -0.0021,-0.0053 -0.0037,-0.0037 -0.004,0.004 -2.85e-4,0.007 0.0013,0.01089 0.0035,0.0087 0.0022,-0.0022 0.0024,-0.0079 5.23e-4,-0.01269 l 0,0 z m -0.0066,-0.0331 c -0.0021,-0.0053 -0.0037,-0.0037 -0.004,0.004 -2.85e-4,0.007 0.0013,0.01089 0.0035,0.0087 0.0022,-0.0022 0.0024,-0.0079 5.23e-4,-0.01269 l -1e-6,0 z m -0.14275,-0.499784 c -0.0078,-0.01342 -0.0097,-0.0091 -0.0033,0.0075 0.0023,0.0059 0.0055,0.0094 0.0072,0.0077 0.0017,-0.0017 -6.7e-5,-0.0085 -0.0039,-0.01518 z m -0.01324,-0.0331 c -0.0078,-0.01342 -0.0097,-0.0091 -0.0033,0.0075 0.0023,0.0059 0.0055,0.0094 0.0072,0.0077 0.0017,-0.0017 -6.6e-5,-0.0085 -0.0039,-0.01518 z m -0.04715,-0.101463 c -0.01866,-0.03718 -0.03506,-0.06646 -0.03645,-0.06507 -0.0014,0.0014 0.0129,0.03279 0.03175,0.06977 0.01886,0.03698 0.03526,0.06626 0.03645,0.06507 0.0012,-0.0012 -0.0131,-0.03259 -0.03175,-0.06977 z m -0.103408,-0.178761 c -0.02258,-0.03412 -0.02716,-0.03415 -0.0077,-5.3e-5 0.0083,0.01454 0.01737,0.02646 0.02015,0.02648 0.0028,2.7e-5 -0.0028,-0.01187 -0.01247,-0.02643 l 0,2e-6 z m -0.06493,-0.09119 c -0.01144,-0.01093 -0.01162,-0.01075 -0.004,0.004 0.0044,0.0085 0.0097,0.01365 0.01197,0.01143 0.0022,-0.0022 -0.0013,-0.0092 -0.0079,-0.01546 z m -0.02648,-0.0331 c -0.01144,-0.01093 -0.01162,-0.01075 -0.004,0.004 0.0044,0.0085 0.0097,0.01365 0.01197,0.01143 0.0022,-0.0022 -0.0013,-0.0092 -0.0079,-0.01546 z m -0.03653,-0.04306 c -0.0085,-0.0081 -0.01308,-0.01024 -0.01019,-0.0048 0.0092,0.01745 0.01821,0.02691 0.02197,0.02315 0.002,-0.002 -0.0033,-0.01028 -0.01179,-0.01837 z m -0.05334,-0.05704 c 0,-0.0033 -0.0049,-0.0078 -0.01087,-0.01008 -0.0091,-0.0035 -0.0095,-0.0025 -0.0025,0.0059 0.0095,0.01149 0.01337,0.01269 0.01337,0.0042 z m -0.364142,-0.281857 c 0,-0.0017 -0.0067,-0.0063 -0.0149,-0.0103 -0.01431,-0.0069 -0.01439,-0.0068 -0.002,0.0031 0.01351,0.01082 0.01694,0.01229 0.01694,0.0072 z m -0.09269,-0.05249 c 0,-0.0014 -0.0046,-0.0044 -0.01028,-0.0065 -0.0059,-0.0023 -0.0085,-0.0012 -0.0062,0.0026 0.0039,0.0063 0.0165,0.0093 0.0165,0.0039 z m -0.0331,-0.01726 c -0.0055,-0.0035 -0.01291,-0.0064 -0.01655,-0.0064 -0.0036,0 -0.0022,0.0029 0.0033,0.0064 0.0055,0.0035 0.01291,0.0064 0.01655,0.0064 0.0036,0 0.0022,-0.0029 -0.0033,-0.0064 z m -0.06621,-0.0331 c -0.01297,-0.0084 -0.02173,-0.0084 -0.01655,0 0.0023,0.0036 0.0091,0.0066 0.01529,0.0065 0.0096,-8.7e-5 0.0098,-9.88e-4 0.0013,-0.0065 z m -0.04635,-0.01986 c -0.01297,-0.0084 -0.02173,-0.0084 -0.01655,0 0.0023,0.0036 0.0091,0.0066 0.01529,0.0065 0.0096,-8.7e-5 0.0098,-9.88e-4 0.0013,-0.0065 z m -0.04634,-0.01986 c -0.01297,-0.0084 -0.02173,-0.0084 -0.01655,0 0.0023,0.0036 0.0091,0.0066 0.01529,0.0065 0.0096,-8.8e-5 0.0098,-9.89e-4 0.0013,-0.0065 z m -0.0331,-0.01324 c -0.01297,-0.0084 -0.02173,-0.0084 -0.01655,0 0.0023,0.0036 0.0091,0.0066 0.01529,0.0065 0.0096,-8.7e-5 0.0098,-9.88e-4 0.0013,-0.0065 z m -0.352555,-0.09063 c -0.0064,-0.0017 -0.0168,-0.0017 -0.02317,0 -0.0064,0.0017 -0.0012,0.003 0.01159,0.003 0.01274,0 0.01796,-0.0014 0.01159,-0.003 z m -0.0629,-0.0067 c -0.0082,-0.0016 -0.0216,-0.0016 -0.02979,0 -0.0082,0.0016 -0.0015,0.0029 0.0149,0.0029 0.01639,0 0.02309,-0.0013 0.0149,-0.0029 z m -0.07945,-0.0066 c -0.0082,-0.0016 -0.0216,-0.0016 -0.02979,0 -0.0082,0.0016 -0.0015,0.0029 0.0149,0.0029 0.01639,0 0.02309,-0.0013 0.0149,-0.0029 z m -0.09931,-0.0067 c -0.01183,-0.0015 -0.0312,-0.0015 -0.04303,0 -0.01183,0.0015 -0.0022,0.0027 0.02152,0.0027 0.02367,0 0.03335,-0.0012 0.02152,-0.0027 z m -0.122484,-0.0067 c -0.01366,-0.0014 -0.036,-0.0014 -0.04966,0 -0.01365,0.0014 -0.0025,0.0026 0.02483,0.0026 0.02731,0 0.03848,-0.0012 0.02483,-0.0026 z m -0.148968,-0.0067 c -0.01912,-0.0013 -0.0504,-0.0013 -0.06952,0 -0.01912,0.0013 -0.0035,0.0024 0.03476,0.0024 0.03823,0 0.05388,-0.0011 0.03476,-0.0024 z m -0.201933,-0.0066 c -0.02458,-0.0013 -0.0648,-0.0013 -0.08938,0 -0.02458,0.0013 -0.0045,0.0023 0.04469,0.0023 0.04916,0 0.06927,-0.001 0.04469,-0.0023 z m -0.294624,-0.0066 c -0.03004,-0.0012 -0.0792,-0.0012 -0.109242,0 -0.03004,0.0012 -0.0055,0.0022 0.05462,0.0022 0.06008,0 0.08466,-0.001 0.05462,-0.0022 z m -0.509673,-0.006 c -0.0045,-0.0018 -0.01342,-0.0019 -0.01986,-2.45e-4 -0.0064,0.0017 -0.0028,0.0032 0.0082,0.0033 0.01092,1.35e-4 0.01619,-0.0012 0.01171,-0.0031 z m 0.03973,0 c -0.0045,-0.0018 -0.01342,-0.0019 -0.01986,-2.45e-4 -0.0064,0.0017 -0.0028,0.0032 0.0081,0.0033 0.01092,1.35e-4 0.0162,-0.0012 0.01171,-0.0031 z m 0.09938,-4.95e-4 c -0.01537,-0.0014 -0.04218,-0.0014 -0.05959,-3.7e-5 -0.01741,0.0014 -0.0048,0.0025 0.02794,0.0025 0.03277,2e-5 0.04701,-0.0011 0.03165,-0.0025 l 0,0 z m -0.516619,-0.0067 c -0.04461,-0.0011 -0.117601,-0.0011 -0.162209,0 -0.04461,0.0011 -0.0081,0.0021 0.08111,0.0021 0.08921,0 0.125711,-9.37e-4 0.0811,-0.0021 z m -0.754767,-0.0066 c -0.09559,-0.001 -0.252003,-0.001 -0.34759,0 -0.09559,0.001 -0.01738,0.0019 0.173795,0.0019 0.191175,0 0.269382,-8.46e-4 0.173795,-0.0019 z"
     id="path3425"
     inkscape:connector-curvature="0" /><path
     style="opacity:0.66000001;fill:#000000;fill-opacity:1;stroke:none;stroke-width:1;stroke-miterlimit:4;stroke-dasharray:none;stroke-opacity:1"
     d="m 23.220874,13.870314 -0.336004,-0.0018 0,-0.02642 0,-0.02642 1.588983,0 1.588983,0 0,0.02979 0,0.02979 -1.252979,-0.0016 c -0.689139,-8.77e-4 -1.404181,-0.0024 -1.588983,-0.0034 z"
     id="path3427"
     inkscape:connector-curvature="0" /><path
     style="opacity:0.66000001;fill:#000000;fill-opacity:1;stroke:none;stroke-width:1;stroke-miterlimit:4;stroke-dasharray:none;stroke-opacity:1"
     d="m 24.851237,13.87559 c 0.01639,-0.0027 -0.419343,-0.0054 -0.968287,-0.0059 l -0.99808,-9.94e-4 0,-0.02648 0,-0.02648 1.588983,0 1.588983,0 0,0.02648 c 0,0.01604 0.0033,0.02702 0.0083,0.02785 0.0046,7.53e-4 -0.03344,0.003 -0.08441,0.005 -0.144515,0.0056 -1.168892,0.0061 -1.13546,5.98e-4 z"
     id="path3429"
     inkscape:connector-curvature="0" /><path
     style="opacity:0.66000001;fill:#000000;fill-opacity:1;stroke:none;stroke-width:1;stroke-miterlimit:4;stroke-dasharray:none;stroke-opacity:1"
     d="m 17.058599,13.842174 0,-0.02648 2.913135,0 2.913136,0 0,0.02648 0,0.02648 -2.913136,0 -2.913135,0 0,-0.02648 z"
     id="path3431"
     inkscape:connector-curvature="0" /><path
     style="opacity:0.66000001;fill:#000000;fill-opacity:1;stroke:none;stroke-width:1;stroke-miterlimit:4;stroke-dasharray:none;stroke-opacity:1"
     d="m 17.058599,14.346432 0,-0.471154 1.870365,0 1.870366,0 0,0.466763 0,0.466764 -1.567466,7e-6 c -0.862106,4e-6 -1.70377,0.002 -1.870365,0.0044 l -0.3029,0.0044 0,-0.471153 z"
     id="path3433"
     inkscape:connector-curvature="0" /><path
     style="opacity:0.66000001;fill:#000000;fill-opacity:1;stroke:none;stroke-width:1;stroke-miterlimit:4;stroke-dasharray:none;stroke-opacity:1"
     d="m 17.058599,14.343697 0,-0.468419 1.875331,-0.0013 c 1.031432,-7.17e-4 2.770624,-0.0012 3.86487,-0.0011 1.094247,9.6e-5 1.561259,-8.17e-4 1.037805,-0.002 l -0.951735,-0.0022 0,-0.02646 0,-0.02646 1.857124,0 1.857124,0 0,0.498212 0,0.498213 -4.770259,0 -4.77026,0 0,-0.468419 z m 9.049233,-0.465355 c -0.0044,-0.0044 -0.595726,-0.0041 -0.600145,3.55e-4 -0.0018,0.0018 0.133352,0.0032 0.30025,0.0032 0.166898,0 0.301851,-0.0016 0.299895,-0.0036 z"
     id="path3435"
     inkscape:connector-curvature="0" /><path
     style="opacity:0.66000001;fill:#000000;fill-opacity:1;stroke:none;stroke-width:1;stroke-miterlimit:4;stroke-dasharray:none;stroke-opacity:1"
     d="m 17.058599,14.343697 0,-0.468419 1.875331,-0.0013 c 1.031432,-7.33e-4 2.600801,-0.0012 3.487487,-0.0011 0.886685,1.22e-4 1.353697,-7.84e-4 1.037804,-0.002 l -0.574351,-0.0022 0,-0.02645 0,-0.02645 1.857124,0 1.857124,0 0,0.498212 0,0.498213 -4.770259,0 -4.77026,0 0,-0.468419 z m 8.900408,-0.466756 c -0.07713,-0.0011 -0.205245,-0.0011 -0.284692,-2e-6 -0.07945,0.0011 -0.01634,0.0019 0.140243,0.0019 0.156581,2e-6 0.221583,-8.63e-4 0.144449,-0.0019 z"
     id="path3437"
     inkscape:connector-curvature="0" /><path
     style="opacity:0.66000001;fill:#000000;fill-opacity:1;stroke:none;stroke-width:1;stroke-miterlimit:4;stroke-dasharray:none;stroke-opacity:1"
     d="m 12.094682,14.81046 -3.5106594,-0.0017 0,-0.462357 0,-0.462356 0.5710408,-0.0044 c 0.3140724,-0.0024 2.2208516,-0.0044 4.2372886,-0.0044 l 3.666247,-4e-6 0,0.470074 0,0.470074 -0.726629,-0.0016 c -0.399646,-9.07e-4 -2.306425,-0.0024 -4.237288,-0.0033 z"
     id="path3439"
     inkscape:connector-curvature="0" /><path
     style="opacity:0.66000001;fill:#000000;fill-opacity:1;stroke:none;stroke-width:1;stroke-miterlimit:4;stroke-dasharray:none;stroke-opacity:1"
     d="m 12.230408,14.81046 -3.6463854,-0.0017 0,-0.462353 0,-0.462354 0.7597325,-0.0044 c 0.4178529,-0.0024 2.5644699,-0.0044 4.7702599,-0.0044 l 4.010527,-3e-6 0,0.470074 0,0.470074 -1.123875,-0.0016 c -0.618131,-9.07e-4 -2.764748,-0.0024 -4.770259,-0.0033 z"
     id="path3441"
     inkscape:connector-curvature="0" /><path
     style="opacity:0.66000001;fill:#000000;fill-opacity:1;stroke:none;stroke-width:1;stroke-miterlimit:4;stroke-dasharray:none;stroke-opacity:1"
     d="m 6.9950395,13.849889 0,-0.0342 4.7702595,0 4.77026,0 0,0.02538 0,0.02538 -3.911216,0.0044 c -2.151169,0.0024 -4.2977853,0.0064 -4.7702595,0.0088 l -0.859044,0.0044 0,-0.0342 z"
     id="path3443"
     inkscape:connector-curvature="0" /><path
     style="opacity:0.66000001;fill:#000000;fill-opacity:1;stroke:none;stroke-width:1;stroke-miterlimit:4;stroke-dasharray:none;stroke-opacity:1"
     d="m 3.2874124,14.577886 0,-0.535475 0.038069,-0.01359 c 0.1132193,-0.04041 0.2068461,-0.06341 0.2995895,-0.07357 0.3052055,-0.03344 1.2940114,-0.05493 3.0455509,-0.06619 0.4242253,-0.0027 0.670766,-0.0055 0.5478681,-0.0061 l -0.2234508,-0.0011 0,-0.0331 0,-0.0331 2.916446,0 2.9164455,0 0,0.02566 0,0.02566 -1.587327,0.0058 c -0.873031,0.0032 -2.0223123,0.0056 -2.5539596,0.0054 -0.5316472,-2.26e-4 -0.7722292,5.41e-4 -0.5346266,0.0017 l 0.4320048,0.0021 0,0.462587 0,0.462587 -1.5409825,0.0045 c -2.4639233,0.0071 -2.9007755,0.01376 -3.1200345,0.04739 -0.1404898,0.02155 -0.2588439,0.05214 -0.3714306,0.09602 -0.037064,0.01444 -0.068785,0.02487 -0.07049,0.02316 -0.00171,-0.0017 0.035208,-0.03145 0.082029,-0.06609 0.082494,-0.06104 0.08636,-0.06306 0.1248544,-0.06532 l 0.039725,-0.0023 -0.040227,-0.0013 -0.040227,-0.0013 -0.1385333,0.103325 c -0.076193,0.05683 -0.1554293,0.117905 -0.1760799,0.135726 -0.020651,0.01782 -0.039272,0.0324 -0.04138,0.0324 -0.00211,0 -0.00383,-0.240963 -0.00383,-0.535474 z"
     id="path3445"
     inkscape:connector-curvature="0" /><path
     style="opacity:0.66000001;fill:#000000;fill-opacity:1;stroke:none;stroke-width:1;stroke-miterlimit:4;stroke-dasharray:none;stroke-opacity:1"
     d="m 3.2874124,14.574118 0,-0.532622 0.084415,-0.02748 c 0.1429297,-0.04652 0.2138907,-0.0583 0.4353152,-0.07227 0.3649007,-0.02302 1.3113554,-0.04094 2.7145127,-0.05141 0.3787076,-0.0028 0.640145,-0.006 0.5809719,-0.007 l -0.1075874,-0.0018 0,-0.03294 0,-0.03294 2.916446,0 2.9164455,0 0,0.02646 0,0.02646 -0.888837,0.0017 -0.888837,0.0017 0.888837,0.0016 0.888837,0.0016 0,0.465845 0,0.465846 -3.7787998,0.0041 c -3.8360555,0.0042 -4.5959078,0.0084 -4.9010196,0.02745 -0.255612,0.01594 -0.4158533,0.04673 -0.591978,0.113743 -0.032454,0.01235 -0.061602,0.02159 -0.064774,0.02053 -0.00317,-0.0011 0.02636,-0.02554 0.065627,-0.0544 0.039267,-0.02886 0.075064,-0.05522 0.079547,-0.05857 0.00448,-0.0033 0.023849,-0.0084 0.043035,-0.01117 l 0.034883,-0.0051 -0.03356,-8.26e-4 c -0.033154,-8.16e-4 -0.035037,2.66e-4 -0.155588,0.08948 -0.067115,0.04967 -0.1450138,0.109254 -0.1731079,0.132416 -0.028094,0.02316 -0.054163,0.04211 -0.057932,0.04211 -0.00466,0 -0.00685,-0.17 -0.00685,-0.532622 z m 4.8580618,-0.696769 c -0.00633,-0.0017 -0.018247,-0.0017 -0.026483,-1.33e-4 -0.00824,0.0016 -0.00306,0.0029 0.011509,0.003 0.014566,7.3e-5 0.021304,-0.0012 0.014974,-0.0029 z m 0.7513794,-4.14e-4 c -0.1356429,-10e-4 -0.3576039,-10e-4 -0.4932468,0 -0.1356429,0.001 -0.024662,0.0018 0.2466234,0.0018 0.2712858,0 0.3822663,-8.18e-4 0.2466234,-0.0018 z"
     id="path3447"
     inkscape:connector-curvature="0" /><path
     style="opacity:0.66000001;fill:#000000;fill-opacity:1;stroke:none;stroke-width:1;stroke-miterlimit:4;stroke-dasharray:none;stroke-opacity:1"
     d="m 3.2915659,15.091768 c -0.00219,-0.0082 -0.00401,-0.247798 -0.00406,-0.532547 l -9.04e-5,-0.517725 0.084415,-0.02748 c 0.14383,-0.04682 0.2163039,-0.05877 0.4386256,-0.07233 0.3733736,-0.02278 1.2432889,-0.03956 2.6615466,-0.05134 0.3404727,-0.0028 0.597441,-0.006 0.5710408,-0.0071 l -0.048001,-0.0019 0,-0.03281 0,-0.03281 2.916446,0 2.9164455,0 0,0.02645 0,0.02645 -0.647179,0.0017 -0.64718,0.0017 0.64718,0.0016 0.647179,0.0016 0,0.466763 0,0.466764 -2.630098,1.58e-4 c -2.8512302,1.71e-4 -5.4744008,0.009 -5.8014428,0.01951 -0.4476872,0.0144 -0.6097683,0.03818 -0.8369199,0.122762 -0.03426,0.01276 -0.063547,0.02194 -0.065083,0.0204 -0.00154,-0.0015 0.013088,-0.01535 0.032497,-0.03069 0.075438,-0.05964 0.1180205,-0.08651 0.1457526,-0.09197 l 0.028573,-0.0056 -0.026483,-6.92e-4 c -0.023864,-6.24e-4 -0.037126,0.0071 -0.1340834,0.07844 -0.05918,0.04352 -0.1351534,0.101015 -0.1688294,0.127759 -0.077894,0.06186 -0.075509,0.06058 -0.080248,0.0429 z M 8.761128,13.876945 c -0.057352,-0.0011 -0.1512017,-0.0011 -0.208554,0 -0.057352,0.0011 -0.010428,0.002 0.104277,0.002 0.1147047,0 0.1616293,-9.01e-4 0.104277,-0.002 z"
     id="path3449"
     inkscape:connector-curvature="0" /><path
     style="opacity:0.66000001;fill:#000000;fill-opacity:1;stroke:none;stroke-width:1;stroke-miterlimit:4;stroke-dasharray:none;stroke-opacity:1"
     d="m 3.2915343,15.096536 c -0.00227,-0.0059 -0.00412,-0.245709 -0.00412,-0.532891 l 0,-0.522149 0.084415,-0.02748 c 0.099467,-0.03238 0.1734371,-0.0491 0.259865,-0.05874 0.276442,-0.03085 1.1766148,-0.05171 2.7873411,-0.06459 0.3295484,-0.0026 0.5939651,-0.0059 0.5875927,-0.0073 -0.00913,-0.002 -0.011586,-0.0094 -0.011586,-0.03511 l 0,-0.03262 2.916446,0 2.9164455,0 0,0.02644 0,0.02644 -0.468418,0.0017 -0.468419,0.0017 0.468419,0.0016 0.468418,0.0016 0,0.466763 0,0.466764 -2.444716,1.34e-4 c -2.7339328,1.5e-4 -5.6117617,0.0096 -5.953721,0.01951 -0.4491539,0.01304 -0.5943251,0.03152 -0.8077331,0.102777 -0.058263,0.01945 -0.1118909,0.03734 -0.1191737,0.03975 -0.019069,0.0063 0.024046,-0.03196 0.087533,-0.07767 0.028958,-0.02085 0.06431,-0.04064 0.07856,-0.04399 0.025079,-0.0059 0.025244,-0.0061 0.00513,-0.0067 -0.025069,-8.02e-4 -0.046007,0.01307 -0.2230685,0.147748 -0.1719452,0.13079 -0.1542987,0.119018 -0.159212,0.106214 z"
     id="path3451"
     inkscape:connector-curvature="0" /><path
     style="opacity:0.66000001;fill:#000000;fill-opacity:1;stroke:none;stroke-width:1;stroke-miterlimit:4;stroke-dasharray:none;stroke-opacity:1"
     d="m 3.2874124,14.019044 c 0,-0.01387 0.00842,-0.01748 0.1009666,-0.04328 0.2823467,-0.07872 0.5637868,-0.119603 0.9649762,-0.140165 0.071008,-0.0036 0.4881157,-0.0081 0.9269068,-0.01 0.438791,-0.0018 1.0041214,-0.0048 1.2562897,-0.0066 l 0.4584878,-0.0032 0,0.03224 0,0.03224 -0.3194518,0.004 c -0.1756985,0.0022 -0.5086401,0.0056 -0.7398702,0.0076 -1.3201587,0.01123 -2.0946086,0.03216 -2.3404396,0.06323 -0.06258,0.0079 -0.1556407,0.03094 -0.2379343,0.05888 -0.032545,0.01105 -0.061594,0.02009 -0.064552,0.02009 -0.00296,0 -0.00538,-0.0068 -0.00538,-0.01513 z"
     id="path3453"
     inkscape:connector-curvature="0" /><path
     style="opacity:0.66000001;fill:#000000;fill-opacity:1;stroke:none;stroke-width:1;stroke-miterlimit:4;stroke-dasharray:none;stroke-opacity:1"
     d="m 2.9762366,17.137107 0,-0.09048 -0.4469015,0 -0.4469015,0 2.92e-5,-0.03145 c 1.157e-4,-0.124425 0.014468,-0.856827 0.019948,-1.017942 0.020712,-0.608955 0.04869,-0.7487 0.2180458,-1.089115 0.197963,-0.397917 0.4857511,-0.668991 0.8857547,-0.834311 l 0.07789,-0.03219 0.0017,0.527305 c 9.324e-4,0.290019 0.00409,0.529696 0.00701,0.532617 0.00292,0.0029 -0.00901,0.02017 -0.026512,0.03833 -0.1513565,0.15703 -0.2127544,0.352811 -0.2468349,0.787091 -0.020839,0.265541 -0.037135,0.755541 -0.036213,1.088847 3.105e-4,0.112319 -0.00114,0.20592 -0.00322,0.208002 -0.00208,0.0021 -0.00379,-0.03693 -0.00379,-0.0867 z"
     id="path3455"
     inkscape:connector-curvature="0" /><path
     style="opacity:0.66000001;fill:#000000;fill-opacity:1;stroke:none;stroke-width:1;stroke-miterlimit:4;stroke-dasharray:none;stroke-opacity:1"
     d="m 2.0468903,17.047883 -0.032233,-0.0021 0.00358,-0.448161 c 0.0035,-0.438335 0.00696,-0.530443 0.027995,-0.746097 0.068916,-0.706509 0.2638045,-1.187474 0.6038395,-1.490218 l 0.062594,-0.05573 0.040749,2.31e-4 0.040749,2.32e-4 -0.033104,0.02735 c -0.057475,0.04749 -0.1973685,0.19174 -0.2426963,0.250258 -0.1174085,0.151576 -0.2156025,0.329426 -0.3036372,0.549954 -0.087811,0.219968 -0.1102547,0.447802 -0.1258302,1.277377 -0.00386,0.20574 -0.00764,0.43366 -0.0084,0.506488 l -0.00138,0.132415 -0.032233,-0.0021 z"
     id="path3457"
     inkscape:connector-curvature="0" /><path
     style="opacity:0.66000001;fill:#000000;fill-opacity:1;stroke:none;stroke-width:1;stroke-miterlimit:4;stroke-dasharray:none;stroke-opacity:1"
     d="m 2.0192004,17.046079 c -0.00592,-0.0096 0.00272,-0.760487 0.010773,-0.935996 0.025808,-0.562753 0.1389016,-1.048023 0.3175917,-1.362739 0.090186,-0.158839 0.164304,-0.252421 0.3039632,-0.383785 l 0.06159,-0.05793 0.036244,0 0.036244,0 -0.021799,0.02483 c -0.011989,0.01365 -0.023597,0.02483 -0.025795,0.02483 -0.0022,0 -0.042206,0.04022 -0.088907,0.08938 -0.046701,0.04916 -0.090393,0.09422 -0.097093,0.100145 -0.0067,0.0059 -0.010561,0.01239 -0.00858,0.01437 0.00198,0.002 -0.00408,0.0086 -0.013466,0.01479 -0.00939,0.0062 -0.015556,0.01363 -0.013705,0.01663 0.00185,0.003 -0.00331,0.01012 -0.011461,0.01583 -0.00815,0.0057 -0.011928,0.01048 -0.00839,0.0106 0.00354,1.22e-4 -5.949e-4,0.0061 -0.00919,0.01324 -0.0086,0.0072 -0.013734,0.01302 -0.011416,0.01302 0.00232,0 -0.01325,0.02607 -0.034595,0.05793 -0.021345,0.03186 -0.053267,0.084 -0.070938,0.115863 -0.017671,0.03186 -0.034722,0.05793 -0.037891,0.05793 -0.00317,0 -0.00392,0.003 -0.00167,0.0066 0.00225,0.0036 7.608e-4,0.0066 -0.00331,0.0066 -0.00407,0 -0.00556,0.003 -0.00331,0.0066 0.00225,0.0036 7.609e-4,0.0066 -0.00331,0.0066 -0.00407,0 -0.00556,0.003 -0.00331,0.0066 0.00225,0.0036 7.608e-4,0.0066 -0.00331,0.0066 -0.00407,0 -0.00556,0.003 -0.00331,0.0066 0.00225,0.0036 7.608e-4,0.0066 -0.00331,0.0066 -0.00407,0 -0.00556,0.003 -0.00331,0.0066 0.00225,0.0036 7.609e-4,0.0066 -0.00331,0.0066 -0.00407,0 -0.00556,0.003 -0.00331,0.0066 0.00225,0.0036 0.00141,0.0066 -0.00186,0.0066 -0.00808,0 -0.022419,0.03258 -0.017699,0.04022 0.00208,0.0034 4.542e-4,0.0061 -0.00362,0.0061 -0.00407,0 -0.00556,0.003 -0.00331,0.0066 0.00225,0.0036 7.609e-4,0.0066 -0.00331,0.0066 -0.00407,0 -0.00556,0.003 -0.00331,0.0066 0.00225,0.0036 7.608e-4,0.0066 -0.00331,0.0066 -0.00407,0 -0.00556,0.003 -0.00331,0.0066 0.00225,0.0036 6.179e-4,0.0066 -0.00363,0.0066 -0.00425,0 -0.006,0.0045 -0.00391,0.0099 0.0021,0.0055 7.493e-4,0.0099 -0.00299,0.0099 -0.00374,0 -0.00496,0.003 -0.00271,0.0066 0.00225,0.0036 0.00157,0.0066 -0.00151,0.0066 -0.00308,0 -0.0061,0.0067 -0.00672,0.0148 -6.131e-4,0.0081 -0.00425,0.01584 -0.00807,0.01712 -0.00383,0.0013 -0.00527,0.005 -0.00321,0.0084 0.00206,0.0033 6.807e-4,0.0061 -0.00306,0.0061 -0.00374,0 -0.00509,0.0045 -0.00299,0.0099 0.0021,0.0055 3.37e-4,0.0099 -0.00391,0.0099 -0.00425,0 -0.00588,0.003 -0.00363,0.0066 0.00225,0.0036 6.179e-4,0.0066 -0.00363,0.0066 -0.00425,0 -0.00601,0.0045 -0.00391,0.0099 0.0021,0.0055 6.063e-4,0.0099 -0.00331,0.0099 -0.00392,0 -0.00541,0.0045 -0.00331,0.0099 0.0021,0.0055 6.063e-4,0.0099 -0.00331,0.0099 -0.00392,0 -0.00541,0.0045 -0.00331,0.0099 0.0021,0.0055 7.244e-4,0.0099 -0.00305,0.0099 -0.00398,0 -0.00499,0.0059 -0.00239,0.01407 0.00321,0.0101 0.0022,0.01267 -0.00357,0.0091 -0.00577,-0.0036 -0.00678,-0.001 -0.00357,0.0091 0.00276,0.0087 0.0016,0.01407 -0.00305,0.01407 -0.0045,0 -0.00583,0.0053 -0.00331,0.01324 0.00252,0.0079 0.00119,0.01324 -0.00331,0.01324 -0.00465,0 -0.00581,0.0054 -0.00305,0.01407 0.00321,0.0101 0.0022,0.01267 -0.00357,0.0091 -0.006,-0.0037 -0.00684,4.79e-4 -0.00331,0.01655 0.00353,0.01607 0.00269,0.02026 -0.00331,0.01655 -0.00597,-0.0037 -0.00687,3.47e-4 -0.00349,0.01572 0.00305,0.01389 0.00202,0.02069 -0.00313,0.02069 -0.00508,0 -0.0062,0.0067 -0.00331,0.01986 0.00283,0.01288 0.00175,0.01986 -0.00308,0.01986 -0.00492,0 -0.00597,0.0078 -0.0031,0.02317 0.00287,0.01531 0.00182,0.02317 -0.00309,0.02317 -0.00493,0 -0.00605,0.0087 -0.00333,0.02565 0.0025,0.01563 0.0013,0.02738 -0.00307,0.03008 -0.0044,0.0027 -0.00565,0.0155 -0.00324,0.03306 0.00253,0.01848 0.00121,0.03031 -0.00374,0.03337 -0.00523,0.0032 -0.00629,0.01692 -0.00333,0.04305 0.00297,0.02625 0.0019,0.03981 -0.00339,0.04308 -0.0054,0.0033 -0.00637,0.01843 -0.00324,0.05021 0.00246,0.02499 0.00201,0.05079 -0.00102,0.05733 -0.00302,0.0065 -0.00616,0.05062 -0.00696,0.09796 -8.093e-4,0.04734 -0.00312,0.136719 -0.00513,0.198623 -0.00781,0.240031 -0.010864,0.431514 -0.00991,0.621589 7.262e-4,0.14484 -9.995e-4,0.196629 -0.00644,0.193267 -0.00534,-0.0033 -0.00743,0.01768 -0.00743,0.07442 l 0,0.07901 -0.02069,0.0041 c -0.027778,0.0056 -0.030775,0.0053 -0.035923,-0.003 z"
     id="path3459"
     inkscape:connector-curvature="0" /><path
     style="opacity:0.66000001;fill:#000000;fill-opacity:1;stroke:none;stroke-width:1;stroke-miterlimit:4;stroke-dasharray:none;stroke-opacity:1"
     d="m 2.7312683,14.29217 c 0.077701,-0.06179 0.2114187,-0.142012 0.3277278,-0.196615 0.056999,-0.02676 0.2122024,-0.08786 0.2231729,-0.08786 0.00288,0 0.00523,0.0067 0.00522,0.0149 -2.05e-5,0.01258 -0.00903,0.01842 -0.057932,0.03755 -0.1252005,0.04898 -0.30011,0.145083 -0.3939288,0.216433 -0.035772,0.02721 -0.040825,0.02904 -0.079506,0.0289 l -0.041306,-1.47e-4 0.016552,-0.01316 z"
     id="path3461"
     inkscape:connector-curvature="0" /><path
     style="opacity:0.66000001;fill:#000000;fill-opacity:1;stroke:none;stroke-width:1;stroke-miterlimit:4;stroke-dasharray:none;stroke-opacity:1"
     d="m 2.0148425,20.133554 c -0.00342,-1.534853 0.00488,-3.78418 0.014761,-4.000596 0.022766,-0.498554 0.1078733,-0.929108 0.2440753,-1.234772 l 0.026552,-0.05959 0.9421479,-7.16e-4 c 0.5514799,-4.19e-4 0.907831,0.0016 0.8593883,0.0048 -0.1872428,0.01239 -0.3675955,0.04779 -0.521396,0.102351 -0.045475,0.01613 -0.085935,0.02933 -0.089913,0.02933 -0.00398,0 0.00308,-0.0092 0.01569,-0.02034 0.012608,-0.01119 -0.026236,0.01629 -0.08632,0.06107 -0.1660442,0.123746 -0.2215876,0.185375 -0.2817953,0.312669 -0.090819,0.192014 -0.1267251,0.486705 -0.148533,1.219032 -0.0069,0.231804 -0.00735,0.589301 -6.821e-4,0.540107 0.00224,-0.01651 0.00806,-0.03063 0.013347,-0.03237 0.00807,-0.0027 0.00876,0.113954 0.00497,0.837012 -0.00242,0.462055 -0.00441,1.295195 -0.00441,1.851422 l -2.9e-6,1.011321 -0.4932468,0 -0.4932468,0 -0.00138,-0.620696 z m 0.039229,-0.734905 c -0.00152,-0.01001 -0.00276,-0.0018 -0.00276,0.01821 0,0.02003 0.00124,0.02822 0.00276,0.01821 0.00152,-0.01001 0.00152,-0.0264 0,-0.03641 z m 0.026667,-2.452993 c -0.00123,-0.03004 -0.00223,-0.0055 -0.00223,0.05462 0,0.06008 0.001,0.08466 0.00223,0.05462 0.00123,-0.03004 0.00123,-0.0792 0,-0.109243 z m 0.013154,-0.642413 c -0.00139,-0.01537 -0.00251,-0.0011 -0.00249,0.03165 1.99e-5,0.03277 0.00116,0.04535 0.00252,0.02794 0.00137,-0.01741 0.00135,-0.04422 -3.64e-5,-0.05959 l -3e-7,0 z m 0.013227,-0.466564 c -0.00143,-0.01366 -0.0026,-0.0025 -0.0026,0.02483 0,0.02731 0.00117,0.03848 0.0026,0.02483 0.00143,-0.01365 0.00143,-0.036 0,-0.04965 z m 0.00647,-0.148967 c -0.00158,-0.0082 -0.00287,-0.0015 -0.00287,0.0149 0,0.01639 0.00129,0.02309 0.00287,0.0149 0.00158,-0.0082 0.00158,-0.0216 0,-0.02979 z m 0.00651,-0.08938 c -0.00167,-0.0064 -0.00303,-0.0012 -0.00303,0.01159 0,0.01274 0.00136,0.01796 0.00303,0.01159 0.00167,-0.0064 0.00167,-0.0168 0,-0.02317 z m 0.00644,-0.06952 c -0.00184,-0.0046 -0.00334,-8.27e-4 -0.00334,0.0083 0,0.0091 0.0015,0.01283 0.00334,0.0083 0.00184,-0.0046 0.00184,-0.012 0,-0.01655 z m 0.00662,-0.05959 c -0.00184,-0.0046 -0.00334,-8.27e-4 -0.00334,0.0083 0,0.0091 0.0015,0.01283 0.00334,0.0083 0.00184,-0.0046 0.00184,-0.012 0,-0.01655 z m 0.00662,-0.04635 c -0.00184,-0.0046 -0.00334,-8.28e-4 -0.00334,0.0083 0,0.0091 0.0015,0.01283 0.00334,0.0083 0.00184,-0.0046 0.00184,-0.012 0,-0.01655 z m 0.00676,-0.03931 c -0.00211,-0.0053 -0.00368,-0.0037 -0.004,0.004 -2.874e-4,0.007 0.00128,0.01089 0.00348,0.0087 0.0022,-0.0022 0.00244,-0.0079 5.227e-4,-0.01269 z m 0.00648,-0.04014 c -0.00184,-0.0046 -0.00334,-8.28e-4 -0.00334,0.0083 0,0.0091 0.0015,0.01283 0.00334,0.0083 0.00184,-0.0046 0.00184,-0.012 0,-0.01655 z m 0.00662,-0.0331 c -0.00184,-0.0046 -0.00334,-8.28e-4 -0.00334,0.0083 0,0.0091 0.0015,0.01283 0.00334,0.0083 0.00184,-0.0046 0.00184,-0.012 0,-0.01655 z m 0.1013446,-0.279727 c 0,-0.0036 -0.00289,-0.0022 -0.00642,0.0033 -0.00353,0.0055 -0.00642,0.01291 -0.00642,0.01655 0,0.0036 0.00289,0.0022 0.00642,-0.0033 0.00353,-0.0055 0.00642,-0.01291 0.00642,-0.01655 z m 0.04595,-0.09931 c 0,-0.0036 -0.00718,0.0068 -0.015954,0.02317 -0.00877,0.01639 -0.015953,0.03277 -0.015953,0.03641 0,0.0036 0.00718,-0.0068 0.015953,-0.02317 0.00877,-0.01639 0.015954,-0.03277 0.015954,-0.03641 z m 1.2395255,-0.0083 c 0.00824,-0.0105 0.008,-0.01073 -0.0025,-0.0025 -0.00637,0.005 -0.011586,0.01021 -0.011586,0.01159 0,0.0054 0.00544,0.0019 0.014086,-0.0091 z m 0.026483,-0.01986 c 0.00824,-0.0105 0.008,-0.01073 -0.0025,-0.0025 -0.011029,0.0086 -0.014536,0.01409 -0.00909,0.01409 0.00137,0 0.00659,-0.0052 0.011586,-0.01159 z m 0.026483,-0.01986 c 0.00824,-0.0105 0.008,-0.01074 -0.0025,-0.0025 -0.011029,0.0086 -0.014536,0.01409 -0.00909,0.01409 0.00137,0 0.00659,-0.0052 0.011586,-0.01159 z m 0.076811,-0.03876 c -0.0022,-0.0022 -0.00791,-0.0024 -0.01269,-5.23e-4 -0.00528,0.0021 -0.00371,0.0037 0.004,0.004 0.00698,2.88e-4 0.01089,-0.0013 0.00869,-0.0035 z"
     id="path3463"
     inkscape:connector-curvature="0" /><path
     style="opacity:0.66000001;fill:#000000;fill-opacity:1;stroke:none;stroke-width:1;stroke-miterlimit:4;stroke-dasharray:none;stroke-opacity:1"
     d="m 2.0152631,20.133554 c -0.0028,-1.80534 0.0042,-3.743315 0.014411,-3.987355 0.02074,-0.495879 0.1032865,-0.924657 0.2371428,-1.231815 l 0.033026,-0.07578 0.939031,-7.09e-4 c 0.516467,-3.89e-4 0.9062582,0.0016 0.8662026,0.0044 -0.187359,0.01322 -0.3479952,0.04378 -0.5020752,0.09551 -0.059776,0.02007 -0.1109118,0.03649 -0.1136354,0.03649 -0.00272,0 -8.631e-4,-0.0051 0.00413,-0.01131 0.017511,-0.0218 -0.1828281,0.134187 -0.2207977,0.17192 -0.2025931,0.20133 -0.2546777,0.462209 -0.2831942,1.418446 -0.00708,0.237386 -0.00763,0.554745 -9.025e-4,0.523416 0.0023,-0.01072 0.00716,-0.01891 0.010803,-0.01821 0.00716,0.0014 0.00771,0.271414 0.00495,2.421168 l -0.00164,1.274497 -0.4932468,0 -0.4932468,0 -9.629e-4,-0.620696 z m 0.038739,-0.724974 c -0.00158,-0.0082 -0.00287,-0.0015 -0.00287,0.0149 0,0.01639 0.00129,0.02309 0.00287,0.0149 0.00158,-0.0082 0.00158,-0.0216 0,-0.02979 z m 0.026703,-2.439751 c -0.00131,-0.02094 -0.00239,-0.0038 -0.00239,0.03807 0,0.04188 0.00108,0.05901 0.00239,0.03807 0.00131,-0.02094 0.00131,-0.0552 0,-0.07614 z m 0.026154,-1.118909 c -0.00167,-0.0064 -0.00303,-0.0012 -0.00303,0.01159 0,0.01275 0.00136,0.01796 0.00303,0.01159 0.00167,-0.0064 0.00167,-0.0168 0,-0.02317 z m 0.00644,-0.155588 c -0.00184,-0.0046 -0.00334,-8.27e-4 -0.00334,0.0083 0,0.0091 0.0015,0.01283 0.00334,0.0083 0.00184,-0.0046 0.00184,-0.012 0,-0.01655 z m 0.00662,-0.09269 c -0.00184,-0.0046 -0.00334,-8.28e-4 -0.00334,0.0083 0,0.0091 0.0015,0.01283 0.00334,0.0083 0.00184,-0.0046 0.00184,-0.012 0,-0.01655 z m 0.026621,-0.218072 c -0.00211,-0.0053 -0.00368,-0.0037 -0.004,0.004 -2.874e-4,0.007 0.00128,0.01089 0.00348,0.0087 0.0022,-0.0022 0.00244,-0.0079 5.227e-4,-0.01269 z m 0.1144482,-0.352969 c 0,-0.0036 -0.00289,-0.0022 -0.00642,0.0033 -0.00353,0.0055 -0.00642,0.01291 -0.00642,0.01655 0,0.0036 0.00289,0.0022 0.00642,-0.0033 0.00353,-0.0055 0.00642,-0.01291 0.00642,-0.01655 z m 0.030314,-0.06351 c 0.00582,-0.01126 0.00941,-0.02165 0.00798,-0.02309 -0.00144,-0.0014 -0.00757,0.0078 -0.013623,0.02048 -0.013616,0.02855 -0.0089,0.03074 0.00565,0.0026 z m 1.2551609,-0.04408 c 0.00824,-0.0105 0.008,-0.01073 -0.0025,-0.0025 -0.00637,0.005 -0.011586,0.01021 -0.011586,0.01159 0,0.0054 0.00544,0.0019 0.014086,-0.0091 z m 0.026483,-0.01986 c 0.00824,-0.0105 0.008,-0.01073 -0.0025,-0.0025 -0.011029,0.0086 -0.014536,0.01409 -0.00909,0.01409 0.00137,0 0.00659,-0.0052 0.011586,-0.01159 z"
     id="path3465"
     inkscape:connector-curvature="0" /><path
     style="opacity:0.66000001;fill:#000000;fill-opacity:1;stroke:none;stroke-width:1;stroke-miterlimit:4;stroke-dasharray:none;stroke-opacity:1"
     d="m 2.0182878,18.518088 c 0.00229,-1.454049 0.00602,-2.287108 0.010666,-2.38182 0.025008,-0.509961 0.1059229,-0.920074 0.2442729,-1.238082 l 0.025923,-0.05959 0.9360669,-4.74e-4 c 0.5148368,-2.6e-4 0.9211701,4.81e-4 0.902963,0.0016 -0.2184365,0.01399 -0.4077873,0.05078 -0.57799,0.112297 -0.067432,0.02437 -0.077436,0.02637 -0.069914,0.01398 0.012697,-0.02092 -0.1767931,0.12939 -0.2268973,0.179985 -0.1602295,0.161799 -0.2216838,0.386351 -0.2537892,0.927338 -0.019897,0.335275 -0.033678,1.024836 -0.019848,0.993114 0.00626,-0.01435 0.00803,-0.0151 0.013342,-0.0057 0.00374,0.0066 0.00444,0.727405 0.00178,1.852159 l -0.00434,1.841276 -0.492879,0 -0.4928791,0 0.00352,-2.236162 z m 0.035427,0.897113 c -0.00184,-0.0046 -0.00334,-8.28e-4 -0.00334,0.0083 0,0.0091 0.0015,0.01283 0.00334,0.0083 0.00184,-0.0046 0.00184,-0.012 0,-0.01655 z m 0.026954,-2.429645 c -0.0014,-0.01557 -0.00256,-0.0045 -0.00259,0.02465 -2.39e-5,0.02913 0.00112,0.04187 0.00254,0.02831 0.00142,-0.01356 0.00144,-0.03739 4.37e-5,-0.05297 z m 0.1792464,-1.95513 c -0.00204,-0.002 -0.00574,0.0016 -0.00823,0.0082 -0.00359,0.0094 -0.00283,0.0102 0.00371,0.0037 0.00452,-0.0045 0.00656,-0.0098 0.00452,-0.01187 z m 0.040534,-0.0859 c 0,-0.0036 -0.00426,8.27e-4 -0.00946,0.0099 -0.0052,0.0091 -0.00946,0.01953 -0.00946,0.02317 0,0.0036 0.00426,-8.28e-4 0.00946,-0.0099 0.0052,-0.0091 0.00946,-0.01953 0.00946,-0.02317 z"
     id="path3467"
     inkscape:connector-curvature="0" /></svg>