<?xml version="1.0" encoding="UTF-8" standalone="no"?>
<!-- Generator: Adobe Illustrator 16.0.3, SVG Export Plug-In . SVG Version: 6.00 Build 0)  -->

<svg
   xmlns:dc="http://purl.org/dc/elements/1.1/"
   xmlns:cc="http://creativecommons.org/ns#"
   xmlns:rdf="http://www.w3.org/1999/02/22-rdf-syntax-ns#"
   xmlns:svg="http://www.w3.org/2000/svg"
   xmlns="http://www.w3.org/2000/svg"
   xmlns:sodipodi="http://sodipodi.sourceforge.net/DTD/sodipodi-0.dtd"
   xmlns:inkscape="http://www.inkscape.org/namespaces/inkscape"
   version="1.1"
   id="Ebene_1"
   x="0px"
   y="0px"
   width="50"
   height="50"
   viewBox="0 0 50 50"
   enable-background="new 0 0 50 50"
   xml:space="preserve"
   inkscape:version="0.91 r13725"
   sodipodi:docname="mp-hover.svg"><metadata
     id="metadata9"><rdf:RDF><cc:Work
         rdf:about=""><dc:format>image/svg+xml</dc:format><dc:type
           rdf:resource="http://purl.org/dc/dcmitype/StillImage" /><dc:title></dc:title></cc:Work></rdf:RDF></metadata><defs
     id="defs7" /><sodipodi:namedview
     pagecolor="#ffffff"
     bordercolor="#666666"
     borderopacity="1"
     objecttolerance="10"
     gridtolerance="10"
     guidetolerance="10"
     inkscape:pageopacity="0"
     inkscape:pageshadow="2"
     inkscape:window-width="1331"
     inkscape:window-height="703"
     id="namedview5"
     showgrid="false"
     fit-margin-top="0"
     fit-margin-left="0"
     fit-margin-right="0"
     fit-margin-bottom="0"
     inkscape:zoom="4.72"
     inkscape:cx="-5.8423578"
     inkscape:cy="19.904863"
     inkscape:window-x="0"
     inkscape:window-y="46"
     inkscape:window-maximized="0"
     inkscape:current-layer="Ebene_1" /><path
     stroke-miterlimit="3"
     d="m 18.956088,25.380759 c 0,1.796 0.013,3.53 -0.004,5.265 -0.013,1.414 0.438,2.715 0.962,3.99 0.714,1.738 1.468,3.46 2.208,5.188 0.053,0.123 0.128,0.24 0.277,0.349 0.071,-0.751 0.144,-1.502 0.211,-2.253 0.074,-0.814 0.055,-1.652 0.243,-2.439 0.176,-0.736 0.534,-1.441 0.883,-2.125 0.184,-0.361 0.165,-0.541 -0.144,-0.816 -1.037,-0.912 -1.022,-0.928 -0.1,-1.959 0.295,-0.328 0.592,-0.657 0.923,-1.025 -0.48,-0.443 -0.938,-0.871 -1.4,-1.293 -0.878,-0.804 -1.748,-1.619 -2.646,-2.4 -0.416,-0.36 -0.52,-0.775 -0.468,-1.299 0.201,-2.024 0.206,-4.042 -0.331,-6.062 -0.596,0.158 -0.831,-0.247 -0.932,-0.711 -0.168,-0.781 -0.308,-1.573 -0.382,-2.367 -0.047,-0.508 0.089,-0.599 0.507,-0.621 0,-1.278 -0.077,-2.56 0.021,-3.83 0.101,-1.2939998 0.642,-2.4789998 1.681,-3.2829998 0.83,-0.644 1.786,-1.137 2.722,-1.6290001 1.182,-0.622 2.417,-0.622 3.601,-0.002 0.924,0.4830001 1.862,0.9730001 2.688,1.5980001 1.063,0.807 1.612,2 1.72,3.3079998 0.104,1.269 0.021,2.551 0.021,3.861 0.42,-0.086 0.503,0.179 0.517,0.488 0.038,0.916 -0.125,1.801 -0.444,2.656 -0.146,0.386 -0.371,0.693 -0.867,0.505 -0.545,2 -0.514,4.007 -0.344,6.015 0.047,0.572 -0.056,1.02 -0.506,1.418 -1.271,1.119 -2.512,2.272 -3.763,3.414 -0.072,0.065 -0.135,0.144 -0.23,0.244 0.514,0.572 1.005,1.146 1.532,1.689 0.23,0.238 0.195,0.393 -0.014,0.602 -0.344,0.344 -0.671,0.707 -1.042,1.102 0.178,0.334 0.364,0.734 0.597,1.109 0.482,0.777 0.539,1.647 0.608,2.522 0.089,1.132 0.194,2.261 0.296,3.39 0.006,0.068 0.023,0.135 0.064,0.34 0.324,-0.703 0.621,-1.281 0.862,-1.883 0.769,-1.916 1.562,-3.826 2.245,-5.773 0.251,-0.713 0.294,-1.521 0.314,-2.288 0.045,-1.646 0.014,-3.294 0.014,-4.968 0.326,0.224 0.666,0.485 1.031,0.694 0.408,0.233 0.826,0.474 1.269,0.613 2.354,0.744 4.716,1.457 7.076,2.176 0.26,0.078 0.528,0.127 0.797,0.175 1.282,0.215 2.153,0.959 2.571,2.156 0.976,2.797 1.689,5.664 2.16,8.592 0.057,0.342 -0.137,0.409 -0.371,0.506 -3.309,1.352 -6.729,2.313 -10.23,2.998 -3.845,0.75 -7.723,1.186 -11.645,1.059 -3.887,-0.124 -7.72,-0.678 -11.501,-1.582 -2.6419998,-0.633 -5.2309998,-1.424 -7.7529997,-2.439 -0.377,-0.152 -0.472,-0.313 -0.406,-0.725 0.451,-2.828 1.1699999,-5.588 2.0809999,-8.297 0.441,-1.311 1.379,-2.014 2.749,-2.305 1.3289998,-0.279 2.6219998,-0.736 3.9269998,-1.129 1.346,-0.404 2.707,-0.773 4.025,-1.259 0.646,-0.235 1.211,-0.694 1.811,-1.055 0.098,-0.06 0.189,-0.126 0.309,-0.205 z"
     id="path3"
     inkscape:connector-curvature="0"
     style="fill:none;stroke:#ffffff;stroke-linejoin:round;stroke-miterlimit:3" /></svg>