<?xml version="1.0" encoding="UTF-8" standalone="no"?>
<svg
   xmlns:dc="http://purl.org/dc/elements/1.1/"
   xmlns:cc="http://creativecommons.org/ns#"
   xmlns:rdf="http://www.w3.org/1999/02/22-rdf-syntax-ns#"
   xmlns:svg="http://www.w3.org/2000/svg"
   xmlns="http://www.w3.org/2000/svg"
   xmlns:sodipodi="http://sodipodi.sourceforge.net/DTD/sodipodi-0.dtd"
   xmlns:inkscape="http://www.inkscape.org/namespaces/inkscape"
   xml:space="preserve"
   enable-background="new 0 0 50 50"
   viewBox="0 0 50 50"
   height="50"
   width="50"
   y="0px"
   x="0px"
   id="Ebene_1"
   version="1.1"
   inkscape:version="0.91 r13725"
   sodipodi:docname="mp.svg"><sodipodi:namedview
     pagecolor="#ffffff"
     bordercolor="#666666"
     borderopacity="1"
     objecttolerance="10"
     gridtolerance="10"
     guidetolerance="10"
     inkscape:pageopacity="0"
     inkscape:pageshadow="2"
     inkscape:window-width="1269"
     inkscape:window-height="730"
     id="namedview6"
     showgrid="false"
     inkscape:zoom="5.4883721"
     inkscape:cx="21.5"
     inkscape:cy="21.5"
     inkscape:window-x="0"
     inkscape:window-y="23"
     inkscape:window-maximized="0"
     inkscape:current-layer="Ebene_1" /><metadata
     id="metadata9"><rdf:RDF><cc:Work
         rdf:about=""><dc:format>image/svg+xml</dc:format><dc:type
           rdf:resource="http://purl.org/dc/dcmitype/StillImage" /><dc:title></dc:title></cc:Work></rdf:RDF></metadata><defs
     id="defs7" /><path
     style="clip-rule:evenodd;fill:none;fill-rule:evenodd;stroke:#1c0e00;stroke-linejoin:round;stroke-miterlimit:3"
     id="path3"
     d="m 18.955041,25.383242 c 0,1.796 0.013,3.53 -0.004,5.265 -0.013,1.414 0.438,2.714 0.962,3.99 0.714,1.738 1.468,3.46 2.208,5.188 0.053,0.123 0.128,0.239 0.277,0.348 0.071,-0.751 0.144,-1.502 0.211,-2.253 0.074,-0.814 0.055,-1.652 0.243,-2.44 0.176,-0.736 0.534,-1.441 0.883,-2.125 0.184,-0.361 0.165,-0.541 -0.144,-0.815 -1.037,-0.913 -1.022,-0.929 -0.1,-1.959 0.295,-0.329 0.592,-0.658 0.924,-1.026 -0.481,-0.444 -0.939,-0.871 -1.401,-1.293 -0.878,-0.804 -1.748,-1.619 -2.646,-2.4 -0.416,-0.361 -0.52,-0.776 -0.468,-1.299 0.201,-2.024 0.206,-4.042 -0.331,-6.062 -0.596,0.158 -0.831,-0.247 -0.932,-0.711 -0.168,-0.781 -0.308,-1.573 -0.382,-2.367 -0.047,-0.508 0.089,-0.599 0.507,-0.621 0,-1.278 -0.077,-2.56 0.021,-3.830001 0.101,-1.2940002 0.642,-2.4790002 1.681,-3.2830002 0.83,-0.644 1.786,-1.137 2.722,-1.6289996 1.182,-0.622 2.417,-0.622 3.601,-0.002 0.923,0.4829996 1.862,0.9730006 2.688,1.5980006 1.064,0.807 1.613,2 1.72,3.3079992 0.103,1.269001 0.021,2.551001 0.021,3.861001 0.42,-0.086 0.503,0.179 0.517,0.488 0.038,0.916 -0.125,1.801 -0.445,2.656 -0.146,0.386 -0.37,0.693 -0.867,0.505 -0.544,2 -0.513,4.007 -0.344,6.014 0.047,0.573 -0.055,1.02 -0.506,1.418 -1.27,1.119 -2.511,2.273 -3.762,3.414 -0.072,0.066 -0.135,0.144 -0.231,0.245 0.514,0.572 1.006,1.146 1.533,1.689 0.23,0.238 0.195,0.392 -0.014,0.602 -0.344,0.343 -0.671,0.706 -1.042,1.101 0.178,0.334 0.364,0.735 0.597,1.109 0.482,0.778 0.539,1.648 0.608,2.523 0.089,1.132 0.195,2.261 0.296,3.39 0.006,0.068 0.024,0.134 0.065,0.339 0.324,-0.703 0.621,-1.281 0.862,-1.883 0.769,-1.916 1.561,-3.826 2.245,-5.772 0.251,-0.714 0.294,-1.521 0.315,-2.289 0.044,-1.646 0.013,-3.293 0.013,-4.967 0.327,0.223 0.666,0.485 1.032,0.694 0.408,0.233 0.825,0.474 1.268,0.613 2.354,0.744 4.716,1.457 7.076,2.176 0.26,0.078 0.529,0.127 0.797,0.174 1.282,0.215 2.153,0.959 2.571,2.157 0.976,2.797 1.689,5.664 2.16,8.591 0.057,0.342 -0.136,0.41 -0.371,0.507 -3.308,1.351 -6.729,2.313 -10.23,2.997 -3.845,0.751 -7.723,1.186 -11.645,1.059 -3.887,-0.124 -7.72,-0.677 -11.501,-1.582 -2.6420004,-0.632 -5.2310004,-1.423 -7.7530004,-2.439 -0.377,-0.153 -0.472,-0.313 -0.406,-0.725 0.451,-2.828 1.17,-5.588 2.081,-8.297 0.441,-1.311 1.379,-2.014 2.749,-2.304 1.3290004,-0.28 2.6220004,-0.737 3.9270004,-1.129 1.346,-0.404 2.707,-0.774 4.025,-1.259 0.646,-0.236 1.211,-0.694 1.811,-1.055 0.097,-0.058 0.188,-0.124 0.308,-0.203 z"
     stroke-miterlimit="3"
     inkscape:connector-curvature="0" /></svg>