<?xml version="1.0" encoding="utf-8"?>
<!-- Generator: Adobe Illustrator 16.0.3, SVG Export Plug-In . SVG Version: 6.00 Build 0)  -->
<!DOCTYPE svg PUBLIC "-//W3C//DTD SVG 1.1//EN" "http://www.w3.org/Graphics/SVG/1.1/DTD/svg11.dtd">
<svg version="1.1" id="Ebene_1" xmlns="http://www.w3.org/2000/svg" xmlns:xlink="http://www.w3.org/1999/xlink" x="0px" y="0px"
	 width="50px" height="50px" viewBox="0 0 50 50" enable-background="new 0 0 50 50" xml:space="preserve">
<path fill-rule="evenodd" clip-rule="evenodd" fill="none" stroke="#1C0E00" stroke-linejoin="round" stroke-miterlimit="3" d="
	M18.311,23.79c0,1.796,0.013,3.53-0.004,5.265c-0.013,1.414,0.438,2.714,0.962,3.99c0.714,1.738,1.468,3.46,2.208,5.188
	c0.053,0.123,0.128,0.239,0.277,0.348c0.071-0.751,0.144-1.502,0.211-2.253c0.074-0.814,0.055-1.652,0.243-2.44
	c0.176-0.736,0.534-1.441,0.883-2.125c0.184-0.361,0.165-0.541-0.144-0.815c-1.037-0.913-1.022-0.929-0.1-1.959
	c0.295-0.329,0.592-0.658,0.924-1.026c-0.481-0.444-0.939-0.871-1.401-1.293c-0.878-0.804-1.748-1.619-2.646-2.4
	c-0.416-0.361-0.52-0.776-0.468-1.299c0.201-2.024,0.206-4.042-0.331-6.062c-0.596,0.158-0.831-0.247-0.932-0.711
	c-0.168-0.781-0.308-1.573-0.382-2.367c-0.047-0.508,0.089-0.599,0.507-0.621c0-1.278-0.077-2.56,0.021-3.83
	c0.101-1.294,0.642-2.479,1.681-3.283c0.83-0.644,1.786-1.137,2.722-1.629c1.182-0.622,2.417-0.622,3.601-0.002
	c0.923,0.483,1.862,0.973,2.688,1.598c1.064,0.807,1.613,2,1.72,3.308c0.103,1.269,0.021,2.551,0.021,3.861
	c0.42-0.086,0.503,0.179,0.517,0.488c0.038,0.916-0.125,1.801-0.445,2.656c-0.146,0.386-0.37,0.693-0.867,0.505
	c-0.544,2-0.513,4.007-0.344,6.014c0.047,0.573-0.055,1.02-0.506,1.418c-1.27,1.119-2.511,2.273-3.762,3.414
	c-0.072,0.066-0.135,0.144-0.231,0.245c0.514,0.572,1.006,1.146,1.533,1.689c0.23,0.238,0.195,0.392-0.014,0.602
	c-0.344,0.343-0.671,0.706-1.042,1.101c0.178,0.334,0.364,0.735,0.597,1.109c0.482,0.778,0.539,1.648,0.608,2.523
	c0.089,1.132,0.195,2.261,0.296,3.39c0.006,0.068,0.024,0.134,0.065,0.339c0.324-0.703,0.621-1.281,0.862-1.883
	c0.769-1.916,1.561-3.826,2.245-5.772c0.251-0.714,0.294-1.521,0.315-2.289c0.044-1.646,0.013-3.293,0.013-4.967
	c0.327,0.223,0.666,0.485,1.032,0.694c0.408,0.233,0.825,0.474,1.268,0.613c2.354,0.744,4.716,1.457,7.076,2.176
	c0.26,0.078,0.529,0.127,0.797,0.174c1.282,0.215,2.153,0.959,2.571,2.157c0.976,2.797,1.689,5.664,2.16,8.591
	c0.057,0.342-0.136,0.41-0.371,0.507c-3.308,1.351-6.729,2.313-10.23,2.997c-3.845,0.751-7.723,1.186-11.645,1.059
	c-3.887-0.124-7.72-0.677-11.501-1.582c-2.642-0.632-5.231-1.423-7.753-2.439c-0.377-0.153-0.472-0.313-0.406-0.725
	c0.451-2.828,1.17-5.588,2.081-8.297c0.441-1.311,1.379-2.014,2.749-2.304c1.329-0.28,2.622-0.737,3.927-1.129
	c1.346-0.404,2.707-0.774,4.025-1.259c0.646-0.236,1.211-0.694,1.811-1.055C18.1,23.935,18.191,23.869,18.311,23.79z"/>
</svg>
