<?xml version="1.0" encoding="UTF-8" standalone="no"?>
<svg
   xmlns:dc="http://purl.org/dc/elements/1.1/"
   xmlns:cc="http://creativecommons.org/ns#"
   xmlns:rdf="http://www.w3.org/1999/02/22-rdf-syntax-ns#"
   xmlns:svg="http://www.w3.org/2000/svg"
   xmlns="http://www.w3.org/2000/svg"
   xml:space="preserve"
   enable-background="new 0 0 100 200"
   viewBox="0 0 100 200"
   height="200px"
   width="100px"
   y="0px"
   x="0px"
   id="Ebene_1"
   version="1.0"><metadata
     id="metadata25"><rdf:RDF><cc:Work
         rdf:about=""><dc:format>image/svg+xml</dc:format><dc:type
           rdf:resource="http://purl.org/dc/dcmitype/StillImage" /><dc:title></dc:title></cc:Work></rdf:RDF></metadata><defs
     id="defs23" /><g
     transform="matrix(1.3137199,0,0,1.3142898,-15.842855,-31.428979)"
     id="g3"><rect
       style="fill:none;stroke:#ffffff;stroke-miterlimit:10"
       id="rect5"
       height="69"
       width="50"
       stroke-miterlimit="10"
       y="65.5"
       x="25.5" /><path
       style="clip-rule:evenodd;fill:none;fill-rule:evenodd;stroke:#ffffff;stroke-miterlimit:10"
       id="path7"
       d="m 44.979,91.274 c 0,1.584 0.011,3.114 -0.003,4.644 -0.012,1.248 0.387,2.394 0.849,3.521 0.63,1.533 1.294,3.053 1.948,4.576 0.047,0.108 0.112,0.211 0.244,0.306 0.063,-0.664 0.126,-1.324 0.187,-1.985 0.065,-0.721 0.047,-1.46 0.213,-2.153 0.155,-0.651 0.471,-1.273 0.778,-1.875 0.163,-0.319 0.147,-0.478 -0.126,-0.721 -0.915,-0.806 -0.902,-0.819 -0.088,-1.729 0.261,-0.289 0.522,-0.578 0.815,-0.904 -0.425,-0.393 -0.828,-0.769 -1.235,-1.141 -0.776,-0.709 -1.542,-1.428 -2.335,-2.118 -0.366,-0.319 -0.458,-0.684 -0.412,-1.146 0.177,-1.785 0.181,-3.564 -0.292,-5.348 -0.526,0.141 -0.733,-0.218 -0.823,-0.626 -0.148,-0.688 -0.272,-1.387 -0.336,-2.089 -0.042,-0.447 0.078,-0.528 0.448,-0.546 0,-1.13 -0.069,-2.259 0.018,-3.379 0.088,-1.143 0.566,-2.188 1.483,-2.896 0.731,-0.567 1.574,-1.003 2.4,-1.437 1.042,-0.549 2.131,-0.549 3.175,-0.003 0.815,0.428 1.645,0.858 2.373,1.409 0.938,0.712 1.423,1.766 1.517,2.918 0.091,1.119 0.019,2.251 0.019,3.405 0.371,-0.075 0.444,0.159 0.455,0.432 0.035,0.808 -0.109,1.589 -0.393,2.344 -0.128,0.34 -0.325,0.61 -0.765,0.445 -0.479,1.765 -0.452,3.534 -0.304,5.304 0.042,0.508 -0.048,0.899 -0.445,1.251 -1.121,0.987 -2.215,2.006 -3.318,3.014 -0.064,0.058 -0.119,0.126 -0.204,0.216 0.453,0.505 0.888,1.01 1.353,1.489 0.203,0.211 0.173,0.345 -0.012,0.53 -0.303,0.303 -0.592,0.622 -0.92,0.971 0.156,0.294 0.322,0.649 0.527,0.98 0.426,0.686 0.477,1.452 0.535,2.224 0.08,0.998 0.174,1.994 0.262,2.991 0.005,0.06 0.021,0.116 0.058,0.298 0.286,-0.62 0.549,-1.129 0.761,-1.659 0.679,-1.691 1.376,-3.376 1.98,-5.093 0.221,-0.629 0.26,-1.343 0.278,-2.021 0.039,-1.45 0.011,-2.903 0.011,-4.379 0.29,0.195 0.588,0.427 0.912,0.61 0.359,0.207 0.727,0.418 1.117,0.542 2.077,0.656 4.16,1.285 6.242,1.919 0.229,0.068 0.467,0.112 0.703,0.153 1.131,0.19 1.899,0.847 2.268,1.903 0.861,2.467 1.49,4.996 1.906,7.578 0.049,0.301 -0.121,0.362 -0.328,0.447 -2.917,1.191 -5.937,2.041 -9.024,2.645 -3.392,0.661 -6.813,1.044 -10.272,0.934 -3.428,-0.109 -6.81,-0.599 -10.145,-1.397 -2.331,-0.556 -4.615,-1.256 -6.839,-2.15 -0.333,-0.136 -0.416,-0.277 -0.358,-0.641 0.398,-2.494 1.033,-4.928 1.836,-7.316 0.389,-1.157 1.216,-1.776 2.425,-2.034 1.173,-0.247 2.313,-0.649 3.465,-0.996 1.187,-0.355 2.388,-0.684 3.55,-1.108 0.569,-0.209 1.067,-0.612 1.598,-0.932 0.082,-0.048 0.163,-0.107 0.268,-0.177 z"
       stroke-miterlimit="10" /><line
       style="fill:none;stroke:#ffffff;stroke-miterlimit:10"
       id="line9"
       y2="112.5"
       x2="69"
       y1="112.5"
       x1="32"
       stroke-miterlimit="10" /><g
       id="g11"><path
         style="fill:#ffffff"
         id="path13"
         d="m 36.804,115.589 1.196,0 1.215,5.142 0.018,0 1.356,-5.142 1.206,0 1.319,5.142 0.019,0 1.253,-5.142 1.196,0 -1.855,6.726 -1.197,0 -1.348,-5.144 -0.018,0 -1.376,5.144 -1.214,0 -1.77,-6.726 z" /><path
         style="fill:#ffffff"
         id="path15"
         d="m 47.915,115.589 1.253,0 2.59,6.726 -1.262,0 -0.631,-1.781 -2.685,0 -0.631,1.781 -1.215,0 2.581,-6.726 z m -0.415,4.049 2.053,0 -1.007,-2.892 -0.029,0 -1.017,2.892 z" /><path
         style="fill:#ffffff"
         id="path17"
         d="m 52.367,115.589 1.178,0 0,2.674 3.062,0 0,-2.674 1.177,0 0,6.726 -1.177,0 0,-3.034 -3.062,0 0,3.034 -1.178,0 0,-6.726 z" /><path
         style="fill:#ffffff"
         id="path19"
         d="m 59.193,115.589 1.178,0 0,5.708 3.419,0 0,1.018 -4.597,0 0,-6.726 z" /></g></g></svg>