<?xml version="1.0" encoding="utf-8"?>
<!-- Generator: Adobe Illustrator 16.0.3, SVG Export Plug-In . SVG Version: 6.00 Build 0)  -->
<!DOCTYPE svg PUBLIC "-//W3C//DTD SVG 1.0//EN" "http://www.w3.org/TR/2001/REC-SVG-20010904/DTD/svg10.dtd">
<svg version="1.0" id="Ebene_1" xmlns="http://www.w3.org/2000/svg" xmlns:xlink="http://www.w3.org/1999/xlink" x="0px" y="0px"
	 width="100px" height="200px" viewBox="0 0 100 200" enable-background="new 0 0 100 200" xml:space="preserve">
<g>
	<rect x="17.5" y="54.5" fill="#FFFFFF" stroke="#000000" stroke-miterlimit="10" width="66" height="91"/>
	<path fill-rule="evenodd" clip-rule="evenodd" fill="none" stroke="#4E4B36" stroke-miterlimit="10" d="M43.249,88.541
		c0,2.08,0.015,4.09-0.004,6.099c-0.015,1.639,0.508,3.144,1.115,4.624c0.827,2.014,1.7,4.009,2.558,6.01
		c0.062,0.143,0.147,0.277,0.32,0.401c0.083-0.872,0.167-1.739,0.246-2.607c0.086-0.946,0.063-1.917,0.28-2.828
		c0.204-0.855,0.618-1.673,1.022-2.463c0.214-0.419,0.193-0.627-0.166-0.946c-1.201-1.058-1.185-1.076-0.116-2.27
		c0.342-0.38,0.686-0.759,1.07-1.188c-0.558-0.516-1.087-1.01-1.622-1.498c-1.019-0.931-2.025-1.875-3.067-2.782
		c-0.48-0.419-0.601-0.897-0.541-1.504c0.232-2.344,0.238-4.681-0.383-7.023c-0.691,0.185-0.963-0.286-1.081-0.822
		c-0.195-0.904-0.357-1.821-0.442-2.743c-0.055-0.587,0.103-0.694,0.588-0.717c0-1.484-0.091-2.967,0.024-4.438
		c0.116-1.5,0.743-2.873,1.947-3.804c0.96-0.745,2.067-1.317,3.153-1.887c1.368-0.721,2.799-0.721,4.169-0.004
		c1.071,0.562,2.16,1.127,3.116,1.851c1.232,0.935,1.869,2.319,1.992,3.833c0.119,1.47,0.024,2.956,0.024,4.472
		c0.487-0.099,0.583,0.209,0.598,0.567c0.046,1.061-0.144,2.086-0.516,3.078c-0.168,0.446-0.427,0.801-1.004,0.584
		c-0.63,2.318-0.595,4.642-0.399,6.966c0.056,0.667-0.063,1.181-0.585,1.643c-1.472,1.297-2.908,2.635-4.357,3.958
		c-0.084,0.076-0.157,0.166-0.269,0.284c0.595,0.663,1.166,1.326,1.776,1.956c0.267,0.277,0.227,0.453-0.016,0.697
		c-0.397,0.397-0.777,0.817-1.208,1.275c0.205,0.386,0.424,0.853,0.692,1.288c0.56,0.9,0.626,1.907,0.703,2.92
		c0.105,1.311,0.229,2.619,0.344,3.929c0.007,0.078,0.028,0.152,0.075,0.392c0.376-0.814,0.722-1.483,1-2.18
		c0.891-2.221,1.807-4.434,2.601-6.688c0.29-0.826,0.341-1.763,0.365-2.653c0.052-1.905,0.015-3.813,0.015-5.751
		c0.381,0.256,0.771,0.561,1.197,0.802c0.473,0.272,0.954,0.549,1.468,0.712c2.728,0.862,5.464,1.688,8.198,2.52
		c0.301,0.09,0.612,0.147,0.923,0.201c1.485,0.25,2.495,1.112,2.979,2.5c1.131,3.24,1.957,6.561,2.503,9.953
		c0.064,0.395-0.159,0.476-0.431,0.587c-3.831,1.564-7.797,2.681-11.852,3.474c-4.455,0.868-8.947,1.371-13.491,1.226
		c-4.502-0.144-8.944-0.786-13.324-1.835c-3.061-0.729-6.062-1.649-8.982-2.824c-0.437-0.179-0.545-0.364-0.47-0.842
		c0.522-3.275,1.356-6.471,2.411-9.608c0.511-1.52,1.597-2.333,3.185-2.671c1.54-0.325,3.038-0.853,4.55-1.309
		c1.558-0.467,3.136-0.897,4.663-1.456c0.748-0.274,1.402-0.804,2.098-1.224C43.005,88.71,43.111,88.631,43.249,88.541z"/>
	<line fill="none" stroke="#4E4B36" stroke-miterlimit="10" x1="26" y1="116.5" x2="75" y2="116.5"/>
	<g>
		<path fill="#4E4B36" d="M32.512,120.474h1.571l1.596,6.752h0.023l1.782-6.752h1.583l1.732,6.752h0.024l1.646-6.752h1.57
			l-2.437,8.832h-1.57l-1.77-6.755H38.24l-1.807,6.755h-1.595L32.512,120.474z"/>
		<path fill="#4E4B36" d="M47.104,120.474h1.646l3.402,8.832h-1.658l-0.829-2.339H46.14l-0.829,2.339h-1.596L47.104,120.474z
			 M46.56,125.791h2.696l-1.323-3.798h-0.038L46.56,125.791z"/>
		<path fill="#4E4B36" d="M52.952,120.474h1.547v3.511h4.021v-3.511h1.546v8.832H58.52v-3.984h-4.021v3.984h-1.547V120.474z"/>
		<path fill="#4E4B36" d="M61.917,120.474h1.547v7.496h4.49v1.336h-6.037V120.474z"/>
	</g>
</g>
</svg>
