<?xml version="1.0" encoding="utf-8"?>
<!-- Generator: Adobe Illustrator 16.0.3, SVG Export Plug-In . SVG Version: 6.00 Build 0)  -->
<!DOCTYPE svg PUBLIC "-//W3C//DTD SVG 1.1//EN" "http://www.w3.org/Graphics/SVG/1.1/DTD/svg11.dtd">
<svg version="1.1" id="Ebene_1" xmlns="http://www.w3.org/2000/svg" xmlns:xlink="http://www.w3.org/1999/xlink" x="0px" y="0px"
	 width="50px" height="50px" viewBox="0 0 50 50" enable-background="new 0 0 50 50" xml:space="preserve">
<path fill="#4E4B36" d="M31.329,28.784l-0.339,0.339l-3.253-3.252c2.195-2.501,3.406-5.665,3.406-9.022
	c0-3.663-1.426-7.106-4.016-9.695s-6.033-4.015-9.695-4.015S10.329,4.564,7.74,7.153c-2.59,2.589-4.017,6.032-4.017,9.695
	c0,3.662,1.426,7.105,4.017,9.694c2.589,2.59,6.031,4.016,9.693,4.016c3.428,0,6.654-1.264,9.178-3.547l3.245,3.245l-0.339,0.339
	l14.947,14.947l1.812-1.813L31.329,28.784z M17.433,28.955c-3.233,0-6.273-1.259-8.56-3.545c-2.288-2.287-3.547-5.327-3.547-8.562
	s1.26-6.274,3.547-8.562C11.16,6,14.199,4.742,17.433,4.742S23.708,6,25.994,8.287c2.287,2.287,3.547,5.327,3.547,8.562
	c0,3.233-1.26,6.274-3.547,8.561C23.708,27.695,20.667,28.955,17.433,28.955z"/>
</svg>
