<?xml version="1.0" encoding="utf-8"?>
<!-- Generator: Adobe Illustrator 16.0.3, SVG Export Plug-In . SVG Version: 6.00 Build 0)  -->
<!DOCTYPE svg PUBLIC "-//W3C//DTD SVG 1.1//EN" "http://www.w3.org/Graphics/SVG/1.1/DTD/svg11.dtd">
<svg version="1.1" id="Ebene_1" xmlns="http://www.w3.org/2000/svg" xmlns:xlink="http://www.w3.org/1999/xlink" x="0px" y="0px"
	 width="50px" height="50px" viewBox="0 0 50 50" enable-background="new 0 0 50 50" xml:space="preserve">
<g>
	<path fill-rule="evenodd" clip-rule="evenodd" fill="#323114" d="M-41.722,14.736c-5.72,0-10.356,4.637-10.356,10.356
		c0,5.097,3.68,9.327,8.527,10.192c0-2.338,0-4.676,0-7.014c0-0.164,0-0.164-0.163-0.164c-0.786,0-1.573,0-2.36,0
		c-0.152,0-0.152-0.002-0.152-0.15c0-0.92,0-1.84,0-2.759c0-0.153,0-0.153,0.15-0.153c0.787,0,1.574,0,2.361,0
		c0.164,0,0.164,0,0.164-0.164c0-0.736-0.009-1.474,0.005-2.211c0.006-0.324,0.038-0.65,0.095-0.971
		c0.129-0.723,0.426-1.371,0.942-1.902c0.621-0.639,1.396-0.965,2.269-1.053c0.441-0.045,0.891-0.04,1.336-0.029
		c0.525,0.014,1.049,0.059,1.574,0.086c0.091,0.004,0.112,0.045,0.112,0.128c-0.002,0.836-0.002,1.671,0,2.508
		c0,0.098-0.028,0.134-0.13,0.132c-0.369-0.004-0.74-0.004-1.111,0c-0.277,0.004-0.553,0.002-0.827,0.027
		c-0.574,0.053-0.938,0.379-1.036,0.916c-0.031,0.17-0.047,0.346-0.049,0.52c-0.006,0.611-0.002,1.225-0.002,1.836
		c0,0.178,0,0.178,0.175,0.178c0.908,0,1.816,0,2.724,0c0.137,0,0.149,0.017,0.134,0.141c-0.12,0.922-0.239,1.844-0.358,2.766
		c-0.021,0.152-0.022,0.156-0.176,0.156c-0.783,0-1.566,0.002-2.35-0.004c-0.114,0-0.152,0.034-0.15,0.148
		c0.006,0.439,0.002,0.879,0.002,1.316c0,1.932,0,3.86,0,5.791c5.082-0.662,9.008-5.006,9.008-10.267
		C-31.365,19.373-36.002,14.736-41.722,14.736z"/>
	<circle fill="none" stroke="#323114" stroke-miterlimit="10" cx="-41.722" cy="25.047" r="11.557"/>
</g>
<g>
	<path fill-rule="evenodd" clip-rule="evenodd" fill="#35341A" d="M24.943,14.726c-5.7,0-10.321,4.621-10.321,10.322
		c0,5.7,4.621,10.321,10.321,10.321c5.701,0,10.323-4.621,10.323-10.321C35.267,19.347,30.645,14.726,24.943,14.726z M31.373,22.175
		c0.008,0.126,0.009,0.249,0.009,0.374c0,3.815-2.904,8.217-8.214,8.217c-1.633,0-3.151-0.479-4.428-1.299
		c0.227,0.026,0.455,0.041,0.688,0.041c1.355,0,2.598-0.463,3.587-1.238c-1.262-0.021-2.328-0.86-2.696-2.005
		c0.177,0.032,0.356,0.053,0.544,0.053c0.263,0,0.734-0.036,0.976-0.101c-1.321-0.267-2.103-1.433-2.103-2.832
		c0-0.012,0-0.021,0-0.036c0,0.216,0.623,0.348,1.094,0.362c-0.774-0.518-1.392-1.401-1.392-2.402c0-0.529,0.088-1.025,0.337-1.451
		c1.423,1.748,3.524,2.898,5.924,3.018c-0.051-0.209-0.09-0.432-0.09-0.656c0-1.596,1.287-2.889,2.881-2.889
		c0.83,0,1.578,0.352,2.105,0.912c0.658-0.132,1.272-0.369,1.831-0.701c-0.214,0.672-0.673,1.24-1.27,1.598
		c0.581-0.07,1.136-0.224,1.651-0.451c0.003-0.002,0.004-0.004,0.005-0.007l0.002,0.005c-0.001,0-0.004,0.002-0.007,0.002
		C32.424,21.265,31.936,21.771,31.373,22.175z"/>
	<circle fill="none" stroke="#323114" stroke-miterlimit="10" cx="24.944" cy="25.047" r="11.557"/>
</g>
<g>
	<g>
		<g>
			<path fill-rule="evenodd" clip-rule="evenodd" fill="#35341A" d="M115.93,18.961c-3.148,0-5.711,2.563-5.711,5.711
				c0,1.252,0.404,2.407,1.087,3.352l-0.713,2.119l2.194-0.702c0.902,0.597,1.982,0.944,3.143,0.944c3.15,0,5.712-2.561,5.712-5.713
				C121.642,21.523,119.08,18.961,115.93,18.961z M119.263,27.028c-0.138,0.388-0.686,0.709-1.12,0.805
				c-0.3,0.065-0.689,0.115-2.002-0.429c-1.682-0.697-2.762-2.402-2.846-2.512c-0.082-0.113-0.68-0.904-0.68-1.726
				c0-0.819,0.417-1.217,0.583-1.39c0.138-0.139,0.364-0.203,0.583-0.203c0.07,0,0.133,0.002,0.19,0.008
				c0.171,0.004,0.256,0.014,0.364,0.282c0.139,0.333,0.473,1.151,0.514,1.233c0.043,0.084,0.08,0.199,0.024,0.312
				c-0.056,0.11-0.103,0.161-0.186,0.259s-0.162,0.17-0.247,0.275c-0.075,0.091-0.164,0.189-0.067,0.356
				c0.098,0.165,0.433,0.712,0.927,1.152c0.637,0.568,1.156,0.749,1.339,0.827c0.141,0.059,0.304,0.045,0.405-0.063
				c0.129-0.137,0.285-0.367,0.446-0.592c0.118-0.162,0.259-0.18,0.411-0.125c0.153,0.058,0.972,0.46,1.139,0.545
				c0.166,0.081,0.277,0.121,0.318,0.193C119.401,26.307,119.401,26.641,119.263,27.028z"/>
			<path fill-rule="evenodd" clip-rule="evenodd" fill="#35341A" d="M115.61,14.727c-5.701,0-10.322,4.62-10.322,10.321
				c0,5.7,4.621,10.321,10.322,10.321s10.321-4.621,10.321-10.321C125.932,19.347,121.312,14.727,115.61,14.727z M115.93,31.467
				c-1.191,0-2.311-0.307-3.283-0.848l-3.762,1.207l1.227-3.646c-0.619-1.024-0.976-2.226-0.976-3.509
				c0-3.751,3.042-6.791,6.794-6.791s6.794,3.04,6.794,6.791C122.724,28.426,119.682,31.467,115.93,31.467z"/>
		</g>
	</g>
	<circle fill="none" stroke="#323114" stroke-miterlimit="10" cx="115.61" cy="25.047" r="11.557"/>
</g>
<g>
	<g>
		<path fill-rule="evenodd" clip-rule="evenodd" fill="#35341A" d="M142.984,22.283c0-1.204-0.719-3.076-2.102-3.076
			c-0.436,0-0.901,0.217-1.17,0.553c-0.283,0.352-0.365,0.801-0.365,1.236c0,1.119,0.649,2.975,2.085,2.975
			c0.417,0,0.866-0.198,1.134-0.467C142.951,23.119,142.984,22.584,142.984,22.283z"/>
		<path fill-rule="evenodd" clip-rule="evenodd" fill="#35341A" d="M142.082,26.68c-0.132-0.016-0.216-0.016-0.383-0.016
			c-0.15,0-1.051,0.033-1.752,0.269c-0.367,0.132-1.434,0.534-1.434,1.721s1.15,2.04,2.936,2.04c1.602,0,2.453-0.771,2.453-1.805
			C143.902,28.033,143.352,27.583,142.082,26.68z"/>
		<path fill-rule="evenodd" clip-rule="evenodd" fill="#35341A" d="M143.275,14.663c-5.699,0-10.32,4.62-10.32,10.322
			c0,5.7,4.621,10.321,10.32,10.321c5.701,0,10.323-4.621,10.323-10.321C153.599,19.283,148.977,14.663,143.275,14.663z
			 M140.631,31.395c-2.419,0-3.586-1.152-3.586-2.391c0-0.602,0.299-1.453,1.283-2.039c1.035-0.635,2.437-0.719,3.188-0.77
			c-0.234-0.301-0.5-0.619-0.5-1.137c0-0.284,0.083-0.451,0.166-0.652c-0.185,0.018-0.367,0.033-0.533,0.033
			c-1.769,0-2.77-1.32-2.77-2.625c0-0.768,0.35-1.621,1.066-2.24c0.953-0.786,2.252-0.998,3.154-0.998h3.287l-1.086,0.681h-1.033
			c0.384,0.317,1.184,0.987,1.184,2.257c0,1.236-0.699,1.824-1.4,2.375c-0.217,0.217-0.468,0.451-0.468,0.819
			c0,0.367,0.251,0.567,0.434,0.72l0.602,0.467c0.733,0.618,1.401,1.187,1.401,2.342C145.02,29.808,143.5,31.395,140.631,31.395z
			 M149.508,24.781h-1.677v1.682h-0.825v-1.682h-1.669v-0.835h1.669v-1.673h0.825v1.673h1.677V24.781z"/>
	</g>
	<circle fill="none" stroke="#323114" stroke-miterlimit="10" cx="143.276" cy="25.047" r="11.557"/>
</g>
</svg>
