<?xml version="1.0" encoding="UTF-8" standalone="no"?>
<svg
   xmlns:dc="http://purl.org/dc/elements/1.1/"
   xmlns:cc="http://creativecommons.org/ns#"
   xmlns:rdf="http://www.w3.org/1999/02/22-rdf-syntax-ns#"
   xmlns:svg="http://www.w3.org/2000/svg"
   xmlns="http://www.w3.org/2000/svg"
   xml:space="preserve"
   enable-background="new 0 0 50 50"
   viewBox="0 0 24.114 24.114"
   height="24.114"
   width="24.114"
   y="0px"
   x="0px"
   id="Ebene_1"
   version="1.1"><metadata
     id="metadata43"><rdf:RDF><cc:Work
         rdf:about=""><dc:format>image/svg+xml</dc:format><dc:type
           rdf:resource="http://purl.org/dc/dcmitype/StillImage" /><dc:title></dc:title></cc:Work></rdf:RDF></metadata><defs
     id="defs41" /><g
     transform="translate(-12.887,-12.990001)"
     id="g9"><path
       style="clip-rule:evenodd;fill:#35341a;fill-rule:evenodd"
       id="path11"
       d="m 24.943,14.726 c -5.7,0 -10.321,4.621 -10.321,10.322 0,5.7 4.621,10.321 10.321,10.321 5.701,0 10.323,-4.621 10.323,-10.321 0.001,-5.701 -4.621,-10.322 -10.323,-10.322 z m 6.43,7.449 c 0.008,0.126 0.009,0.249 0.009,0.374 0,3.815 -2.904,8.217 -8.214,8.217 -1.633,0 -3.151,-0.479 -4.428,-1.299 0.227,0.026 0.455,0.041 0.688,0.041 1.355,0 2.598,-0.463 3.587,-1.238 -1.262,-0.021 -2.328,-0.86 -2.696,-2.005 0.177,0.032 0.356,0.053 0.544,0.053 0.263,0 0.734,-0.036 0.976,-0.101 -1.321,-0.267 -2.103,-1.433 -2.103,-2.832 0,-0.012 0,-0.021 0,-0.036 0,0.216 0.623,0.348 1.094,0.362 -0.774,-0.518 -1.392,-1.401 -1.392,-2.402 0,-0.529 0.088,-1.025 0.337,-1.451 1.423,1.748 3.524,2.898 5.924,3.018 -0.051,-0.209 -0.09,-0.432 -0.09,-0.656 0,-1.596 1.287,-2.889 2.881,-2.889 0.83,0 1.578,0.352 2.105,0.912 0.658,-0.132 1.272,-0.369 1.831,-0.701 -0.214,0.672 -0.673,1.24 -1.27,1.598 0.581,-0.07 1.136,-0.224 1.651,-0.451 0.003,-0.002 0.004,-0.004 0.005,-0.007 l 0.002,0.005 c -10e-4,0 -0.004,0.002 -0.007,0.002 -0.383,0.576 -0.871,1.082 -1.434,1.486 z" /><circle
       style="fill:none;stroke:#323114;stroke-miterlimit:10"
       id="circle13"
       r="11.557"
       cy="25.047001"
       cx="24.944"
       stroke-miterlimit="10" /></g></svg>