<?xml version="1.0" encoding="utf-8"?>
<!-- Generator: Adobe Illustrator 16.0.3, SVG Export Plug-In . SVG Version: 6.00 Build 0)  -->
<!DOCTYPE svg PUBLIC "-//W3C//DTD SVG 1.0//EN" "http://www.w3.org/TR/2001/REC-SVG-20010904/DTD/svg10.dtd">
<svg version="1.0" id="Ebene_1" xmlns="http://www.w3.org/2000/svg" xmlns:xlink="http://www.w3.org/1999/xlink" x="0px" y="0px"
	 width="100px" height="200px" viewBox="0 0 100 200" enable-background="new 0 0 100 200" xml:space="preserve">
<g>
	<g>
		<path fill-rule="evenodd" clip-rule="evenodd" fill="none" stroke="#FFFFFF" stroke-miterlimit="10" d="M56.883,81.788
			c-0.023,0.853-0.072,1.752-0.35,2.543c-0.762,2.163-1.641,4.279-2.494,6.407c-0.102,0.255-0.221,0.762-0.34,0.762h19.615
			c-0.521-3-1.262-5.912-2.259-8.775c-0.465-1.329-1.433-2.155-2.857-2.394c-0.298-0.05-0.597-0.105-0.885-0.191
			c-2.622-0.798-5.246-1.588-7.86-2.417c-0.492-0.153-0.955-0.422-1.41-0.679c-0.405-0.233-0.781-0.525-1.145-0.771
			C56.898,78.13,56.934,79.96,56.883,81.788z"/>
		<path fill-rule="evenodd" clip-rule="evenodd" fill="none" stroke="#FFFFFF" stroke-miterlimit="10" d="M44.136,68.6
			c0.597,2.244,0.59,4.487,0.368,6.735c-0.057,0.578,0.059,1.041,0.519,1.44c0.999,0.869,1.965,1.776,2.94,2.669
			c0.514,0.469,1.021,0.942,1.557,1.436c-0.369,0.409-0.7,0.773-1.027,1.14c-1.025,1.145-1.041,1.163,0.112,2.176
			c0.343,0.307,0.363,0.505,0.159,0.907c-0.388,0.759-0.785,1.543-0.98,2.36c-0.208,0.874-0.187,1.802-0.27,2.706
			c-0.04,0.445-0.083,1.331-0.125,1.331h5.538c-0.085-1-0.172-1.87-0.246-2.81c-0.077-0.973-0.141-1.936-0.676-2.804
			c-0.258-0.413-0.467-0.858-0.664-1.229c0.414-0.438,0.775-0.842,1.159-1.221c0.231-0.233,0.27-0.403,0.014-0.668
			c-0.584-0.604-1.13-1.242-1.703-1.877c0.108-0.113,0.177-0.198,0.258-0.271c1.391-1.27,2.768-2.552,4.178-3.794
			c0.502-0.444,0.613-0.939,0.563-1.575c-0.188-2.229-0.223-4.46,0.383-6.681c0.551,0.207,0.801-0.134,0.961-0.562
			c0.357-0.95,0.537-1.934,0.495-2.951c-0.015-0.343-0.107-0.638-0.572-0.541c0-1.457,0.089-2.88-0.024-4.291
			c-0.117-1.45-0.729-2.775-1.912-3.672c-0.917-0.695-1.96-1.238-2.984-1.776c-1.315-0.688-2.687-0.688-4,0.004
			c-1.039,0.545-2.102,1.095-3.024,1.809c-1.153,0.895-1.755,2.209-1.867,3.646c-0.107,1.41-0.022,2.836-0.022,4.255
			c-0.464,0.025-0.617,0.125-0.564,0.689c0.081,0.882,0.237,1.764,0.424,2.63C43.212,68.326,43.474,68.775,44.136,68.6z"/>
		<path fill-rule="evenodd" clip-rule="evenodd" fill="none" stroke="#FFFFFF" stroke-miterlimit="10" d="M46.636,91.5
			c-0.714-2-1.433-3.308-2.119-4.979c-0.582-1.416-1.083-2.858-1.067-4.428c0.017-1.928,0.004-3.853,0.004-5.848
			c-0.134,0.09-0.236,0.163-0.341,0.225c-0.667,0.4-1.294,0.907-2.011,1.171c-1.465,0.537-2.977,0.951-4.471,1.397
			c-1.451,0.438-2.888,0.944-4.363,1.256c-1.522,0.321-2.563,1.098-3.055,2.556c-0.952,2.827-1.704,5.65-2.208,8.65H46.636z"/>
	</g>
	<path fill="none" stroke="#FFFFFF" stroke-miterlimit="10" d="M26.5,103.5v36.297c7.197,3.529,15.287,5.518,23.843,5.518
		c7.896,0,15.391-1.701,22.157-4.735V103.5H26.5z"/>
	
		<rect x="13.5" y="91.5" fill-rule="evenodd" clip-rule="evenodd" fill="none" stroke="#FFFFFF" stroke-miterlimit="10" width="73" height="12"/>
</g>
<g>
	<g>
		<path fill-rule="evenodd" clip-rule="evenodd" fill="none" stroke="#000000" stroke-miterlimit="10" d="M164.883,81.788
			c-0.023,0.853-0.072,1.752-0.35,2.543c-0.762,2.163-1.641,4.279-2.494,6.407c-0.102,0.255-0.221,0.762-0.34,0.762h19.615
			c-0.521-3-1.262-5.912-2.259-8.775c-0.465-1.329-1.433-2.155-2.857-2.394c-0.298-0.05-0.597-0.105-0.885-0.191
			c-2.622-0.798-5.246-1.588-7.86-2.417c-0.492-0.153-0.955-0.422-1.41-0.679c-0.405-0.233-0.781-0.525-1.145-0.771
			C164.898,78.13,164.934,79.96,164.883,81.788z"/>
		<path fill-rule="evenodd" clip-rule="evenodd" fill="none" stroke="#000000" stroke-miterlimit="10" d="M152.136,68.6
			c0.597,2.244,0.591,4.487,0.368,6.735c-0.057,0.578,0.059,1.041,0.519,1.44c0.999,0.869,1.965,1.776,2.94,2.669
			c0.514,0.469,1.021,0.942,1.557,1.436c-0.369,0.409-0.699,0.773-1.027,1.14c-1.024,1.145-1.041,1.163,0.112,2.176
			c0.343,0.307,0.363,0.505,0.159,0.907c-0.389,0.759-0.785,1.543-0.98,2.36c-0.209,0.874-0.188,1.802-0.271,2.706
			c-0.04,0.445-0.083,1.331-0.124,1.331h5.537c-0.085-1-0.172-1.87-0.246-2.81c-0.077-0.973-0.141-1.936-0.676-2.804
			c-0.258-0.413-0.467-0.858-0.664-1.229c0.414-0.438,0.775-0.842,1.159-1.221c0.231-0.233,0.27-0.403,0.014-0.668
			c-0.584-0.604-1.13-1.242-1.702-1.877c0.107-0.113,0.176-0.198,0.258-0.271c1.391-1.27,2.768-2.552,4.178-3.794
			c0.502-0.444,0.613-0.939,0.563-1.575c-0.188-2.229-0.223-4.46,0.383-6.681c0.551,0.207,0.801-0.134,0.961-0.562
			c0.357-0.95,0.537-1.934,0.495-2.951c-0.015-0.343-0.107-0.638-0.572-0.541c0-1.457,0.089-2.88-0.024-4.291
			c-0.117-1.45-0.729-2.775-1.912-3.672c-0.917-0.695-1.96-1.238-2.984-1.776c-1.315-0.688-2.688-0.688-4,0.004
			c-1.039,0.545-2.103,1.095-3.024,1.809c-1.153,0.895-1.755,2.209-1.866,3.646c-0.107,1.41-0.023,2.836-0.023,4.255
			c-0.464,0.025-0.616,0.125-0.563,0.689c0.081,0.882,0.237,1.764,0.425,2.63C151.212,68.326,151.475,68.775,152.136,68.6z"/>
		<path fill-rule="evenodd" clip-rule="evenodd" fill="none" stroke="#000000" stroke-miterlimit="10" d="M154.636,91.5
			c-0.714-2-1.433-3.308-2.118-4.979c-0.582-1.416-1.084-2.858-1.068-4.428c0.018-1.928,0.005-3.853,0.005-5.848
			c-0.134,0.09-0.235,0.163-0.341,0.225c-0.668,0.4-1.295,0.907-2.012,1.171c-1.465,0.537-2.977,0.951-4.471,1.397
			c-1.451,0.438-2.888,0.944-4.363,1.256c-1.521,0.321-2.563,1.098-3.055,2.556c-0.951,2.827-1.703,5.65-2.208,8.65H154.636z"/>
	</g>
	<path fill="none" stroke="#000000" stroke-miterlimit="10" d="M134.5,103.5v36.297c7.197,3.529,15.287,5.518,23.843,5.518
		c7.896,0,15.391-1.701,22.157-4.735V103.5H134.5z"/>
	
		<rect x="121.5" y="91.5" fill-rule="evenodd" clip-rule="evenodd" fill="none" stroke="#000000" stroke-miterlimit="10" width="73" height="12"/>
</g>
</svg>
