<?xml version="1.0" encoding="UTF-8" standalone="no"?>
<svg
   xmlns:dc="http://purl.org/dc/elements/1.1/"
   xmlns:cc="http://creativecommons.org/ns#"
   xmlns:rdf="http://www.w3.org/1999/02/22-rdf-syntax-ns#"
   xmlns:svg="http://www.w3.org/2000/svg"
   xmlns="http://www.w3.org/2000/svg"
   xml:space="preserve"
   enable-background="new 0 0 50 50"
   viewBox="0 0 24.114 24.114"
   height="24.114"
   width="24.114"
   y="0px"
   x="0px"
   id="Ebene_1"
   version="1.1"><metadata
     id="metadata43"><rdf:RDF><cc:Work
         rdf:about=""><dc:format>image/svg+xml</dc:format><dc:type
           rdf:resource="http://purl.org/dc/dcmitype/StillImage" /><dc:title></dc:title></cc:Work></rdf:RDF></metadata><defs
     id="defs41" /><g
     transform="translate(-14.553,-12.990001)"
     id="g15"><g
       id="g17"><g
         id="g19"><path
           style="clip-rule:evenodd;fill:#35341a;fill-rule:evenodd"
           id="path21"
           d="m 26.93,18.961 c -3.148,0 -5.711,2.563 -5.711,5.711 0,1.252 0.404,2.407 1.087,3.352 l -0.713,2.119 2.194,-0.702 c 0.902,0.597 1.982,0.944 3.143,0.944 3.15,0 5.712,-2.561 5.712,-5.713 0,-3.149 -2.562,-5.711 -5.712,-5.711 z m 3.333,8.067 c -0.138,0.388 -0.686,0.709 -1.12,0.805 -0.3,0.065 -0.689,0.115 -2.002,-0.429 -1.682,-0.697 -2.762,-2.402 -2.846,-2.512 -0.082,-0.113 -0.68,-0.904 -0.68,-1.726 0,-0.819 0.417,-1.217 0.583,-1.39 0.138,-0.139 0.364,-0.203 0.583,-0.203 0.07,0 0.133,0.002 0.19,0.008 0.171,0.004 0.256,0.014 0.364,0.282 0.139,0.333 0.473,1.151 0.514,1.233 0.043,0.084 0.08,0.199 0.024,0.312 -0.056,0.11 -0.103,0.161 -0.186,0.259 -0.083,0.098 -0.162,0.17 -0.247,0.275 -0.075,0.091 -0.164,0.189 -0.067,0.356 0.098,0.165 0.433,0.712 0.927,1.152 0.637,0.568 1.156,0.749 1.339,0.827 0.141,0.059 0.304,0.045 0.405,-0.063 0.129,-0.137 0.285,-0.367 0.446,-0.592 0.118,-0.162 0.259,-0.18 0.411,-0.125 0.153,0.058 0.972,0.46 1.139,0.545 0.166,0.081 0.277,0.121 0.318,0.193 0.043,0.072 0.043,0.406 -0.095,0.793 z" /><path
           style="clip-rule:evenodd;fill:#35341a;fill-rule:evenodd"
           id="path23"
           d="m 26.61,14.727 c -5.701,0 -10.322,4.62 -10.322,10.321 0,5.7 4.621,10.321 10.322,10.321 5.701,0 10.321,-4.621 10.321,-10.321 C 36.932,19.347 32.312,14.727 26.61,14.727 Z m 0.32,16.74 c -1.191,0 -2.311,-0.307 -3.283,-0.848 l -3.762,1.207 1.227,-3.646 c -0.619,-1.024 -0.976,-2.226 -0.976,-3.509 0,-3.751 3.042,-6.791 6.794,-6.791 3.752,0 6.794,3.04 6.794,6.791 0,3.755 -3.042,6.796 -6.794,6.796 z" /></g></g><circle
       style="fill:none;stroke:#323114;stroke-miterlimit:10"
       id="circle25"
       r="11.557"
       cy="25.047001"
       cx="26.610001"
       stroke-miterlimit="10" /></g></svg>